G04*
G04 #@! TF.GenerationSoftware,Altium Limited,Altium Designer,20.0.13 (296)*
G04*
G04 Layer_Physical_Order=2*
G04 Layer_Color=36540*
%FSLAX25Y25*%
%MOIN*%
G70*
G01*
G75*
%ADD83O,0.08268X0.07087*%
%ADD85O,0.07087X0.08268*%
G04:AMPARAMS|DCode=88|XSize=35.43mil|YSize=31.5mil|CornerRadius=0mil|HoleSize=0mil|Usage=FLASHONLY|Rotation=120.000|XOffset=0mil|YOffset=0mil|HoleType=Round|Shape=Round|*
%AMOVALD88*
21,1,0.00394,0.03150,0.00000,0.00000,120.0*
1,1,0.03150,0.00098,-0.00171*
1,1,0.03150,-0.00098,0.00171*
%
%ADD88OVALD88*%

G04:AMPARAMS|DCode=89|XSize=70.87mil|YSize=82.68mil|CornerRadius=0mil|HoleSize=0mil|Usage=FLASHONLY|Rotation=40.000|XOffset=0mil|YOffset=0mil|HoleType=Round|Shape=Round|*
%AMOVALD89*
21,1,0.01181,0.07087,0.00000,0.00000,130.0*
1,1,0.07087,0.00380,-0.00452*
1,1,0.07087,-0.00380,0.00452*
%
%ADD89OVALD89*%

%ADD92C,0.01772*%
%ADD93C,0.01968*%
G36*
X16499Y82968D02*
X16499Y82968D01*
X16499Y82968D01*
X17471Y82759D01*
X18007Y82634D01*
X17914Y81629D01*
X17085Y81593D01*
X15944Y81233D01*
X15361Y80862D01*
X18322Y77332D01*
X21450Y79957D01*
X21391Y80026D01*
X20509Y80834D01*
X19848Y81178D01*
X20197Y82124D01*
X21898Y81727D01*
X27196Y80120D01*
X32378Y78170D01*
X37421Y75885D01*
X42304Y73275D01*
X47006Y70351D01*
X51506Y67126D01*
X55786Y63614D01*
X59827Y59829D01*
X63612Y55788D01*
X67124Y51508D01*
X70349Y47007D01*
X73273Y42305D01*
X75883Y37423D01*
X78168Y32379D01*
X80119Y27198D01*
X81726Y21899D01*
X82983Y16507D01*
X83315Y14496D01*
X82430Y13718D01*
X80709Y13854D01*
X78541Y13683D01*
X76428Y13176D01*
X74419Y12344D01*
X72566Y11208D01*
X70913Y9796D01*
X69501Y8143D01*
X68365Y6289D01*
X67533Y4281D01*
X67026Y2167D01*
X66855Y0D01*
X67026Y-2167D01*
X67533Y-4281D01*
X68365Y-6289D01*
X69501Y-8143D01*
X70913Y-9796D01*
X72566Y-11208D01*
X74419Y-12344D01*
X76428Y-13176D01*
X78541Y-13683D01*
X80709Y-13854D01*
X82430Y-13718D01*
X83315Y-14496D01*
X82983Y-16506D01*
X81726Y-21898D01*
X80408Y-26242D01*
X80077Y-27185D01*
X79709Y-28033D01*
X79426Y-28563D01*
X78698Y-29450D01*
X77811Y-30178D01*
X76799Y-30719D01*
X75701Y-31052D01*
X74560Y-31164D01*
X73418Y-31052D01*
X72834Y-30875D01*
X72823Y-30912D01*
X72823D01*
X72823Y-30912D01*
X72716Y-30891D01*
X71831Y-30622D01*
X69895Y-30432D01*
X67959Y-30622D01*
X66098Y-31187D01*
X64383Y-32104D01*
X62879Y-33338D01*
X61645Y-34841D01*
X60728Y-36557D01*
X60164Y-38418D01*
X59973Y-40354D01*
X60164Y-42289D01*
X60728Y-44150D01*
X61645Y-45866D01*
X62879Y-47369D01*
X63163Y-47631D01*
X63339Y-47776D01*
X64067Y-48663D01*
X64608Y-49674D01*
X64941Y-50772D01*
X65053Y-51914D01*
X64941Y-53056D01*
X64608Y-54154D01*
X64158Y-54994D01*
X63582Y-55756D01*
X62930Y-56514D01*
X59827Y-59827D01*
X58340Y-61220D01*
X57422Y-60823D01*
Y-51757D01*
X56707D01*
X56213Y-50757D01*
X56721Y-50095D01*
X57279Y-48747D01*
X57470Y-47300D01*
X57279Y-45853D01*
X56721Y-44504D01*
X55832Y-43346D01*
X54674Y-42458D01*
X53326Y-41899D01*
X51879Y-41709D01*
X50698D01*
X49251Y-41899D01*
X47902Y-42458D01*
X46744Y-43346D01*
X45856Y-44504D01*
X45297Y-45853D01*
X45107Y-47300D01*
X45297Y-48747D01*
X45856Y-50095D01*
X46363Y-50757D01*
X45870Y-51757D01*
X45154D01*
Y-62843D01*
X55146D01*
X55504Y-63843D01*
X51506Y-67124D01*
X47006Y-70349D01*
X42304Y-73273D01*
X37421Y-75883D01*
X32378Y-78168D01*
X27196Y-80118D01*
X21898Y-81726D01*
X16506Y-82983D01*
X11043Y-83885D01*
X5533Y-84427D01*
X-1Y-84609D01*
X-5534Y-84427D01*
X-11045Y-83885D01*
X-16507Y-82983D01*
X-21899Y-81726D01*
X-27198Y-80118D01*
X-32379Y-78168D01*
X-37423Y-75883D01*
X-42305Y-73273D01*
X-47007Y-70349D01*
X-51508Y-67124D01*
X-55477Y-63867D01*
X-55119Y-62867D01*
X-45757D01*
Y-62151D01*
X-44757Y-61658D01*
X-44096Y-62166D01*
X-42747Y-62724D01*
X-41300Y-62915D01*
X-39853Y-62724D01*
X-38504Y-62166D01*
X-37346Y-61277D01*
X-36458Y-60119D01*
X-35899Y-58771D01*
X-35709Y-57324D01*
Y-56142D01*
X-35899Y-54695D01*
X-36458Y-53347D01*
X-37346Y-52189D01*
X-38504Y-51301D01*
X-39853Y-50742D01*
X-41300Y-50551D01*
X-42747Y-50742D01*
X-44096Y-51301D01*
X-44757Y-51808D01*
X-45757Y-51315D01*
Y-50599D01*
X-56843D01*
Y-61366D01*
X-57761Y-61764D01*
X-59829Y-59827D01*
X-62932Y-56514D01*
X-63584Y-55756D01*
X-64160Y-54994D01*
X-64609Y-54154D01*
X-64943Y-53056D01*
X-65055Y-51914D01*
X-64943Y-50772D01*
X-64609Y-49674D01*
X-64069Y-48663D01*
X-63341Y-47776D01*
X-63165Y-47631D01*
X-63165Y-47631D01*
X-62881Y-47369D01*
X-61647Y-45866D01*
X-60730Y-44150D01*
X-60165Y-42289D01*
X-59975Y-40354D01*
X-60165Y-38418D01*
X-60730Y-36557D01*
X-61647Y-34841D01*
X-62881Y-33338D01*
X-64384Y-32104D01*
X-66100Y-31187D01*
X-67961Y-30622D01*
X-69897Y-30432D01*
X-70223Y-30464D01*
X-70792Y-29515D01*
X-70631Y-29274D01*
X-70477Y-28500D01*
X-70631Y-27726D01*
X-71069Y-27069D01*
X-71726Y-26631D01*
X-72500Y-26477D01*
X-73274Y-26631D01*
X-73931Y-27069D01*
X-74369Y-27726D01*
X-74523Y-28500D01*
X-74369Y-29274D01*
X-73931Y-29931D01*
X-73713Y-30076D01*
X-73971Y-31106D01*
X-74561Y-31164D01*
X-75703Y-31052D01*
X-76801Y-30719D01*
X-77813Y-30178D01*
X-78699Y-29450D01*
X-79427Y-28563D01*
X-79968Y-27552D01*
X-80079Y-27185D01*
X-80410Y-26242D01*
X-81727Y-21898D01*
X-82985Y-16506D01*
X-83316Y-14496D01*
X-82431Y-13718D01*
X-80709Y-13854D01*
X-78541Y-13683D01*
X-76428Y-13176D01*
X-74419Y-12344D01*
X-72566Y-11208D01*
X-70913Y-9796D01*
X-69501Y-8143D01*
X-68365Y-6289D01*
X-67533Y-4281D01*
X-67026Y-2167D01*
X-66855Y0D01*
X-67026Y2167D01*
X-67533Y4281D01*
X-68365Y6289D01*
X-69501Y8143D01*
X-70913Y9796D01*
X-72566Y11208D01*
X-74419Y12344D01*
X-76428Y13176D01*
X-78541Y13683D01*
X-80709Y13854D01*
X-82432Y13718D01*
X-83317Y14495D01*
X-82985Y16507D01*
X-81727Y21899D01*
X-80120Y27198D01*
X-78170Y32379D01*
X-75885Y37423D01*
X-73275Y42305D01*
X-70351Y47007D01*
X-67126Y51508D01*
X-63614Y55788D01*
X-59829Y59829D01*
X-55829Y63574D01*
X-55727Y63594D01*
X-54657Y63248D01*
X-54507Y62886D01*
X-54310Y62545D01*
X-53737Y61798D01*
X-52990Y61225D01*
X-52121Y60865D01*
X-51187Y60742D01*
X-50254Y60865D01*
X-49385Y61225D01*
X-48638Y61798D01*
X-48065Y62545D01*
X-47747Y63311D01*
X-46925Y63203D01*
X-45992Y63326D01*
X-45123Y63686D01*
X-44376Y64259D01*
X-43803Y65005D01*
X-43486Y65772D01*
X-42663Y65663D01*
X-41730Y65786D01*
X-40861Y66146D01*
X-40114Y66719D01*
X-39541Y67466D01*
X-39181Y68336D01*
X-39152Y68557D01*
X-38402Y69133D01*
X-37729Y69221D01*
X-37569Y69288D01*
X-38933Y71650D01*
X-38067Y72150D01*
X-36644Y69686D01*
X-35910Y69655D01*
X-35580Y69535D01*
X-35448Y69307D01*
X-29256Y72882D01*
X-31936Y77522D01*
X-31599Y78464D01*
X-27198Y80120D01*
X-21899Y81727D01*
X-17472Y82759D01*
X-16501Y82968D01*
X-15359Y83081D01*
X-14218Y82968D01*
X-13120Y82635D01*
X-12108Y82095D01*
X-11221Y81367D01*
X-10493Y80480D01*
X-9953Y79468D01*
X-9665Y78519D01*
X-9665Y78519D01*
X-9564Y78189D01*
X-9558Y78179D01*
X-9386Y77635D01*
X-9167Y76913D01*
X-8251Y75197D01*
X-7017Y73694D01*
X-5513Y72460D01*
X-3798Y71543D01*
X-1936Y70978D01*
X-1Y70788D01*
X229Y70810D01*
X635Y69845D01*
X-5250Y64908D01*
X2636Y55510D01*
X11129Y62637D01*
X10669Y63184D01*
X11118Y64205D01*
X11951Y64241D01*
X13342Y64680D01*
X14573Y65465D01*
X15560Y66541D01*
X16233Y67835D01*
X16549Y69260D01*
X16486Y70718D01*
X16362Y71112D01*
X16845Y71626D01*
X17179Y71846D01*
X18241Y71610D01*
X19436Y71663D01*
X20577Y72022D01*
X21160Y72394D01*
X17877Y76306D01*
X14595Y80219D01*
X14127Y79709D01*
X13575Y78648D01*
X13316Y77480D01*
X13363Y76393D01*
X13089Y76102D01*
X12499Y75716D01*
X12133Y75906D01*
X10708Y76222D01*
X9912Y76187D01*
X9591Y76499D01*
X9241Y77159D01*
X9385Y77635D01*
X9556Y78179D01*
X9562Y78189D01*
X9663Y78519D01*
X9663Y78519D01*
X9951Y79468D01*
X10492Y80480D01*
X11220Y81367D01*
X12106Y82095D01*
X13118Y82635D01*
X14216Y82968D01*
X15358Y83081D01*
X16499Y82968D01*
D02*
G37*
%LPC*%
G36*
X22092Y79190D02*
X18965Y76566D01*
X21926Y73037D01*
X22394Y73547D01*
X22946Y74608D01*
X23205Y75776D01*
X23153Y76971D01*
X22793Y78112D01*
X22151Y79121D01*
X22092Y79190D01*
D02*
G37*
G36*
X-32400Y67023D02*
X-33174Y66869D01*
X-33831Y66431D01*
X-34269Y65774D01*
X-34423Y65000D01*
X-34269Y64226D01*
X-33831Y63569D01*
X-33174Y63131D01*
X-32400Y62977D01*
X-31626Y63131D01*
X-30969Y63569D01*
X-30531Y64226D01*
X-30377Y65000D01*
X-30531Y65774D01*
X-30969Y66431D01*
X-31626Y66869D01*
X-32400Y67023D01*
D02*
G37*
G36*
X-24500Y71023D02*
X-25274Y70869D01*
X-25931Y70431D01*
X-26369Y69774D01*
X-26523Y69000D01*
X-26369Y68226D01*
X-25931Y67569D01*
X-25274Y67131D01*
X-24500Y66977D01*
X-23726Y67131D01*
X-23674Y67166D01*
X-22526Y66895D01*
X-22336Y66374D01*
X-22469Y66174D01*
X-22623Y65400D01*
X-22469Y64626D01*
X-22031Y63969D01*
X-21374Y63531D01*
X-20600Y63377D01*
X-20567Y63384D01*
X-19717Y62533D01*
X-19723Y62500D01*
X-19569Y61726D01*
X-19131Y61069D01*
X-18474Y60631D01*
X-17700Y60477D01*
X-16926Y60631D01*
X-16269Y61069D01*
X-15831Y61726D01*
X-15677Y62500D01*
X-15831Y63274D01*
X-16269Y63931D01*
X-16926Y64369D01*
X-17700Y64523D01*
X-17733Y64517D01*
X-18583Y65367D01*
X-18577Y65400D01*
X-18731Y66174D01*
X-19069Y67069D01*
X-18631Y67726D01*
X-18477Y68500D01*
X-18631Y69274D01*
X-19069Y69931D01*
X-19726Y70369D01*
X-20500Y70523D01*
X-21274Y70369D01*
X-21719Y70072D01*
X-22047Y69965D01*
X-22934Y70228D01*
X-23069Y70431D01*
X-23726Y70869D01*
X-24500Y71023D01*
D02*
G37*
G36*
X-35700Y63223D02*
X-36474Y63069D01*
X-37131Y62631D01*
X-37569Y61974D01*
X-37723Y61200D01*
X-37569Y60426D01*
X-37131Y59769D01*
X-36789Y59541D01*
X-37179Y58599D01*
X-37300Y58623D01*
X-38074Y58469D01*
X-38731Y58031D01*
X-39169Y57374D01*
X-39323Y56600D01*
X-39169Y55826D01*
X-38731Y55169D01*
X-38074Y54731D01*
X-37423Y54601D01*
X-37523Y54100D01*
X-37369Y53326D01*
X-36931Y52669D01*
X-36274Y52231D01*
X-35500Y52077D01*
X-34726Y52231D01*
X-34069Y52669D01*
X-33631Y53326D01*
X-33477Y54100D01*
X-33631Y54874D01*
X-34069Y55531D01*
X-34726Y55969D01*
X-35377Y56099D01*
X-35277Y56600D01*
X-35431Y57374D01*
X-35869Y58031D01*
X-36211Y58259D01*
X-35821Y59201D01*
X-35700Y59177D01*
X-34926Y59331D01*
X-34269Y59769D01*
X-33831Y60426D01*
X-33677Y61200D01*
X-33831Y61974D01*
X-34269Y62631D01*
X-34926Y63069D01*
X-35700Y63223D01*
D02*
G37*
G36*
X-48900Y53623D02*
X-49674Y53469D01*
X-50331Y53031D01*
X-50769Y52374D01*
X-50923Y51600D01*
X-50769Y50826D01*
X-50331Y50169D01*
X-49674Y49731D01*
X-48900Y49577D01*
X-48126Y49731D01*
X-47469Y50169D01*
X-47031Y50826D01*
X-46877Y51600D01*
X-47031Y52374D01*
X-47469Y53031D01*
X-48126Y53469D01*
X-48900Y53623D01*
D02*
G37*
G36*
X-17200Y44023D02*
X-17974Y43869D01*
X-18631Y43431D01*
X-19069Y42774D01*
X-19223Y42000D01*
X-19069Y41226D01*
X-18631Y40569D01*
X-17974Y40131D01*
X-17200Y39977D01*
X-16426Y40131D01*
X-15769Y40569D01*
X-15331Y41226D01*
X-15177Y42000D01*
X-15331Y42774D01*
X-15769Y43431D01*
X-16426Y43869D01*
X-17200Y44023D01*
D02*
G37*
G36*
X67091Y43082D02*
X67000D01*
Y39000D01*
X71607D01*
X71517Y39686D01*
X71059Y40791D01*
X70331Y41740D01*
X69382Y42469D01*
X68277Y42926D01*
X67091Y43082D01*
D02*
G37*
G36*
X66000D02*
X65909D01*
X64723Y42926D01*
X63618Y42469D01*
X62669Y41740D01*
X61941Y40791D01*
X61483Y39686D01*
X61393Y39000D01*
X66000D01*
Y43082D01*
D02*
G37*
G36*
X-28300Y45523D02*
X-29074Y45369D01*
X-29731Y44931D01*
X-30169Y44274D01*
X-30323Y43500D01*
X-30169Y42726D01*
X-29731Y42069D01*
X-29074Y41631D01*
X-28323Y40800D01*
X-28169Y40026D01*
X-27731Y39369D01*
X-27074Y38931D01*
X-26300Y38777D01*
X-25526Y38931D01*
X-24869Y39369D01*
X-24431Y40026D01*
X-24277Y40800D01*
X-24431Y41574D01*
X-24869Y42231D01*
X-25526Y42669D01*
X-26277Y43500D01*
X-26431Y44274D01*
X-26869Y44931D01*
X-27526Y45369D01*
X-28300Y45523D01*
D02*
G37*
G36*
X-70600Y42123D02*
X-71374Y41969D01*
X-72031Y41531D01*
X-72469Y40874D01*
X-72623Y40100D01*
X-72469Y39326D01*
X-72031Y38669D01*
X-71374Y38231D01*
X-70600Y38077D01*
X-69826Y38231D01*
X-69169Y38669D01*
X-68731Y39326D01*
X-68577Y40100D01*
X-68731Y40874D01*
X-69169Y41531D01*
X-69826Y41969D01*
X-70600Y42123D01*
D02*
G37*
G36*
X-55500Y28682D02*
X-56947Y28491D01*
X-58296Y27933D01*
X-59453Y27044D01*
X-59870Y26502D01*
X-61130D01*
X-61546Y27044D01*
X-62704Y27933D01*
X-64053Y28491D01*
X-65500Y28682D01*
X-66947Y28491D01*
X-68296Y27933D01*
X-69454Y27044D01*
X-70342Y25886D01*
X-70500Y25505D01*
X-71200Y25421D01*
X-71598Y25468D01*
X-72260Y26331D01*
X-73209Y27059D01*
X-74314Y27517D01*
X-75000Y27607D01*
Y22500D01*
Y17393D01*
X-74314Y17483D01*
X-73209Y17941D01*
X-72260Y18669D01*
X-71598Y19532D01*
X-71200Y19579D01*
X-70500Y19495D01*
X-70342Y19114D01*
X-69454Y17956D01*
X-68296Y17067D01*
X-66947Y16509D01*
X-65500Y16318D01*
X-64053Y16509D01*
X-62704Y17067D01*
X-61546Y17956D01*
X-61130Y18498D01*
X-59870D01*
X-59453Y17956D01*
X-58296Y17067D01*
X-56947Y16509D01*
X-55500Y16318D01*
X-54053Y16509D01*
X-52704Y17067D01*
X-52043Y17575D01*
X-51043Y17082D01*
Y16366D01*
X-39957D01*
Y28634D01*
X-51043D01*
Y27918D01*
X-52043Y27425D01*
X-52704Y27933D01*
X-54053Y28491D01*
X-55500Y28682D01*
D02*
G37*
G36*
X-76000Y27607D02*
X-76686Y27517D01*
X-77791Y27059D01*
X-78740Y26331D01*
X-79469Y25382D01*
X-79926Y24277D01*
X-80082Y23091D01*
Y23000D01*
X-76000D01*
Y27607D01*
D02*
G37*
G36*
X71607Y38000D02*
X66500D01*
X61393D01*
X61483Y37314D01*
X61941Y36209D01*
X62669Y35260D01*
X62951Y35043D01*
X62612Y34043D01*
X60366D01*
Y22957D01*
X72634D01*
Y34043D01*
X70388D01*
X70049Y35043D01*
X70331Y35260D01*
X71059Y36209D01*
X71517Y37314D01*
X71607Y38000D01*
D02*
G37*
G36*
X22100Y24123D02*
X21326Y23969D01*
X20669Y23531D01*
X20231Y22874D01*
X20077Y22100D01*
X20231Y21326D01*
X20669Y20669D01*
X21326Y20231D01*
X22100Y20077D01*
X22874Y20231D01*
X23531Y20669D01*
X23969Y21326D01*
X24123Y22100D01*
X23969Y22874D01*
X23531Y23531D01*
X22874Y23969D01*
X22100Y24123D01*
D02*
G37*
G36*
X-76000Y22000D02*
X-80082D01*
Y21909D01*
X-79926Y20723D01*
X-79469Y19618D01*
X-78740Y18669D01*
X-77791Y17941D01*
X-76686Y17483D01*
X-76000Y17393D01*
Y22000D01*
D02*
G37*
G36*
X17346Y13869D02*
X16572Y13715D01*
X15915Y13276D01*
X15477Y12620D01*
X15323Y11846D01*
X15477Y11072D01*
X15915Y10415D01*
X16572Y9977D01*
X17346Y9823D01*
X18120Y9977D01*
X18776Y10415D01*
X19215Y11072D01*
X19369Y11846D01*
X19215Y12620D01*
X18776Y13276D01*
X18120Y13715D01*
X17346Y13869D01*
D02*
G37*
G36*
X23000Y10023D02*
X22226Y9869D01*
X21569Y9431D01*
X21131Y8774D01*
X20977Y8000D01*
X21131Y7226D01*
X21569Y6569D01*
X22226Y6131D01*
X23000Y5977D01*
X23774Y6131D01*
X24431Y6569D01*
X24869Y7226D01*
X25023Y8000D01*
X24869Y8774D01*
X24431Y9431D01*
X23774Y9869D01*
X23000Y10023D01*
D02*
G37*
G36*
X-10535Y8621D02*
X-11310Y8467D01*
X-11966Y8029D01*
X-12405Y7373D01*
X-12559Y6598D01*
X-12405Y5824D01*
X-11966Y5168D01*
X-11310Y4729D01*
X-10535Y4575D01*
X-9761Y4729D01*
X-9105Y5168D01*
X-8666Y5824D01*
X-8512Y6598D01*
X-8666Y7373D01*
X-9105Y8029D01*
X-9761Y8467D01*
X-10535Y8621D01*
D02*
G37*
G36*
X-41800Y5723D02*
X-42574Y5569D01*
X-43231Y5131D01*
X-43669Y4474D01*
X-43823Y3700D01*
X-43669Y2926D01*
X-43231Y2269D01*
X-42574Y1831D01*
X-41800Y1677D01*
X-41026Y1831D01*
X-40369Y2269D01*
X-39931Y2926D01*
X-39777Y3700D01*
X-39931Y4474D01*
X-40369Y5131D01*
X-41026Y5569D01*
X-41800Y5723D01*
D02*
G37*
G36*
X-15000Y5023D02*
X-15774Y4869D01*
X-16431Y4431D01*
X-16869Y3774D01*
X-17023Y3000D01*
X-16869Y2226D01*
X-16431Y1569D01*
X-15774Y1131D01*
X-15000Y977D01*
X-14226Y1131D01*
X-13569Y1569D01*
X-13131Y2226D01*
X-12977Y3000D01*
X-13131Y3774D01*
X-13569Y4431D01*
X-14226Y4869D01*
X-15000Y5023D01*
D02*
G37*
G36*
X-49500Y3834D02*
X-50274Y3680D01*
X-50931Y3242D01*
X-51369Y2585D01*
X-51523Y1811D01*
X-51369Y1037D01*
X-50931Y381D01*
X-50274Y-58D01*
X-49500Y-212D01*
X-48726Y-58D01*
X-48069Y381D01*
X-47631Y1037D01*
X-47477Y1811D01*
X-47631Y2585D01*
X-48069Y3242D01*
X-48726Y3680D01*
X-49500Y3834D01*
D02*
G37*
G36*
X52591Y14091D02*
X51409D01*
X49962Y13901D01*
X48614Y13342D01*
X47456Y12454D01*
X46567Y11296D01*
X46009Y9947D01*
X45818Y8500D01*
X46009Y7053D01*
X46567Y5704D01*
X47075Y5043D01*
X46582Y4043D01*
X45866D01*
Y-7043D01*
X58134D01*
Y4043D01*
X57419D01*
X56925Y5043D01*
X57433Y5704D01*
X57991Y7053D01*
X58182Y8500D01*
X57991Y9947D01*
X57433Y11296D01*
X56544Y12454D01*
X55386Y13342D01*
X54038Y13901D01*
X52591Y14091D01*
D02*
G37*
G36*
X-7311Y-4111D02*
X-8085Y-4265D01*
X-8742Y-4703D01*
X-9180Y-5360D01*
X-9334Y-6134D01*
X-9180Y-6908D01*
X-8742Y-7564D01*
X-8085Y-8003D01*
X-7311Y-8157D01*
X-6537Y-8003D01*
X-5880Y-7564D01*
X-5442Y-6908D01*
X-5288Y-6134D01*
X-5442Y-5360D01*
X-5880Y-4703D01*
X-6537Y-4265D01*
X-7311Y-4111D01*
D02*
G37*
G36*
X66000Y-9577D02*
X65264Y-9724D01*
X64640Y-10140D01*
X64224Y-10764D01*
X64077Y-11500D01*
X64224Y-12236D01*
X64640Y-12860D01*
X65264Y-13276D01*
X66000Y-13423D01*
X66736Y-13276D01*
X67360Y-12860D01*
X67776Y-12236D01*
X67923Y-11500D01*
X67776Y-10764D01*
X67360Y-10140D01*
X66736Y-9724D01*
X66000Y-9577D01*
D02*
G37*
G36*
X59000D02*
X58264Y-9724D01*
X57640Y-10140D01*
X57224Y-10764D01*
X57077Y-11500D01*
X57224Y-12236D01*
X57640Y-12860D01*
X58264Y-13276D01*
X59000Y-13423D01*
X59736Y-13276D01*
X60360Y-12860D01*
X60776Y-12236D01*
X60923Y-11500D01*
X60776Y-10764D01*
X60360Y-10140D01*
X59736Y-9724D01*
X59000Y-9577D01*
D02*
G37*
G36*
X52000D02*
X51264Y-9724D01*
X50640Y-10140D01*
X50224Y-10764D01*
X50077Y-11500D01*
X50224Y-12236D01*
X50640Y-12860D01*
X51264Y-13276D01*
X52000Y-13423D01*
X52736Y-13276D01*
X53360Y-12860D01*
X53776Y-12236D01*
X53923Y-11500D01*
X53776Y-10764D01*
X53360Y-10140D01*
X52736Y-9724D01*
X52000Y-9577D01*
D02*
G37*
G36*
X-9800Y-11577D02*
X-10574Y-11731D01*
X-11231Y-12169D01*
X-11669Y-12826D01*
X-11823Y-13600D01*
X-11669Y-14374D01*
X-11231Y-15031D01*
X-10574Y-15469D01*
X-9800Y-15623D01*
X-9026Y-15469D01*
X-8369Y-15031D01*
X-7931Y-14374D01*
X-7777Y-13600D01*
X-7931Y-12826D01*
X-8369Y-12169D01*
X-9026Y-11731D01*
X-9800Y-11577D01*
D02*
G37*
G36*
X21000Y-22977D02*
X20226Y-23131D01*
X19569Y-23569D01*
X19131Y-24226D01*
X18977Y-25000D01*
X19131Y-25774D01*
X19569Y-26431D01*
X20226Y-26869D01*
X21000Y-27023D01*
X21774Y-26869D01*
X22431Y-26431D01*
X22869Y-25774D01*
X23023Y-25000D01*
X22869Y-24226D01*
X22431Y-23569D01*
X21774Y-23131D01*
X21000Y-22977D01*
D02*
G37*
G36*
X-34827Y-25777D02*
X-35602Y-25931D01*
X-36258Y-26369D01*
X-36696Y-27026D01*
X-36851Y-27800D01*
X-36696Y-28574D01*
X-36258Y-29231D01*
X-35602Y-29669D01*
X-34827Y-29823D01*
X-34053Y-29669D01*
X-33397Y-29231D01*
X-32958Y-28574D01*
X-32804Y-27800D01*
X-32958Y-27026D01*
X-33397Y-26369D01*
X-34053Y-25931D01*
X-34827Y-25777D01*
D02*
G37*
G36*
X17200Y-26977D02*
X16426Y-27131D01*
X15769Y-27569D01*
X15331Y-28226D01*
X15177Y-29000D01*
X15331Y-29774D01*
X15769Y-30431D01*
X16426Y-30869D01*
X17200Y-31023D01*
X17974Y-30869D01*
X18631Y-30431D01*
X19069Y-29774D01*
X19223Y-29000D01*
X19069Y-28226D01*
X18631Y-27569D01*
X17974Y-27131D01*
X17200Y-26977D01*
D02*
G37*
G36*
X17500Y-35277D02*
X16726Y-35431D01*
X16069Y-35869D01*
X15631Y-36526D01*
X15477Y-37300D01*
X15631Y-38074D01*
X16069Y-38731D01*
X16726Y-39169D01*
X17500Y-39323D01*
X18274Y-39169D01*
X18931Y-38731D01*
X19369Y-38074D01*
X19523Y-37300D01*
X19369Y-36526D01*
X18931Y-35869D01*
X18274Y-35431D01*
X17500Y-35277D01*
D02*
G37*
G36*
X22500Y-39540D02*
X21726Y-39693D01*
X21069Y-40132D01*
X20631Y-40788D01*
X20477Y-41563D01*
X20631Y-42337D01*
X21069Y-42993D01*
X21726Y-43432D01*
X22500Y-43586D01*
X23274Y-43432D01*
X23931Y-42993D01*
X24369Y-42337D01*
X24523Y-41563D01*
X24369Y-40788D01*
X23931Y-40132D01*
X23274Y-39693D01*
X22500Y-39540D01*
D02*
G37*
G36*
X-10000Y-40677D02*
X-10774Y-40831D01*
X-11431Y-41269D01*
X-11869Y-41926D01*
X-12023Y-42700D01*
X-11869Y-43474D01*
X-11431Y-44131D01*
X-10774Y-44569D01*
X-10000Y-44723D01*
X-9226Y-44569D01*
X-8569Y-44131D01*
X-8131Y-43474D01*
X-7977Y-42700D01*
X-8131Y-41926D01*
X-8569Y-41269D01*
X-9226Y-40831D01*
X-10000Y-40677D01*
D02*
G37*
G36*
X-7256Y-53477D02*
X-8030Y-53631D01*
X-8687Y-54069D01*
X-9125Y-54726D01*
X-9279Y-55500D01*
X-9125Y-56274D01*
X-8687Y-56931D01*
X-8030Y-57369D01*
X-7256Y-57523D01*
X-6482Y-57369D01*
X-5825Y-56931D01*
X-5387Y-56274D01*
X-5233Y-55500D01*
X-5387Y-54726D01*
X-5825Y-54069D01*
X-6482Y-53631D01*
X-7256Y-53477D01*
D02*
G37*
G36*
X21000Y-75477D02*
X20226Y-75631D01*
X19569Y-76069D01*
X19131Y-76726D01*
X18977Y-77500D01*
X19131Y-78274D01*
X19569Y-78931D01*
X20226Y-79369D01*
X21000Y-79523D01*
X21774Y-79369D01*
X22431Y-78931D01*
X22869Y-78274D01*
X23023Y-77500D01*
X22869Y-76726D01*
X22431Y-76069D01*
X21774Y-75631D01*
X21000Y-75477D01*
D02*
G37*
%LPD*%
D83*
X66500Y38500D02*
D03*
D85*
X-75500Y22500D02*
D03*
D88*
X-38500Y71900D02*
D03*
D89*
X18260Y76628D02*
D03*
D92*
X48012Y52000D02*
D03*
X54000D02*
D03*
X48000Y60500D02*
D03*
Y44000D02*
D03*
X41000Y52000D02*
D03*
X34000Y67500D02*
D03*
X17500Y17000D02*
D03*
X-6500Y-32000D02*
D03*
X47500Y-39000D02*
D03*
X-21500Y-25500D02*
D03*
X-31500Y-53000D02*
D03*
D93*
X60000Y-32000D02*
D03*
X39000Y-69500D02*
D03*
X26500Y-74000D02*
D03*
X-74500Y32000D02*
D03*
X-65000Y-11500D02*
D03*
X-63000Y-4500D02*
D03*
X36500Y38000D02*
D03*
X29500D02*
D03*
X21500D02*
D03*
X6000Y40000D02*
D03*
X-1500D02*
D03*
X22500Y3000D02*
D03*
Y-46500D02*
D03*
X-40500Y-27500D02*
D03*
X-10000Y10500D02*
D03*
X-4500Y16500D02*
D03*
X-27000Y-2500D02*
D03*
X18194Y-5240D02*
D03*
X18249Y-54606D02*
D03*
X-48600Y-23700D02*
D03*
X-34800Y26600D02*
D03*
X61200Y50000D02*
D03*
X19700Y64700D02*
D03*
X47600Y65800D02*
D03*
X36800Y47400D02*
D03*
X36400Y56800D02*
D03*
X28700Y56400D02*
D03*
X30600Y47900D02*
D03*
X24800D02*
D03*
X18900Y55800D02*
D03*
X19100Y48000D02*
D03*
X12800Y44100D02*
D03*
X13300Y60300D02*
D03*
X1600Y55100D02*
D03*
X7800Y55500D02*
D03*
X-4600Y55300D02*
D03*
X7800Y48600D02*
D03*
X1800D02*
D03*
X-4000Y48500D02*
D03*
X-6800Y44600D02*
D03*
X-11000Y44700D02*
D03*
X-12500Y80100D02*
D03*
X-22000Y51900D02*
D03*
X-28000D02*
D03*
X-22000Y57600D02*
D03*
X-28000D02*
D03*
X-28300Y78400D02*
D03*
X-47900Y48700D02*
D03*
X-22800Y37700D02*
D03*
M02*
