G04*
G04 #@! TF.GenerationSoftware,Altium Limited,Altium Designer,20.0.13 (296)*
G04*
G04 Layer_Color=128*
%FSLAX25Y25*%
%MOIN*%
G70*
G01*
G75*
%ADD10C,0.00050*%
%ADD12C,0.00200*%
D10*
X-65123Y-57105D02*
G03*
X65121Y-57105I65122J57106D01*
G01*
X82016Y-27843D02*
G03*
X16894Y84951I-82016J27844D01*
G01*
X-16895D02*
G03*
X-82017Y-27843I16894J-84951D01*
G01*
X72227Y-32833D02*
G03*
X64548Y-46134I-2332J-7521D01*
G01*
X-64550D02*
G03*
X-72229Y-32833I-5347J5780D01*
G01*
X-7680Y78969D02*
G03*
X7678Y78969I7679J1740D01*
G01*
X72227Y-32833D02*
G03*
X82016Y-27843I2332J7521D01*
G01*
X65121Y-57105D02*
G03*
X64548Y-46134I-5920J5192D01*
G01*
X-64550D02*
G03*
X-65123Y-57105I5347J-5780D01*
G01*
X-82017Y-27843D02*
G03*
X-72229Y-32833I7456J2531D01*
G01*
X-7680Y78969D02*
G03*
X-16895Y84951I-7679J-1740D01*
G01*
X16894D02*
G03*
X7678Y78969I-1536J-7723D01*
G01*
D12*
X49441Y8500D02*
X54559D01*
X52000Y5941D02*
Y11059D01*
X49441Y-1500D02*
X54559D01*
X52000Y-4059D02*
Y1059D01*
X48729Y-47300D02*
X53847D01*
X51288Y-49859D02*
Y-44741D01*
X48729Y-57300D02*
X53847D01*
X51288Y-59859D02*
Y-54741D01*
X-43859Y-56733D02*
X-38741D01*
X-41300Y-59292D02*
Y-54174D01*
X-53859Y-56733D02*
X-48741D01*
X-51300Y-59292D02*
Y-54174D01*
X-35124Y74361D02*
X-33352D01*
X-34238Y73475D02*
Y75247D01*
X-39386Y71900D02*
X-37614D01*
X-38500Y71014D02*
Y72786D01*
X-43648Y69439D02*
X-41876D01*
X-42762Y68554D02*
Y70325D01*
X-47910Y66979D02*
X-46138D01*
X-47024Y66093D02*
Y67865D01*
X-52172Y64518D02*
X-50400D01*
X-51286Y63632D02*
Y65404D01*
X15701Y76628D02*
X20820D01*
X18260Y74069D02*
Y79187D01*
X8041Y70200D02*
X13159D01*
X10600Y67641D02*
Y72759D01*
X381Y63772D02*
X5499D01*
X2940Y61213D02*
Y66331D01*
X75787Y0D02*
X85630D01*
X80709Y-4921D02*
Y4921D01*
X-85630Y0D02*
X-75787D01*
X-80709Y-4921D02*
Y4921D01*
X-78059Y22500D02*
X-72941D01*
X-75500Y19941D02*
Y25059D01*
X-68059Y22500D02*
X-62941D01*
X-65500Y19941D02*
Y25059D01*
X-58059Y22500D02*
X-52941D01*
X-55500Y19941D02*
Y25059D01*
X-48059Y22500D02*
X-42941D01*
X-45500Y19941D02*
Y25059D01*
X63941Y28500D02*
X69059D01*
X66500Y25941D02*
Y31059D01*
X63941Y38500D02*
X69059D01*
X66500Y35941D02*
Y41059D01*
X51606Y-11500D02*
X52394D01*
X52000Y-11894D02*
Y-11106D01*
X65606Y-11500D02*
X66394D01*
X66000Y-11894D02*
Y-11106D01*
X58606Y-11500D02*
X59394D01*
X59000Y-11894D02*
Y-11106D01*
X47618Y52000D02*
X48406D01*
X48012Y51606D02*
Y52394D01*
X53606Y52000D02*
X54394D01*
X54000Y51606D02*
Y52394D01*
X47606Y60500D02*
X48394D01*
X48000Y60106D02*
Y60894D01*
X47606Y44000D02*
X48394D01*
X48000Y43606D02*
Y44394D01*
X40606Y52000D02*
X41394D01*
X41000Y51606D02*
Y52394D01*
X33606Y67500D02*
X34394D01*
X34000Y67106D02*
Y67894D01*
X17106Y17000D02*
X17894D01*
X17500Y16606D02*
Y17394D01*
X-6894Y-32000D02*
X-6106D01*
X-6500Y-32394D02*
Y-31606D01*
X47106Y-39000D02*
X47894D01*
X47500Y-39394D02*
Y-38606D01*
X-21894Y-25500D02*
X-21106D01*
X-21500Y-25894D02*
Y-25106D01*
X-31894Y-53000D02*
X-31106D01*
X-31500Y-53394D02*
Y-52606D01*
X59606Y-32000D02*
X60394D01*
X60000Y-32394D02*
Y-31606D01*
X38606Y-69500D02*
X39394D01*
X39000Y-69894D02*
Y-69106D01*
X26106Y-74000D02*
X26894D01*
X26500Y-74394D02*
Y-73606D01*
X-74894Y32000D02*
X-74106D01*
X-74500Y31606D02*
Y32394D01*
X-65394Y-11500D02*
X-64606D01*
X-65000Y-11894D02*
Y-11106D01*
X-63394Y-4500D02*
X-62606D01*
X-63000Y-4894D02*
Y-4106D01*
X36106Y38000D02*
X36894D01*
X36500Y37606D02*
Y38394D01*
X29106Y38000D02*
X29894D01*
X29500Y37606D02*
Y38394D01*
X21106Y38000D02*
X21894D01*
X21500Y37606D02*
Y38394D01*
X5606Y40000D02*
X6394D01*
X6000Y39606D02*
Y40394D01*
X-1894Y40000D02*
X-1106D01*
X-1500Y39606D02*
Y40394D01*
X22106Y3000D02*
X22894D01*
X22500Y2606D02*
Y3394D01*
X22106Y-46500D02*
X22894D01*
X22500Y-46894D02*
Y-46106D01*
X-40894Y-27500D02*
X-40106D01*
X-40500Y-27894D02*
Y-27106D01*
X-10394Y10500D02*
X-9606D01*
X-10000Y10106D02*
Y10894D01*
X-4894Y16500D02*
X-4106D01*
X-4500Y16106D02*
Y16894D01*
X-27394Y-2500D02*
X-26606D01*
X-27000Y-2894D02*
Y-2106D01*
X-72894Y-28500D02*
X-72106D01*
X-72500Y-28894D02*
Y-28106D01*
X20606Y-77500D02*
X21394D01*
X21000Y-77894D02*
Y-77106D01*
X21706Y22100D02*
X22494D01*
X22100Y21706D02*
Y22494D01*
X17800Y-5240D02*
X18588D01*
X18194Y-5633D02*
Y-4846D01*
X16806Y-29000D02*
X17594D01*
X17200Y-29394D02*
Y-28606D01*
X-10194Y-13600D02*
X-9406D01*
X-9800Y-13994D02*
Y-13206D01*
X17106Y-37300D02*
X17894D01*
X17500Y-37694D02*
Y-36906D01*
X-42194Y3700D02*
X-41406D01*
X-41800Y3306D02*
Y4094D01*
X-10394Y-42700D02*
X-9606D01*
X-10000Y-43094D02*
Y-42306D01*
X17855Y-54606D02*
X18643D01*
X18249Y-55000D02*
Y-54212D01*
X-48994Y-23700D02*
X-48206D01*
X-48600Y-24094D02*
Y-23306D01*
X-35221Y-27800D02*
X-34434D01*
X-34827Y-28194D02*
Y-27406D01*
X22106Y-41563D02*
X22894D01*
X22500Y-41956D02*
Y-41169D01*
X20606Y-25000D02*
X21394D01*
X21000Y-25394D02*
Y-24606D01*
X16952Y11846D02*
X17740D01*
X17346Y11452D02*
Y12240D01*
X22606Y8000D02*
X23394D01*
X23000Y7606D02*
Y8394D01*
X-15394Y3000D02*
X-14606D01*
X-15000Y2606D02*
Y3394D01*
X-10929Y6598D02*
X-10142D01*
X-10535Y6205D02*
Y6992D01*
X-7705Y-6134D02*
X-6917D01*
X-7311Y-6528D02*
Y-5740D01*
X-7650Y-55500D02*
X-6862D01*
X-7256Y-55894D02*
Y-55106D01*
X-49894Y1811D02*
X-49106D01*
X-49500Y1417D02*
Y2205D01*
X-70994Y40100D02*
X-70206D01*
X-70600Y39706D02*
Y40494D01*
X-35194Y26600D02*
X-34406D01*
X-34800Y26206D02*
Y26994D01*
X60806Y50000D02*
X61594D01*
X61200Y49606D02*
Y50394D01*
X19306Y64700D02*
X20094D01*
X19700Y64306D02*
Y65094D01*
X47206Y65800D02*
X47994D01*
X47600Y65406D02*
Y66194D01*
X36406Y47400D02*
X37194D01*
X36800Y47006D02*
Y47794D01*
X36006Y56800D02*
X36794D01*
X36400Y56406D02*
Y57194D01*
X28306Y56400D02*
X29094D01*
X28700Y56006D02*
Y56794D01*
X30206Y47900D02*
X30994D01*
X30600Y47506D02*
Y48294D01*
X24406Y47900D02*
X25194D01*
X24800Y47506D02*
Y48294D01*
X18506Y55800D02*
X19294D01*
X18900Y55406D02*
Y56194D01*
X18706Y48000D02*
X19494D01*
X19100Y47606D02*
Y48394D01*
X12406Y44100D02*
X13194D01*
X12800Y43706D02*
Y44494D01*
X12906Y60300D02*
X13694D01*
X13300Y59906D02*
Y60694D01*
X1206Y55100D02*
X1994D01*
X1600Y54706D02*
Y55494D01*
X7406Y55500D02*
X8194D01*
X7800Y55106D02*
Y55894D01*
X-4994Y55300D02*
X-4206D01*
X-4600Y54906D02*
Y55694D01*
X7406Y48600D02*
X8194D01*
X7800Y48206D02*
Y48994D01*
X1406Y48600D02*
X2194D01*
X1800Y48206D02*
Y48994D01*
X-4394Y48500D02*
X-3606D01*
X-4000Y48106D02*
Y48894D01*
X-7194Y44600D02*
X-6406D01*
X-6800Y44206D02*
Y44994D01*
X-11394Y44700D02*
X-10606D01*
X-11000Y44306D02*
Y45094D01*
X-12894Y80100D02*
X-12106D01*
X-12500Y79706D02*
Y80494D01*
X-36094Y61200D02*
X-35306D01*
X-35700Y60806D02*
Y61594D01*
X-37694Y56600D02*
X-36906D01*
X-37300Y56206D02*
Y56994D01*
X-22394Y51900D02*
X-21606D01*
X-22000Y51506D02*
Y52294D01*
X-28394Y51900D02*
X-27606D01*
X-28000Y51506D02*
Y52294D01*
X-22394Y57600D02*
X-21606D01*
X-22000Y57206D02*
Y57994D01*
X-28394Y57600D02*
X-27606D01*
X-28000Y57206D02*
Y57994D01*
X-18094Y62500D02*
X-17306D01*
X-17700Y62106D02*
Y62894D01*
X-20994Y65400D02*
X-20206D01*
X-20600Y65006D02*
Y65794D01*
X-32794Y65000D02*
X-32006D01*
X-32400Y64606D02*
Y65394D01*
X-26694Y40800D02*
X-25906D01*
X-26300Y40406D02*
Y41194D01*
X-17594Y42000D02*
X-16806D01*
X-17200Y41606D02*
Y42394D01*
X-28694Y43500D02*
X-27906D01*
X-28300Y43106D02*
Y43894D01*
X-28694Y78400D02*
X-27906D01*
X-28300Y78006D02*
Y78794D01*
X-48294Y48700D02*
X-47506D01*
X-47900Y48306D02*
Y49094D01*
X-35894Y54100D02*
X-35106D01*
X-35500Y53706D02*
Y54494D01*
X-49294Y51600D02*
X-48506D01*
X-48900Y51206D02*
Y51994D01*
X-23194Y37700D02*
X-22406D01*
X-22800Y37306D02*
Y38094D01*
X-24894Y69000D02*
X-24106D01*
X-24500Y68606D02*
Y69394D01*
X-20894Y68500D02*
X-20106D01*
X-20500Y68106D02*
Y68894D01*
M02*
