G04*
G04 #@! TF.GenerationSoftware,Altium Limited,Altium Designer,20.0.13 (296)*
G04*
G04 Layer_Color=32896*
%FSLAX25Y25*%
%MOIN*%
G70*
G01*
G75*
%ADD10C,0.00600*%
%ADD11C,0.00787*%
%ADD12C,0.00591*%
D10*
X-11900Y6500D02*
G03*
X-11900Y6500I-600J0D01*
G01*
D11*
X3276Y26610D02*
Y29760D01*
X12724Y26610D02*
Y29760D01*
X78724Y-23075D02*
Y-19925D01*
X69276Y-23075D02*
Y-19925D01*
X-29224Y-73075D02*
Y-69925D01*
X-19776Y-73075D02*
Y-69925D01*
X-16724Y-73075D02*
Y-69925D01*
X-7276Y-73075D02*
Y-69925D01*
X-4224Y-76575D02*
Y-73425D01*
X5224Y-76575D02*
Y-73425D01*
X8776Y-76575D02*
Y-73425D01*
X18224Y-76575D02*
Y-73425D01*
X55224Y-23075D02*
Y-19925D01*
X45776Y-23075D02*
Y-19925D01*
X66974Y-23075D02*
Y-19925D01*
X57526Y-23075D02*
Y-19925D01*
X-72075Y-16276D02*
X-68925D01*
X-72075Y-25724D02*
X-68925D01*
X-9724Y26425D02*
Y29575D01*
X-276Y26425D02*
Y29575D01*
X47276Y31925D02*
Y35075D01*
X56724Y31925D02*
Y35075D01*
X12846Y-19088D02*
Y-17120D01*
X9696D02*
X12846D01*
X1035Y-19088D02*
Y-17120D01*
X4184D01*
X-22480Y-3854D02*
X-20512D01*
X-22480Y-7004D02*
Y-3854D01*
Y-15665D02*
X-20512D01*
X-22480D02*
Y-12516D01*
X26853Y-1360D02*
Y7302D01*
X28035Y-1360D02*
Y7302D01*
X26853Y-1360D02*
X28035D01*
X26853Y7302D02*
X28035D01*
X-1857Y-5320D02*
Y3341D01*
X-676Y-5320D02*
Y3341D01*
X-1857Y-5320D02*
X-676D01*
X-1857Y3341D02*
X-676D01*
X26909Y-50726D02*
Y-42065D01*
X28090Y-50726D02*
Y-42065D01*
X26909Y-50726D02*
X28090D01*
X26909Y-42065D02*
X28090D01*
X-1802Y-54687D02*
Y-46025D01*
X-621Y-54687D02*
Y-46025D01*
X-1802Y-54687D02*
X-621D01*
X-1802Y-46025D02*
X-621D01*
X-36065Y-33535D02*
Y-32353D01*
X-44726Y-33535D02*
Y-32353D01*
Y-33535D02*
X-36065D01*
X-44726Y-32353D02*
X-36065D01*
X-40025Y-4824D02*
Y-3642D01*
X-48687Y-4824D02*
Y-3642D01*
Y-4824D02*
X-40025D01*
X-48687Y-3642D02*
X-40025D01*
X-12898Y10500D02*
Y13969D01*
X-25102Y10130D02*
Y13969D01*
X-57156Y33300D02*
X-51644D01*
X-57156Y45304D02*
X-51644D01*
D12*
X-47478Y46175D02*
G03*
X-47478Y46175I-197J0D01*
G01*
X34220Y13866D02*
X38157D01*
X27689Y-8102D02*
Y-4165D01*
X27220Y13866D02*
X31157D01*
X13533Y-858D02*
Y3079D01*
X27689Y-15602D02*
Y-11665D01*
X34276Y-35500D02*
X38213D01*
X27744Y-57468D02*
Y-53531D01*
X27276Y-35500D02*
X31213D01*
X13588Y-50224D02*
Y-46287D01*
X27744Y-64969D02*
Y-61032D01*
X-29500Y-43657D02*
Y-39720D01*
X-51468Y-33189D02*
X-47532D01*
X-29500Y-36658D02*
Y-32721D01*
X-44224Y-19033D02*
X-40287D01*
X-58969Y-33189D02*
X-55032D01*
M02*
