G04*
G04 #@! TF.GenerationSoftware,Altium Limited,Altium Designer,20.0.13 (296)*
G04*
G04 Layer_Physical_Order=1*
G04 Layer_Color=255*
%FSLAX25Y25*%
%MOIN*%
G70*
G01*
G75*
%ADD10C,0.00600*%
%ADD13C,0.01000*%
G04:AMPARAMS|DCode=15|XSize=57.13mil|YSize=45.32mil|CornerRadius=11.33mil|HoleSize=0mil|Usage=FLASHONLY|Rotation=270.000|XOffset=0mil|YOffset=0mil|HoleType=Round|Shape=RoundedRectangle|*
%AMROUNDEDRECTD15*
21,1,0.05713,0.02266,0,0,270.0*
21,1,0.03447,0.04532,0,0,270.0*
1,1,0.02266,-0.01133,-0.01723*
1,1,0.02266,-0.01133,0.01723*
1,1,0.02266,0.01133,0.01723*
1,1,0.02266,0.01133,-0.01723*
%
%ADD15ROUNDEDRECTD15*%
%ADD16R,0.10236X0.04331*%
%ADD17R,0.02200X0.07800*%
%ADD18R,0.07800X0.02200*%
G04:AMPARAMS|DCode=19|XSize=35.43mil|YSize=29.53mil|CornerRadius=7.38mil|HoleSize=0mil|Usage=FLASHONLY|Rotation=90.000|XOffset=0mil|YOffset=0mil|HoleType=Round|Shape=RoundedRectangle|*
%AMROUNDEDRECTD19*
21,1,0.03543,0.01476,0,0,90.0*
21,1,0.02067,0.02953,0,0,90.0*
1,1,0.01476,0.00738,0.01034*
1,1,0.01476,0.00738,-0.01034*
1,1,0.01476,-0.00738,-0.01034*
1,1,0.01476,-0.00738,0.01034*
%
%ADD19ROUNDEDRECTD19*%
G04:AMPARAMS|DCode=20|XSize=35.43mil|YSize=29.53mil|CornerRadius=7.38mil|HoleSize=0mil|Usage=FLASHONLY|Rotation=180.000|XOffset=0mil|YOffset=0mil|HoleType=Round|Shape=RoundedRectangle|*
%AMROUNDEDRECTD20*
21,1,0.03543,0.01476,0,0,180.0*
21,1,0.02067,0.02953,0,0,180.0*
1,1,0.01476,-0.01034,0.00738*
1,1,0.01476,0.01034,0.00738*
1,1,0.01476,0.01034,-0.00738*
1,1,0.01476,-0.01034,-0.00738*
%
%ADD20ROUNDEDRECTD20*%
%ADD21R,0.04331X0.10236*%
G04:AMPARAMS|DCode=22|XSize=35.43mil|YSize=29.53mil|CornerRadius=7.38mil|HoleSize=0mil|Usage=FLASHONLY|Rotation=285.000|XOffset=0mil|YOffset=0mil|HoleType=Round|Shape=RoundedRectangle|*
%AMROUNDEDRECTD22*
21,1,0.03543,0.01476,0,0,285.0*
21,1,0.02067,0.02953,0,0,285.0*
1,1,0.01476,-0.00446,-0.01189*
1,1,0.01476,-0.00981,0.00807*
1,1,0.01476,0.00446,0.01189*
1,1,0.01476,0.00981,-0.00807*
%
%ADD22ROUNDEDRECTD22*%
G04:AMPARAMS|DCode=23|XSize=35.43mil|YSize=29.53mil|CornerRadius=7.38mil|HoleSize=0mil|Usage=FLASHONLY|Rotation=300.000|XOffset=0mil|YOffset=0mil|HoleType=Round|Shape=RoundedRectangle|*
%AMROUNDEDRECTD23*
21,1,0.03543,0.01476,0,0,300.0*
21,1,0.02067,0.02953,0,0,300.0*
1,1,0.01476,-0.00123,-0.01264*
1,1,0.01476,-0.01156,0.00526*
1,1,0.01476,0.00123,0.01264*
1,1,0.01476,0.01156,-0.00526*
%
%ADD23ROUNDEDRECTD23*%
G04:AMPARAMS|DCode=24|XSize=57.13mil|YSize=45.32mil|CornerRadius=11.33mil|HoleSize=0mil|Usage=FLASHONLY|Rotation=120.000|XOffset=0mil|YOffset=0mil|HoleType=Round|Shape=RoundedRectangle|*
%AMROUNDEDRECTD24*
21,1,0.05713,0.02266,0,0,120.0*
21,1,0.03447,0.04532,0,0,120.0*
1,1,0.02266,0.00119,0.02059*
1,1,0.02266,0.01843,-0.00926*
1,1,0.02266,-0.00119,-0.02059*
1,1,0.02266,-0.01843,0.00926*
%
%ADD24ROUNDEDRECTD24*%
%ADD25R,0.03937X0.03937*%
%ADD26R,0.08661X0.04134*%
%ADD27R,0.03937X0.01378*%
%ADD28R,0.01378X0.03937*%
%ADD29R,0.02362X0.02400*%
%ADD30R,0.02362X0.02362*%
%ADD31R,0.02362X0.02362*%
%ADD32R,0.01181X0.01968*%
G04:AMPARAMS|DCode=33|XSize=19.68mil|YSize=20.63mil|CornerRadius=4.92mil|HoleSize=0mil|Usage=FLASHONLY|Rotation=90.000|XOffset=0mil|YOffset=0mil|HoleType=Round|Shape=RoundedRectangle|*
%AMROUNDEDRECTD33*
21,1,0.01968,0.01079,0,0,90.0*
21,1,0.00984,0.02063,0,0,90.0*
1,1,0.00984,0.00539,0.00492*
1,1,0.00984,0.00539,-0.00492*
1,1,0.00984,-0.00539,-0.00492*
1,1,0.00984,-0.00539,0.00492*
%
%ADD33ROUNDEDRECTD33*%
%ADD34R,0.05512X0.02756*%
%ADD35R,0.03740X0.03347*%
%ADD37O,0.00787X0.02362*%
%ADD38O,0.02362X0.00787*%
G04:AMPARAMS|DCode=39|XSize=31.5mil|YSize=31.5mil|CornerRadius=7.87mil|HoleSize=0mil|Usage=FLASHONLY|Rotation=15.000|XOffset=0mil|YOffset=0mil|HoleType=Round|Shape=RoundedRectangle|*
%AMROUNDEDRECTD39*
21,1,0.03150,0.01575,0,0,15.0*
21,1,0.01575,0.03150,0,0,15.0*
1,1,0.01575,0.00964,-0.00557*
1,1,0.01575,-0.00557,-0.00964*
1,1,0.01575,-0.00964,0.00557*
1,1,0.01575,0.00557,0.00964*
%
%ADD39ROUNDEDRECTD39*%
G04:AMPARAMS|DCode=40|XSize=39.37mil|YSize=39.37mil|CornerRadius=9.84mil|HoleSize=0mil|Usage=FLASHONLY|Rotation=0.000|XOffset=0mil|YOffset=0mil|HoleType=Round|Shape=RoundedRectangle|*
%AMROUNDEDRECTD40*
21,1,0.03937,0.01968,0,0,0.0*
21,1,0.01968,0.03937,0,0,0.0*
1,1,0.01968,0.00984,-0.00984*
1,1,0.01968,-0.00984,-0.00984*
1,1,0.01968,-0.00984,0.00984*
1,1,0.01968,0.00984,0.00984*
%
%ADD40ROUNDEDRECTD40*%
%ADD41R,0.07874X0.11811*%
%ADD78R,0.11024X0.11024*%
%ADD79C,0.02000*%
%ADD80C,0.00800*%
%ADD81C,0.01500*%
%ADD82C,0.01155*%
%ADD83O,0.08268X0.07087*%
%ADD84R,0.08268X0.07087*%
%ADD85O,0.07087X0.08268*%
%ADD86R,0.07087X0.08268*%
G04:AMPARAMS|DCode=87|XSize=35.43mil|YSize=31.5mil|CornerRadius=0mil|HoleSize=0mil|Usage=FLASHONLY|Rotation=120.000|XOffset=0mil|YOffset=0mil|HoleType=Round|Shape=Rectangle|*
%AMROTATEDRECTD87*
4,1,4,0.02250,-0.00747,-0.00478,-0.02322,-0.02250,0.00747,0.00478,0.02322,0.02250,-0.00747,0.0*
%
%ADD87ROTATEDRECTD87*%

G04:AMPARAMS|DCode=88|XSize=35.43mil|YSize=31.5mil|CornerRadius=0mil|HoleSize=0mil|Usage=FLASHONLY|Rotation=120.000|XOffset=0mil|YOffset=0mil|HoleType=Round|Shape=Round|*
%AMOVALD88*
21,1,0.00394,0.03150,0.00000,0.00000,120.0*
1,1,0.03150,0.00098,-0.00171*
1,1,0.03150,-0.00098,0.00171*
%
%ADD88OVALD88*%

G04:AMPARAMS|DCode=89|XSize=70.87mil|YSize=82.68mil|CornerRadius=0mil|HoleSize=0mil|Usage=FLASHONLY|Rotation=40.000|XOffset=0mil|YOffset=0mil|HoleType=Round|Shape=Round|*
%AMOVALD89*
21,1,0.01181,0.07087,0.00000,0.00000,130.0*
1,1,0.07087,0.00380,-0.00452*
1,1,0.07087,-0.00380,0.00452*
%
%ADD89OVALD89*%

G04:AMPARAMS|DCode=90|XSize=70.87mil|YSize=82.68mil|CornerRadius=0mil|HoleSize=0mil|Usage=FLASHONLY|Rotation=40.000|XOffset=0mil|YOffset=0mil|HoleType=Round|Shape=Rectangle|*
%AMROTATEDRECTD90*
4,1,4,-0.00057,-0.05444,-0.05372,0.00889,0.00057,0.05444,0.05372,-0.00889,-0.00057,-0.05444,0.0*
%
%ADD90ROTATEDRECTD90*%

%ADD91C,0.11811*%
%ADD92C,0.01772*%
G36*
X16499Y82968D02*
X16499Y82968D01*
X16499Y82968D01*
X17471Y82759D01*
X18007Y82634D01*
X17914Y81629D01*
X17085Y81593D01*
X15944Y81233D01*
X15361Y80862D01*
X18322Y77332D01*
X21450Y79957D01*
X21391Y80026D01*
X20509Y80834D01*
X19848Y81178D01*
X20197Y82124D01*
X21898Y81727D01*
X27196Y80120D01*
X32378Y78170D01*
X37421Y75885D01*
X42304Y73275D01*
X47006Y70351D01*
X51506Y67126D01*
X55786Y63614D01*
X59827Y59829D01*
X63612Y55788D01*
X67124Y51508D01*
X70349Y47007D01*
X73273Y42305D01*
X75883Y37423D01*
X78168Y32379D01*
X80119Y27198D01*
X81726Y21899D01*
X82983Y16507D01*
X83315Y14496D01*
X82430Y13718D01*
X80709Y13854D01*
X78541Y13683D01*
X76428Y13176D01*
X74419Y12344D01*
X72566Y11208D01*
X70913Y9796D01*
X69501Y8143D01*
X68365Y6289D01*
X67533Y4281D01*
X67026Y2167D01*
X66855Y0D01*
X67026Y-2167D01*
X67533Y-4281D01*
X68365Y-6289D01*
X69501Y-8143D01*
X70913Y-9796D01*
X72566Y-11208D01*
X73890Y-12020D01*
X73608Y-13020D01*
X68002D01*
X67936Y-12020D01*
X68039Y-11500D01*
X67884Y-10720D01*
X67442Y-10058D01*
X66780Y-9616D01*
X66000Y-9461D01*
X65220Y-9616D01*
X64558Y-10058D01*
X64440Y-10176D01*
X63998Y-10838D01*
X63843Y-11618D01*
Y-13020D01*
X61039D01*
Y-11500D01*
X60884Y-10720D01*
X60442Y-10058D01*
X59780Y-9616D01*
X59000Y-9461D01*
X58220Y-9616D01*
X57558Y-10058D01*
X57116Y-10720D01*
X56961Y-11500D01*
Y-13020D01*
X54039D01*
Y-11500D01*
X53884Y-10720D01*
X53442Y-10058D01*
X52780Y-9616D01*
X52000Y-9461D01*
X51220Y-9616D01*
X50558Y-10058D01*
X50116Y-10720D01*
X49961Y-11500D01*
Y-13020D01*
X44382D01*
Y-18756D01*
X44382Y-19350D01*
X45000Y-20094D01*
Y-23500D01*
X55750D01*
X56000Y-23500D01*
X56750D01*
X57000Y-23500D01*
X67500D01*
X67750Y-23500D01*
X68500D01*
X68750Y-23500D01*
X79500D01*
Y-20094D01*
X80118Y-19350D01*
X80118Y-18756D01*
Y-14400D01*
X80709Y-13854D01*
X82430Y-13718D01*
X83315Y-14496D01*
X82983Y-16506D01*
X81726Y-21898D01*
X80408Y-26242D01*
X80077Y-27185D01*
X79709Y-28033D01*
X79426Y-28563D01*
X78698Y-29450D01*
X77811Y-30178D01*
X76799Y-30719D01*
X75701Y-31052D01*
X74560Y-31164D01*
X73418Y-31052D01*
X72834Y-30875D01*
X72823Y-30912D01*
X72823D01*
X72823Y-30912D01*
X72716Y-30891D01*
X71831Y-30622D01*
X69895Y-30432D01*
X67959Y-30622D01*
X66098Y-31187D01*
X64383Y-32104D01*
X62879Y-33338D01*
X61645Y-34841D01*
X60728Y-36557D01*
X60164Y-38418D01*
X59973Y-40354D01*
X60164Y-42289D01*
X60728Y-44150D01*
X61645Y-45866D01*
X62879Y-47369D01*
X63163Y-47631D01*
X63339Y-47776D01*
X64067Y-48663D01*
X64608Y-49674D01*
X64941Y-50772D01*
X65053Y-51914D01*
X64941Y-53056D01*
X64608Y-54154D01*
X64158Y-54994D01*
X63582Y-55756D01*
X62930Y-56514D01*
X59827Y-59827D01*
X58340Y-61220D01*
X57422Y-60823D01*
Y-51757D01*
X56707D01*
X56213Y-50757D01*
X56721Y-50095D01*
X57279Y-48747D01*
X57470Y-47300D01*
X57279Y-45853D01*
X56721Y-44504D01*
X55832Y-43346D01*
X54674Y-42458D01*
X53326Y-41899D01*
X51879Y-41709D01*
X50698D01*
X49251Y-41899D01*
X47902Y-42458D01*
X46744Y-43346D01*
X45856Y-44504D01*
X45297Y-45853D01*
X45107Y-47300D01*
X45297Y-48747D01*
X45856Y-50095D01*
X46363Y-50757D01*
X45870Y-51757D01*
X45154D01*
Y-62843D01*
X55146D01*
X55504Y-63843D01*
X51506Y-67124D01*
X47006Y-70349D01*
X42304Y-73273D01*
X37421Y-75883D01*
X32378Y-78168D01*
X27196Y-80118D01*
X21898Y-81726D01*
X20821Y-81977D01*
X20316Y-81068D01*
X22442Y-78942D01*
X22884Y-78280D01*
X23039Y-77500D01*
X22884Y-76720D01*
X22442Y-76058D01*
X21780Y-75616D01*
X21000Y-75461D01*
X20220Y-75616D01*
X20000Y-75763D01*
X19000Y-75230D01*
Y-73000D01*
X8000D01*
Y-77000D01*
X7382Y-77150D01*
X6938Y-77150D01*
X6000Y-76406D01*
Y-73000D01*
X-5000D01*
Y-73364D01*
X-5882Y-73650D01*
X-6500Y-72906D01*
Y-69500D01*
X-17500D01*
Y-72906D01*
X-17650Y-73086D01*
X-18075Y-73086D01*
X-19000Y-72148D01*
Y-69500D01*
X-30000D01*
Y-72906D01*
X-30618Y-73650D01*
X-30618Y-74244D01*
Y-77952D01*
X-31440Y-78522D01*
X-32379Y-78168D01*
X-37423Y-75883D01*
X-42305Y-73273D01*
X-47007Y-70349D01*
X-51508Y-67124D01*
X-55477Y-63867D01*
X-55119Y-62867D01*
X-45757D01*
Y-62151D01*
X-44757Y-61658D01*
X-44096Y-62166D01*
X-42747Y-62724D01*
X-41300Y-62915D01*
X-39853Y-62724D01*
X-38504Y-62166D01*
X-37346Y-61277D01*
X-36458Y-60119D01*
X-35899Y-58771D01*
X-35709Y-57324D01*
Y-56142D01*
X-35899Y-54695D01*
X-36458Y-53347D01*
X-37346Y-52189D01*
X-38504Y-51301D01*
X-39853Y-50742D01*
X-41300Y-50551D01*
X-42747Y-50742D01*
X-44096Y-51301D01*
X-44757Y-51808D01*
X-45757Y-51315D01*
Y-50599D01*
X-56843D01*
Y-61366D01*
X-57761Y-61764D01*
X-59829Y-59827D01*
X-62932Y-56514D01*
X-63584Y-55756D01*
X-64160Y-54994D01*
X-64609Y-54154D01*
X-64943Y-53056D01*
X-65055Y-51914D01*
X-64943Y-50772D01*
X-64609Y-49674D01*
X-64069Y-48663D01*
X-63341Y-47776D01*
X-63165Y-47631D01*
X-63165Y-47631D01*
X-62881Y-47369D01*
X-61647Y-45866D01*
X-60730Y-44150D01*
X-60165Y-42289D01*
X-60110Y-41732D01*
X-59169Y-41395D01*
X-56893Y-43670D01*
X-56463Y-43958D01*
X-55956Y-44058D01*
X-54408D01*
X-54331Y-44445D01*
X-53947Y-45020D01*
X-53372Y-45404D01*
X-52694Y-45539D01*
X-51218D01*
X-50525Y-45489D01*
X-50425Y-45996D01*
X-50425Y-45996D01*
X-50137Y-46426D01*
X-47693Y-48870D01*
X-47263Y-49158D01*
X-46756Y-49259D01*
X-33908D01*
X-33831Y-49645D01*
X-33447Y-50220D01*
X-32872Y-50604D01*
X-32194Y-50739D01*
X-30718D01*
X-30040Y-50604D01*
X-29465Y-50220D01*
X-29256Y-49907D01*
X-29066Y-49854D01*
X-28334D01*
X-28144Y-49907D01*
X-27935Y-50220D01*
X-27360Y-50604D01*
X-26682Y-50739D01*
X-25206D01*
X-24528Y-50604D01*
X-23953Y-50220D01*
X-22787Y-50180D01*
X-22212Y-50564D01*
X-21533Y-50699D01*
X-19466D01*
X-18788Y-50564D01*
X-18213Y-50180D01*
X-17829Y-49605D01*
X-17810Y-49511D01*
X-17319Y-49413D01*
X-16889Y-49126D01*
X-15687Y-47925D01*
X-13723D01*
X-13044Y-47790D01*
X-12469Y-47406D01*
X-12085Y-46831D01*
X-11950Y-46152D01*
Y-44839D01*
X-11533Y-44508D01*
X-11006Y-44296D01*
X-10736Y-44476D01*
X-10000Y-44623D01*
X-9264Y-44476D01*
X-8640Y-44060D01*
X-8224Y-43436D01*
X-8077Y-42700D01*
X-8224Y-41964D01*
X-8640Y-41340D01*
X-9264Y-40924D01*
X-10000Y-40777D01*
X-10736Y-40924D01*
X-11025Y-41117D01*
X-11736Y-40751D01*
X-11950Y-40561D01*
Y-39164D01*
X-12085Y-38486D01*
X-12469Y-37911D01*
X-13044Y-37527D01*
X-13430Y-37450D01*
Y-35495D01*
X-13044Y-35418D01*
X-12469Y-35034D01*
X-12085Y-34459D01*
X-11950Y-33780D01*
Y-32304D01*
X-12085Y-31626D01*
X-12469Y-31051D01*
X-12782Y-30842D01*
X-12835Y-30652D01*
Y-29921D01*
X-12782Y-29731D01*
X-12469Y-29522D01*
X-12085Y-28947D01*
X-11950Y-28269D01*
Y-26792D01*
X-12085Y-26114D01*
X-12469Y-25539D01*
X-13044Y-25155D01*
X-13430Y-25078D01*
Y-23160D01*
X-13288Y-23131D01*
X-12713Y-22747D01*
X-12329Y-22172D01*
X-12194Y-21494D01*
Y-20018D01*
X-12200Y-19989D01*
X-11063Y-18851D01*
X-10775Y-18421D01*
X-10674Y-17914D01*
Y-16368D01*
X-9800Y-15523D01*
X-8826Y-16328D01*
Y-22756D01*
X-8725Y-23263D01*
X-8437Y-23693D01*
X-3193Y-28937D01*
X-2763Y-29225D01*
X-2436Y-29290D01*
X-1942Y-29638D01*
X-1562Y-30018D01*
Y-31494D01*
X-1427Y-32172D01*
X-1043Y-32747D01*
X-468Y-33131D01*
X119Y-33248D01*
Y-34667D01*
X28Y-34685D01*
X-547Y-35069D01*
X-931Y-35644D01*
X-1066Y-36322D01*
Y-38389D01*
X-931Y-39068D01*
X-547Y-39643D01*
Y-40319D01*
X-931Y-40894D01*
X-1066Y-41572D01*
Y-43639D01*
X-931Y-44318D01*
X-547Y-44892D01*
Y-45569D01*
X-931Y-46144D01*
X-1066Y-46822D01*
Y-48889D01*
X-931Y-49568D01*
X-547Y-50143D01*
Y-50350D01*
X-993Y-50790D01*
X-2076Y-50819D01*
X-2651Y-50435D01*
X-3330Y-50300D01*
X-4806D01*
X-5484Y-50435D01*
X-6059Y-50819D01*
X-6443Y-51394D01*
X-6578Y-52072D01*
Y-53021D01*
X-7256Y-53577D01*
X-7992Y-53724D01*
X-8615Y-54140D01*
X-9032Y-54764D01*
X-9179Y-55500D01*
X-9032Y-56236D01*
X-8615Y-56860D01*
X-7992Y-57276D01*
X-7256Y-57423D01*
X-6578Y-58308D01*
Y-59389D01*
X-6443Y-60068D01*
X-6059Y-60642D01*
X-5484Y-61027D01*
X-4806Y-61162D01*
X-3330D01*
X-2651Y-61027D01*
X-2076Y-60642D01*
X-1867Y-60330D01*
X-1678Y-60277D01*
X-946D01*
X-756Y-60330D01*
X-547Y-60642D01*
X28Y-61027D01*
X119Y-61045D01*
Y-61210D01*
X219Y-61717D01*
X380Y-61957D01*
X347Y-62122D01*
Y-64189D01*
X482Y-64868D01*
X866Y-65443D01*
X1441Y-65827D01*
X2119Y-65962D01*
X3596D01*
X4274Y-65827D01*
X4849Y-65443D01*
X5058Y-65130D01*
X5248Y-65077D01*
X5979D01*
X6169Y-65130D01*
X6378Y-65443D01*
X6953Y-65827D01*
X7631Y-65962D01*
X9108D01*
X9786Y-65827D01*
X10361Y-65443D01*
X10633Y-65035D01*
X11160Y-64946D01*
X11204D01*
X11731Y-65035D01*
X12004Y-65443D01*
X12578Y-65827D01*
X13257Y-65962D01*
X14733D01*
X15411Y-65827D01*
X15986Y-65443D01*
X16195Y-65130D01*
X16385Y-65077D01*
X17117D01*
X17306Y-65130D01*
X17515Y-65443D01*
X18090Y-65827D01*
X18768Y-65962D01*
X20245D01*
X20923Y-65827D01*
X21498Y-65443D01*
X21770Y-65035D01*
X22298Y-64945D01*
X22341D01*
X22869Y-65035D01*
X23141Y-65443D01*
X23716Y-65827D01*
X24394Y-65962D01*
X25870D01*
X26032Y-65930D01*
X26867Y-66765D01*
X27297Y-67052D01*
X27804Y-67153D01*
X33417D01*
X33924Y-67052D01*
X34354Y-66765D01*
X38225Y-62893D01*
X38513Y-62463D01*
X38614Y-61956D01*
Y-60408D01*
X39000Y-60331D01*
X39575Y-59947D01*
X39959Y-59372D01*
X40094Y-58694D01*
Y-57218D01*
X40044Y-56525D01*
X40551Y-56425D01*
X40551Y-56425D01*
X40981Y-56137D01*
X43425Y-53693D01*
X43713Y-53263D01*
X43814Y-52756D01*
Y-39908D01*
X44200Y-39831D01*
X44775Y-39447D01*
X45159Y-38872D01*
X45294Y-38194D01*
Y-36718D01*
X45159Y-36040D01*
X44775Y-35465D01*
X44462Y-35256D01*
X44409Y-35066D01*
Y-34334D01*
X44462Y-34144D01*
X44775Y-33935D01*
X45159Y-33360D01*
X45294Y-32682D01*
Y-31206D01*
X45159Y-30528D01*
X44775Y-29953D01*
X44709Y-29909D01*
X44278Y-29278D01*
X44454Y-28627D01*
X44531Y-28512D01*
X44666Y-27834D01*
Y-25767D01*
X44531Y-25088D01*
X44147Y-24513D01*
X43572Y-24129D01*
X42894Y-23994D01*
X42653D01*
X42421Y-23647D01*
X41948Y-23173D01*
X41961Y-23043D01*
X42345Y-22468D01*
X42480Y-21789D01*
Y-19722D01*
X42345Y-19044D01*
X41961Y-18469D01*
X41386Y-18085D01*
X40707Y-17950D01*
X39231D01*
X38553Y-18085D01*
X37978Y-18469D01*
X37769Y-18782D01*
X37579Y-18835D01*
X36848D01*
X36658Y-18782D01*
X36449Y-18469D01*
X35874Y-18085D01*
X35196Y-17950D01*
X35161D01*
X34747Y-16950D01*
X38170Y-13527D01*
X38458Y-13097D01*
X38559Y-12590D01*
Y-11042D01*
X38945Y-10965D01*
X39520Y-10581D01*
X39904Y-10006D01*
X40039Y-9328D01*
Y-7852D01*
X39989Y-7159D01*
X40496Y-7058D01*
X40496Y-7058D01*
X40926Y-6771D01*
X43370Y-4327D01*
X43658Y-3897D01*
X43759Y-3390D01*
Y9458D01*
X44145Y9535D01*
X44720Y9919D01*
X45104Y10494D01*
X45239Y11172D01*
Y12648D01*
X45104Y13327D01*
X44720Y13902D01*
X44407Y14111D01*
X44354Y14300D01*
Y15032D01*
X44407Y15222D01*
X44720Y15431D01*
X45104Y16006D01*
X45239Y16684D01*
Y18160D01*
X45104Y18838D01*
X44720Y19413D01*
X44680Y20580D01*
X45064Y21155D01*
X45199Y21833D01*
Y23900D01*
X45064Y24578D01*
X44680Y25153D01*
X44105Y25537D01*
X44011Y25556D01*
X43914Y26047D01*
X43626Y26477D01*
X42425Y27679D01*
Y29644D01*
X42290Y30322D01*
X41906Y30897D01*
X41331Y31281D01*
X40652Y31416D01*
X39176D01*
X38498Y31281D01*
X37923Y30897D01*
X37714Y30584D01*
X37524Y30531D01*
X36793D01*
X36603Y30584D01*
X36394Y30897D01*
X35819Y31281D01*
X35141Y31416D01*
X33664D01*
X32986Y31281D01*
X32411Y30897D01*
X32027Y30322D01*
X31950Y29936D01*
X29994D01*
X29918Y30322D01*
X29533Y30897D01*
X28959Y31281D01*
X28280Y31416D01*
X26804D01*
X26126Y31281D01*
X25551Y30897D01*
X25342Y30584D01*
X25152Y30531D01*
X24421D01*
X24231Y30584D01*
X24022Y30897D01*
X23447Y31281D01*
X22769Y31416D01*
X21292D01*
X20614Y31281D01*
X20039Y30897D01*
X19655Y30322D01*
X19578Y29936D01*
X17482D01*
X17247Y30287D01*
X16672Y30671D01*
X15994Y30806D01*
X14879D01*
X14789Y30866D01*
X13352Y32303D01*
X12922Y32591D01*
X12414Y32692D01*
X6866D01*
X6359Y32591D01*
X5929Y32303D01*
X1397Y27771D01*
X1110Y27341D01*
X1009Y26834D01*
Y26632D01*
X155D01*
X-523Y26498D01*
X-1098Y26113D01*
X-1482Y25539D01*
X-1617Y24860D01*
Y23384D01*
X-2499Y22692D01*
X-39957D01*
Y28634D01*
X-44073D01*
Y31312D01*
X-43788Y31369D01*
X-43213Y31753D01*
X-42829Y32328D01*
X-42694Y33006D01*
Y34482D01*
X-42829Y35160D01*
X-43213Y35735D01*
X-43526Y35944D01*
X-43579Y36134D01*
Y36866D01*
X-43526Y37056D01*
X-43213Y37265D01*
X-42829Y37839D01*
X-42694Y38518D01*
Y39748D01*
X-40969Y41473D01*
X-34767D01*
X-34071Y40473D01*
X-34099Y40334D01*
Y38267D01*
X-33964Y37588D01*
X-33955Y37576D01*
X-33689Y36754D01*
X-33977Y36076D01*
X-34020Y36012D01*
X-34154Y35333D01*
Y33266D01*
X-34020Y32588D01*
X-33635Y32013D01*
X-33061Y31629D01*
X-32382Y31494D01*
X-30906D01*
X-30228Y31629D01*
X-29653Y32013D01*
X-29326Y32503D01*
X-28835Y32548D01*
X-28326Y32500D01*
X-28225Y31993D01*
X-27937Y31563D01*
X-25947Y29572D01*
X-25724Y29424D01*
Y26463D01*
X-19984D01*
Y30991D01*
X-14276D01*
Y36337D01*
X-17290D01*
Y36916D01*
X-17391Y37423D01*
X-17679Y37853D01*
X-19563Y39738D01*
X-19470Y40670D01*
X-18560Y40640D01*
X-17936Y40224D01*
X-17200Y40077D01*
X-17166Y40084D01*
X-16800Y39931D01*
X-16104Y39353D01*
X-16031Y38988D01*
X-15647Y38413D01*
X-15072Y38029D01*
X-14394Y37894D01*
X-12918D01*
X-12240Y38029D01*
X-11665Y38413D01*
X-11280Y38988D01*
X-11146Y39667D01*
Y41734D01*
X-11280Y42412D01*
X-11665Y42987D01*
X-12240Y43371D01*
X-12918Y43506D01*
X-14394D01*
X-15072Y43371D01*
X-15840Y43360D01*
X-16464Y43776D01*
X-17080Y43899D01*
X-18248Y45067D01*
Y47216D01*
X-17931Y47664D01*
X-17483Y47980D01*
X-12691D01*
Y46116D01*
X-9509D01*
Y50053D01*
X-5573D01*
Y50410D01*
X-3701D01*
X-3241Y50102D01*
X-2658Y49986D01*
X-1579D01*
X-997Y50102D01*
X-300Y50358D01*
X397Y50102D01*
X979Y49986D01*
X2058D01*
X2640Y50102D01*
X3073Y50392D01*
X5131D01*
Y50311D01*
X10332D01*
X11068Y50311D01*
X11332Y49420D01*
Y45488D01*
X14710D01*
Y49420D01*
X14974Y50311D01*
X15710Y50311D01*
X20911D01*
Y50392D01*
X21919D01*
Y49800D01*
X25651D01*
X26281Y49800D01*
X27273Y49819D01*
X31005D01*
Y50392D01*
X33317D01*
X33347Y50242D01*
X33785Y49585D01*
X34442Y49147D01*
X35216Y48993D01*
X37184D01*
X37958Y49147D01*
X38615Y49585D01*
X39053Y50242D01*
X39207Y51016D01*
Y52984D01*
X39053Y53759D01*
X38615Y54415D01*
X37958Y54853D01*
X37184Y55007D01*
X35216D01*
X34442Y54853D01*
X33785Y54415D01*
X33347Y53759D01*
X33317Y53608D01*
X31005D01*
Y54181D01*
X27273D01*
X27124Y54184D01*
X26535Y54435D01*
X26281Y55031D01*
X26281Y55200D01*
Y58906D01*
X25708D01*
Y62639D01*
X27201Y64131D01*
X30863D01*
Y70069D01*
X24926D01*
Y66406D01*
X22963Y64443D01*
X22614Y63921D01*
X22492Y63305D01*
Y58906D01*
X21919D01*
Y55200D01*
X21919Y54543D01*
X21814Y53922D01*
X20911Y53689D01*
X20911Y53689D01*
X20911Y53689D01*
X15710D01*
X14974Y53689D01*
X14710Y54580D01*
Y58512D01*
X11332D01*
Y54580D01*
X11068Y53689D01*
X10332Y53689D01*
X5131D01*
Y53608D01*
X3073D01*
X2640Y53898D01*
X2058Y54014D01*
X979D01*
X397Y53898D01*
X-300Y53642D01*
X-997Y53898D01*
X-1579Y54014D01*
X-2658D01*
X-3241Y53898D01*
X-3646Y53627D01*
X-5573D01*
Y54021D01*
X-8106D01*
X-8313Y54331D01*
X-8313Y54331D01*
X-8586Y54605D01*
X-8612Y54835D01*
X-8381Y55814D01*
X-8204Y55932D01*
X-7874Y56426D01*
X-7758Y57008D01*
Y57992D01*
X-7825Y58328D01*
X-7594Y58674D01*
X-7493Y59181D01*
Y59269D01*
X-4744D01*
Y62750D01*
X-3744Y63113D01*
X2636Y55510D01*
X11129Y62637D01*
X10669Y63184D01*
X11118Y64205D01*
X11951Y64241D01*
X13342Y64680D01*
X14573Y65465D01*
X15560Y66541D01*
X16233Y67835D01*
X16549Y69260D01*
X16486Y70718D01*
X16362Y71112D01*
X16845Y71626D01*
X17179Y71846D01*
X18241Y71610D01*
X19436Y71663D01*
X20577Y72022D01*
X21160Y72394D01*
X17877Y76306D01*
X14595Y80219D01*
X14127Y79709D01*
X13575Y78648D01*
X13316Y77480D01*
X13363Y76393D01*
X13089Y76102D01*
X12499Y75716D01*
X12133Y75906D01*
X10708Y76222D01*
X9912Y76187D01*
X9591Y76499D01*
X9241Y77159D01*
X9385Y77635D01*
X9556Y78179D01*
X9562Y78189D01*
X9663Y78519D01*
X9663Y78519D01*
X9951Y79468D01*
X10492Y80480D01*
X11220Y81367D01*
X12106Y82095D01*
X13118Y82635D01*
X14216Y82968D01*
X15358Y83081D01*
X16499Y82968D01*
D02*
G37*
G36*
X-20879Y81073D02*
X-20796Y80451D01*
X-21437Y79810D01*
X-21725Y79380D01*
X-21825Y78873D01*
Y77324D01*
X-22375Y77288D01*
X-23801Y76906D01*
X-24421Y76600D01*
X-24877Y76080D01*
X-25100Y75425D01*
X-25054Y74735D01*
X-24519Y72739D01*
X-24214Y72119D01*
X-23870Y71817D01*
X-24230Y70869D01*
X-24500Y70923D01*
X-25236Y70776D01*
X-25860Y70360D01*
X-26156Y69916D01*
X-26269Y69791D01*
X-26875Y69566D01*
X-26907Y69557D01*
X-27122Y69506D01*
X-27344Y69496D01*
X-27487Y69524D01*
X-27729Y69577D01*
X-32901Y69665D01*
X-33151Y70633D01*
X-29256Y72882D01*
X-31936Y77522D01*
X-31599Y78464D01*
X-27198Y80120D01*
X-21899Y81727D01*
X-21834Y81742D01*
X-20879Y81073D01*
D02*
G37*
G36*
X-14218Y82968D02*
X-13120Y82635D01*
X-12108Y82095D01*
X-11221Y81367D01*
X-10493Y80480D01*
X-9953Y79468D01*
X-9665Y78519D01*
X-9665Y78519D01*
X-9564Y78189D01*
X-9558Y78179D01*
X-9386Y77635D01*
X-9167Y76913D01*
X-8251Y75197D01*
X-7017Y73694D01*
X-5513Y72460D01*
X-3798Y71543D01*
X-1936Y70978D01*
X-1Y70788D01*
X229Y70810D01*
X635Y69845D01*
X-3838Y66092D01*
X-4744Y66515D01*
Y69931D01*
X-7030D01*
X-7136Y69992D01*
X-7773Y70931D01*
X-7758Y71008D01*
Y71992D01*
X-7874Y72574D01*
X-8204Y73068D01*
X-8697Y73398D01*
X-9279Y73514D01*
X-10358D01*
X-10941Y73398D01*
X-11434Y73068D01*
X-11764Y72574D01*
X-11880Y71992D01*
Y71008D01*
X-11864Y70931D01*
X-12256Y69931D01*
X-12256D01*
Y67931D01*
X-12312Y67920D01*
X-12742Y67633D01*
X-13174Y67200D01*
X-14175Y67614D01*
Y73834D01*
X-14275Y74341D01*
X-14390Y74512D01*
X-14300Y74775D01*
X-14346Y75465D01*
X-14881Y77461D01*
X-15186Y78082D01*
X-15558Y78408D01*
X-15641Y78584D01*
X-15718Y79030D01*
X-15730Y79602D01*
X-15515Y79847D01*
X-15286Y80520D01*
X-15333Y81230D01*
X-15554Y82057D01*
X-15525Y82211D01*
X-14786Y83024D01*
X-14218Y82968D01*
D02*
G37*
G36*
X-51255Y58828D02*
X-51182Y58481D01*
X-51312Y58217D01*
X-51367Y57371D01*
X-51095Y56567D01*
X-51061Y56510D01*
X-51865Y55902D01*
X-51929Y55918D01*
X-52488Y56556D01*
X-53249Y56931D01*
X-54096Y56987D01*
X-54899Y56714D01*
X-56862Y55581D01*
X-57499Y55022D01*
X-57875Y54261D01*
X-57930Y53414D01*
X-57657Y52610D01*
X-55934Y49625D01*
X-55375Y48987D01*
X-54614Y48612D01*
X-53767Y48557D01*
X-52964Y48829D01*
X-51359Y49755D01*
X-49740D01*
X-49680Y49716D01*
X-48900Y49561D01*
X-48120Y49716D01*
X-47458Y50158D01*
X-47016Y50820D01*
X-46861Y51600D01*
X-47016Y52380D01*
X-46180Y52913D01*
X-44438Y53919D01*
X-43801Y54478D01*
X-43425Y55239D01*
X-42660Y55550D01*
X-42390Y54648D01*
X-42481Y54462D01*
X-42526Y53772D01*
X-42304Y53118D01*
X-41271Y51328D01*
X-40815Y50808D01*
X-40195Y50502D01*
X-39505Y50457D01*
X-38850Y50679D01*
X-37571Y51417D01*
X-37051Y51873D01*
X-36236Y52324D01*
X-35729Y52223D01*
X-35220Y51291D01*
X-35435Y50595D01*
X-35702Y50417D01*
X-35702Y50417D01*
X-38391Y47727D01*
X-51900D01*
X-52446Y47619D01*
X-52909Y47309D01*
X-52909Y47309D01*
X-55730Y44489D01*
X-61399D01*
X-61945Y44381D01*
X-62408Y44071D01*
X-62408Y44071D01*
X-64713Y41766D01*
X-66533D01*
X-67212Y41631D01*
X-67409Y41500D01*
X-68486Y41660D01*
X-68649Y41757D01*
X-68833Y42120D01*
X-68715Y42311D01*
X-66963Y44063D01*
X-66675Y44493D01*
X-66575Y45000D01*
Y47651D01*
X-54731Y59495D01*
X-51749D01*
X-51255Y58828D01*
D02*
G37*
G36*
X-31592Y60800D02*
X-31560Y60752D01*
X-31165Y60488D01*
X-30699Y60395D01*
X-30233Y60488D01*
X-29912Y60703D01*
X-29590Y60488D01*
X-29124Y60395D01*
X-28659Y60488D01*
X-28337Y60703D01*
X-28015Y60488D01*
X-27550Y60395D01*
X-27084Y60488D01*
X-26762Y60703D01*
X-26441Y60488D01*
X-25975Y60395D01*
X-25509Y60488D01*
X-25187Y60703D01*
X-24866Y60488D01*
X-24400Y60395D01*
X-23934Y60488D01*
X-23613Y60703D01*
X-23291Y60488D01*
X-22825Y60395D01*
X-22359Y60488D01*
X-22038Y60703D01*
X-21716Y60488D01*
X-21250Y60395D01*
X-20785Y60488D01*
X-20463Y60703D01*
X-20141Y60488D01*
X-19706Y60401D01*
X-19619Y59966D01*
X-19355Y59571D01*
X-18960Y59307D01*
X-18495Y59214D01*
X-17707D01*
Y58499D01*
X-18495D01*
X-18960Y58406D01*
X-19355Y58143D01*
X-19619Y57748D01*
X-19712Y57282D01*
X-19619Y56816D01*
X-19404Y56494D01*
X-19619Y56173D01*
X-19712Y55707D01*
X-19619Y55241D01*
X-19404Y54920D01*
X-19619Y54598D01*
X-19712Y54132D01*
X-19619Y53667D01*
X-19355Y53272D01*
X-18960Y53008D01*
X-18495Y52915D01*
X-17739D01*
X-17707Y52909D01*
Y52206D01*
X-17739Y52200D01*
X-18495D01*
X-18960Y52107D01*
X-19355Y51843D01*
X-19619Y51448D01*
X-19712Y50983D01*
X-19619Y50517D01*
X-19404Y50195D01*
X-19619Y49874D01*
X-19706Y49438D01*
X-20141Y49351D01*
X-20463Y49136D01*
X-20785Y49351D01*
X-21250Y49444D01*
X-21716Y49351D01*
X-22038Y49136D01*
X-22359Y49351D01*
X-22825Y49444D01*
X-23291Y49351D01*
X-23686Y49087D01*
X-23950Y48693D01*
X-24042Y48227D01*
Y47439D01*
X-24751D01*
X-24758Y47472D01*
Y48227D01*
X-24850Y48693D01*
X-25114Y49087D01*
X-25509Y49351D01*
X-25975Y49444D01*
X-26441Y49351D01*
X-26762Y49136D01*
X-27084Y49351D01*
X-27550Y49444D01*
X-28015Y49351D01*
X-28337Y49136D01*
X-28659Y49351D01*
X-29124Y49444D01*
X-29590Y49351D01*
X-29912Y49136D01*
X-30233Y49351D01*
X-30669Y49438D01*
X-30756Y49874D01*
X-30971Y50195D01*
X-30756Y50517D01*
X-30663Y50983D01*
X-30756Y51448D01*
X-30971Y51770D01*
X-30756Y52092D01*
X-30663Y52557D01*
X-30756Y53023D01*
X-30971Y53345D01*
X-30756Y53667D01*
X-30663Y54132D01*
X-30756Y54598D01*
X-31020Y54993D01*
X-31415Y55257D01*
X-31880Y55349D01*
X-32635D01*
X-32668Y55356D01*
Y56058D01*
X-32636Y56065D01*
X-31880D01*
X-31415Y56157D01*
X-31020Y56421D01*
X-30756Y56816D01*
X-30663Y57282D01*
X-30756Y57748D01*
X-30971Y58069D01*
X-30756Y58391D01*
X-30663Y58857D01*
X-30756Y59323D01*
X-31020Y59717D01*
X-31414Y59981D01*
X-31880Y60074D01*
X-32250D01*
X-32439Y60526D01*
X-32155Y60856D01*
X-31592Y60800D01*
D02*
G37*
G36*
X-20649Y37075D02*
X-20016Y36337D01*
Y31809D01*
X-24100D01*
X-24228Y31835D01*
X-24460D01*
X-25675Y33049D01*
Y36151D01*
X-23312Y38514D01*
X-22188Y38613D01*
X-20649Y37075D01*
D02*
G37*
G36*
X-71825Y42807D02*
X-71925Y42300D01*
Y41482D01*
X-71960Y41460D01*
X-72376Y40836D01*
X-72523Y40100D01*
X-72376Y39364D01*
X-71960Y38740D01*
X-71336Y38324D01*
X-70600Y38177D01*
X-69864Y38324D01*
X-69306Y38697D01*
X-68715Y38591D01*
X-68278Y38380D01*
X-68171Y37839D01*
X-67787Y37265D01*
X-67474Y37056D01*
X-67421Y36866D01*
Y36134D01*
X-67474Y35944D01*
X-67787Y35735D01*
X-68171Y35160D01*
X-68306Y34482D01*
Y33006D01*
X-68171Y32328D01*
X-67787Y31753D01*
X-67212Y31369D01*
X-66927Y31312D01*
Y28494D01*
X-66947Y28491D01*
X-68296Y27933D01*
X-69454Y27044D01*
X-70342Y25886D01*
X-70500Y25505D01*
X-71200Y25421D01*
X-71598Y25468D01*
X-72260Y26331D01*
X-73209Y27059D01*
X-74314Y27517D01*
X-75000Y27607D01*
Y22500D01*
Y17393D01*
X-74314Y17483D01*
X-73209Y17941D01*
X-72260Y18669D01*
X-71598Y19532D01*
X-71200Y19579D01*
X-70500Y19495D01*
X-70342Y19114D01*
X-69454Y17956D01*
X-68296Y17067D01*
X-66947Y16509D01*
X-65500Y16318D01*
X-64053Y16509D01*
X-62872Y16998D01*
X-57437Y11563D01*
X-57007Y11275D01*
X-56500Y11174D01*
X-38238D01*
X-24180Y-2883D01*
X-24594Y-3883D01*
X-25494D01*
X-26172Y-4018D01*
X-26747Y-4402D01*
X-27131Y-4977D01*
X-27248Y-5564D01*
X-28667D01*
X-28685Y-5473D01*
X-29069Y-4898D01*
X-29644Y-4513D01*
X-30322Y-4378D01*
X-32389D01*
X-33068Y-4513D01*
X-33643Y-4898D01*
X-34319D01*
X-34894Y-4513D01*
X-35572Y-4378D01*
X-37639D01*
X-38318Y-4513D01*
X-38892Y-4898D01*
X-39569D01*
X-40144Y-4513D01*
X-40822Y-4378D01*
X-42889D01*
X-43568Y-4513D01*
X-44142Y-4898D01*
X-44350D01*
X-44790Y-4451D01*
X-44819Y-3368D01*
X-44435Y-2794D01*
X-44300Y-2115D01*
Y-639D01*
X-44435Y39D01*
X-44819Y614D01*
X-45394Y998D01*
X-46072Y1133D01*
X-47021D01*
X-47577Y1811D01*
X-47724Y2547D01*
X-48140Y3171D01*
X-48764Y3587D01*
X-49500Y3734D01*
X-50236Y3587D01*
X-50860Y3171D01*
X-51276Y2547D01*
X-51423Y1811D01*
X-52308Y1133D01*
X-53389D01*
X-54068Y998D01*
X-54642Y614D01*
X-55027Y39D01*
X-55162Y-639D01*
Y-2115D01*
X-55027Y-2794D01*
X-54642Y-3368D01*
X-54330Y-3577D01*
X-54277Y-3767D01*
Y-4499D01*
X-54330Y-4689D01*
X-54642Y-4898D01*
X-55027Y-5473D01*
X-55045Y-5564D01*
X-55210D01*
X-55717Y-5664D01*
X-55957Y-5825D01*
X-56122Y-5792D01*
X-58189D01*
X-58868Y-5927D01*
X-59443Y-6311D01*
X-59827Y-6886D01*
X-59962Y-7564D01*
Y-9041D01*
X-59827Y-9719D01*
X-59443Y-10294D01*
X-59130Y-10503D01*
X-59077Y-10693D01*
Y-11424D01*
X-59130Y-11614D01*
X-59443Y-11823D01*
X-59827Y-12398D01*
X-59962Y-13076D01*
Y-14552D01*
X-59827Y-15231D01*
X-59443Y-15806D01*
X-59035Y-16078D01*
X-58945Y-16605D01*
Y-16648D01*
X-59035Y-17176D01*
X-59443Y-17448D01*
X-59827Y-18023D01*
X-59962Y-18702D01*
Y-20178D01*
X-59827Y-20856D01*
X-59443Y-21431D01*
X-59130Y-21640D01*
X-59077Y-21830D01*
Y-22561D01*
X-59130Y-22751D01*
X-59443Y-22960D01*
X-59827Y-23535D01*
X-59962Y-24213D01*
Y-25690D01*
X-59827Y-26368D01*
X-59443Y-26943D01*
X-59035Y-27215D01*
X-58945Y-27743D01*
Y-27786D01*
X-59035Y-28313D01*
X-59443Y-28586D01*
X-59827Y-29161D01*
X-59962Y-29839D01*
Y-31315D01*
X-59930Y-31476D01*
X-60765Y-32312D01*
X-61052Y-32742D01*
X-61153Y-33249D01*
Y-33867D01*
X-62153Y-34225D01*
X-62881Y-33338D01*
X-64384Y-32104D01*
X-66100Y-31187D01*
X-67961Y-30622D01*
X-69897Y-30432D01*
X-70203Y-30462D01*
X-70771Y-29513D01*
X-70616Y-29280D01*
X-70461Y-28500D01*
Y-27268D01*
X-69831Y-26500D01*
X-68500D01*
Y-15500D01*
X-72500D01*
X-72650Y-14882D01*
X-78980D01*
Y-27118D01*
X-75533D01*
X-74539Y-28112D01*
Y-28500D01*
X-74384Y-29280D01*
X-73942Y-29942D01*
X-73738Y-30078D01*
X-73996Y-31109D01*
X-74561Y-31164D01*
X-75703Y-31052D01*
X-76801Y-30719D01*
X-77813Y-30178D01*
X-78699Y-29450D01*
X-79427Y-28563D01*
X-79968Y-27552D01*
X-80079Y-27185D01*
X-80410Y-26242D01*
X-81727Y-21898D01*
X-82985Y-16506D01*
X-83316Y-14496D01*
X-82431Y-13718D01*
X-80709Y-13854D01*
X-78541Y-13683D01*
X-76428Y-13176D01*
X-74419Y-12344D01*
X-72566Y-11208D01*
X-70913Y-9796D01*
X-69501Y-8143D01*
X-68365Y-6289D01*
X-67533Y-4281D01*
X-67026Y-2167D01*
X-66855Y0D01*
X-66915Y766D01*
X-66236Y1500D01*
X-60500Y1500D01*
X-60500Y10000D01*
X-71000Y10000D01*
X-71000Y10000D01*
Y10000D01*
X-71763Y10523D01*
X-72566Y11208D01*
X-74419Y12344D01*
X-76428Y13176D01*
X-78541Y13683D01*
X-80709Y13854D01*
X-82432Y13718D01*
X-83317Y14495D01*
X-82985Y16507D01*
X-81727Y21899D01*
X-80120Y27198D01*
X-78170Y32379D01*
X-75885Y37423D01*
X-73275Y42305D01*
X-72674Y43271D01*
X-71825Y42807D01*
D02*
G37*
G36*
X19655Y26899D02*
X20039Y26324D01*
X20614Y25939D01*
X21292Y25804D01*
X22769D01*
X23447Y25939D01*
X24022Y26324D01*
X24231Y26636D01*
X24421Y26690D01*
X25152D01*
X25342Y26636D01*
X25551Y26324D01*
X26126Y25939D01*
X26217Y25921D01*
Y24110D01*
X24433D01*
Y23803D01*
X23598Y23508D01*
X23433Y23477D01*
X22836Y23876D01*
X22100Y24023D01*
X21364Y23876D01*
X20740Y23460D01*
X20324Y22836D01*
X20177Y22100D01*
X20324Y21364D01*
X20740Y20740D01*
X21364Y20324D01*
X22100Y20177D01*
X22836Y20324D01*
X23433Y20723D01*
X23598Y20692D01*
X23764Y20633D01*
X24433Y19910D01*
Y19110D01*
X24433D01*
Y14910D01*
X24433Y14910D01*
Y14110D01*
X24433D01*
X24433Y13910D01*
Y10513D01*
X24227Y10296D01*
X23466Y9830D01*
X23000Y9923D01*
X22304Y9784D01*
X21500D01*
X20817Y9648D01*
X20238Y9262D01*
X19771Y8794D01*
X15702D01*
X15092Y9016D01*
X14960Y10041D01*
X15032Y10114D01*
X15986Y10486D01*
X16610Y10069D01*
X17346Y9923D01*
X18082Y10069D01*
X18706Y10486D01*
X19122Y11110D01*
X19269Y11846D01*
X19122Y12582D01*
X18706Y13205D01*
X18082Y13622D01*
X17346Y13769D01*
X16610Y13622D01*
X16003Y13217D01*
X15827Y13252D01*
X14994Y13494D01*
X14833Y14110D01*
Y14910D01*
X14833D01*
Y19110D01*
X14833D01*
Y19910D01*
X14833D01*
Y24110D01*
X10984D01*
Y25294D01*
X11161Y25329D01*
X11735Y25713D01*
X11944Y26026D01*
X12134Y26079D01*
X12866D01*
X13056Y26026D01*
X13265Y25713D01*
X13839Y25329D01*
X14518Y25194D01*
X15994D01*
X16672Y25329D01*
X17247Y25713D01*
X17631Y26288D01*
X17766Y26967D01*
Y27285D01*
X19578D01*
X19655Y26899D01*
D02*
G37*
G36*
X40030Y14967D02*
X40146Y13902D01*
X39762Y13327D01*
X39627Y12648D01*
Y11172D01*
X39762Y10494D01*
X40146Y9919D01*
X40721Y9535D01*
X41108Y9458D01*
Y2504D01*
X40108Y2405D01*
X40004Y2927D01*
X39620Y3502D01*
X39045Y3886D01*
X38366Y4021D01*
X36300D01*
X35621Y3886D01*
X35233Y3626D01*
X34557Y3843D01*
X34233Y4069D01*
Y4110D01*
X24433D01*
Y-90D01*
X24433D01*
Y-890D01*
X24433D01*
Y-5090D01*
X24433D01*
Y-5890D01*
X24433D01*
Y-10090D01*
X24433Y-10090D01*
X24230Y-11006D01*
X23661Y-11119D01*
X23086Y-11503D01*
X22813Y-11911D01*
X22286Y-12000D01*
X22243D01*
X21715Y-11911D01*
X21443Y-11503D01*
X20868Y-11119D01*
X20190Y-10984D01*
X18713D01*
X18035Y-11119D01*
X17460Y-11503D01*
X17251Y-11816D01*
X17061Y-11869D01*
X16330D01*
X16140Y-11816D01*
X15931Y-11503D01*
X15356Y-11119D01*
X14955Y-11039D01*
X14833Y-10090D01*
X14833D01*
Y-5890D01*
X14833D01*
Y-5090D01*
X14833D01*
Y-1090D01*
X14833Y-890D01*
Y-90D01*
X14833Y110D01*
Y4110D01*
X14833D01*
Y4226D01*
X15702Y5226D01*
X20510D01*
X21193Y5362D01*
X21772Y5749D01*
X22239Y6216D01*
X22304D01*
X23000Y6077D01*
X23736Y6224D01*
X24360Y6640D01*
X24776Y7264D01*
X24923Y8000D01*
X24776Y8736D01*
X24660Y8910D01*
X25194Y9910D01*
X34233D01*
Y12236D01*
X37009Y15012D01*
X38366D01*
X39045Y15146D01*
X39106Y15188D01*
X39627Y15309D01*
X40030Y14967D01*
D02*
G37*
G36*
X-1617Y19348D02*
Y17872D01*
X-1482Y17194D01*
X-1098Y16619D01*
X-523Y16235D01*
X64Y16118D01*
Y14699D01*
X-27Y14681D01*
X-602Y14297D01*
X-986Y13722D01*
X-1121Y13044D01*
Y10977D01*
X-986Y10299D01*
X-602Y9724D01*
Y9047D01*
X-986Y8472D01*
X-1121Y7794D01*
Y5727D01*
X-986Y5049D01*
X-602Y4474D01*
Y3797D01*
X-986Y3222D01*
X-1121Y2544D01*
Y477D01*
X-986Y-201D01*
X-602Y-776D01*
Y-984D01*
X-1049Y-1423D01*
X-2131Y-1453D01*
X-2706Y-1069D01*
X-3385Y-934D01*
X-4861D01*
X-5539Y-1069D01*
X-6114Y-1453D01*
X-6498Y-2028D01*
X-6633Y-2706D01*
Y-3655D01*
X-7311Y-4211D01*
X-8047Y-4358D01*
X-8671Y-4774D01*
X-9087Y-5398D01*
X-9234Y-6134D01*
X-9173Y-6438D01*
X-10095Y-6931D01*
X-32463Y15437D01*
X-32893Y15725D01*
X-33400Y15825D01*
X-39181D01*
X-39957Y16366D01*
Y20041D01*
X-2499D01*
X-1617Y19348D01*
D02*
G37*
G36*
X-78795Y9620D02*
X-76955Y9062D01*
X-75260Y8155D01*
X-73773Y6936D01*
X-72932Y5911D01*
X-72932Y5911D01*
X-72748Y5706D01*
X-72582Y5595D01*
X-72086Y5264D01*
X-71306Y5108D01*
X-70525Y5264D01*
X-70058Y5151D01*
X-69902Y4869D01*
X-69636Y4115D01*
X-69830Y3773D01*
X-70492Y3331D01*
X-70934Y2670D01*
X-71059Y2040D01*
X-71089Y1889D01*
X-71055Y1564D01*
X-71055Y1564D01*
X-70900Y0D01*
X-71089Y-1914D01*
X-71647Y-3754D01*
X-72553Y-5449D01*
X-73773Y-6936D01*
X-75260Y-8155D01*
X-76955Y-9062D01*
X-78795Y-9620D01*
X-80709Y-9808D01*
X-82622Y-9620D01*
X-84462Y-9062D01*
X-85056Y-8744D01*
Y-8744D01*
X-85186Y-8692D01*
X-85511Y-8627D01*
X-85511Y-8627D01*
X-85524Y-8625D01*
X-85967Y-8537D01*
X-86241Y-8338D01*
X-86290Y-7944D01*
X-86614Y-2651D01*
X-86614Y2651D01*
X-86290Y7944D01*
X-86241Y8338D01*
X-85967Y8537D01*
X-85524Y8625D01*
X-85511Y8627D01*
X-85511Y8627D01*
X-85187Y8692D01*
X-85056Y8744D01*
Y8744D01*
X-84462Y9062D01*
X-82622Y9620D01*
X-80709Y9808D01*
X-78795Y9620D01*
D02*
G37*
G36*
X-39256Y-20333D02*
X-39140D01*
X-38140Y-21202D01*
Y-26198D01*
X-38004Y-26881D01*
X-37618Y-27460D01*
X-36619Y-28458D01*
X-36604Y-28536D01*
X-36187Y-29160D01*
X-35563Y-29576D01*
X-34827Y-29723D01*
X-34328Y-29623D01*
X-33643Y-30126D01*
X-33456Y-30354D01*
Y-39733D01*
X-31130D01*
X-28354Y-42509D01*
Y-43867D01*
X-28220Y-44545D01*
X-28179Y-44606D01*
X-28057Y-45127D01*
X-28399Y-45530D01*
X-29465Y-45646D01*
X-30040Y-45262D01*
X-30718Y-45127D01*
X-32194D01*
X-32872Y-45262D01*
X-33447Y-45646D01*
X-33831Y-46221D01*
X-33908Y-46608D01*
X-40863D01*
X-40961Y-45608D01*
X-40440Y-45504D01*
X-39865Y-45120D01*
X-39480Y-44545D01*
X-39345Y-43867D01*
Y-41800D01*
X-39480Y-41121D01*
X-39740Y-40733D01*
X-39523Y-40057D01*
X-39297Y-39733D01*
X-39256D01*
Y-29933D01*
X-43456D01*
Y-29933D01*
X-44256D01*
Y-29933D01*
X-48456D01*
Y-29933D01*
X-49256D01*
Y-29933D01*
X-53456D01*
X-53456Y-29933D01*
X-54372Y-29730D01*
X-54485Y-29161D01*
X-54869Y-28586D01*
X-55277Y-28313D01*
X-55366Y-27786D01*
Y-27743D01*
X-55277Y-27215D01*
X-54869Y-26943D01*
X-54485Y-26368D01*
X-54350Y-25690D01*
Y-24213D01*
X-54485Y-23535D01*
X-54869Y-22960D01*
X-55182Y-22751D01*
X-55235Y-22561D01*
Y-21830D01*
X-55182Y-21640D01*
X-54869Y-21431D01*
X-54485Y-20856D01*
X-54405Y-20455D01*
X-53456Y-20333D01*
Y-20333D01*
X-49256D01*
Y-20333D01*
X-48456D01*
Y-20333D01*
X-44456D01*
X-44256Y-20333D01*
X-43456D01*
X-43256Y-20333D01*
X-39256D01*
Y-20333D01*
D02*
G37*
G36*
X-17671Y-16660D02*
X-17287Y-17235D01*
X-16974Y-17444D01*
X-16921Y-17634D01*
Y-18366D01*
X-16974Y-18556D01*
X-17287Y-18765D01*
X-17671Y-19340D01*
X-17806Y-20018D01*
Y-21494D01*
X-17671Y-22172D01*
X-17287Y-22747D01*
X-16712Y-23131D01*
X-16081Y-23257D01*
Y-25078D01*
X-16468Y-25155D01*
X-17042Y-25539D01*
X-17427Y-26114D01*
X-17562Y-26792D01*
Y-28269D01*
X-17427Y-28947D01*
X-17042Y-29522D01*
X-16730Y-29731D01*
X-16677Y-29921D01*
Y-30652D01*
X-16730Y-30842D01*
X-17042Y-31051D01*
X-17427Y-31626D01*
X-17445Y-31717D01*
X-19256D01*
Y-29933D01*
X-23456D01*
Y-29933D01*
X-24256D01*
Y-29933D01*
X-28456D01*
X-28456Y-29933D01*
X-29256D01*
Y-29933D01*
X-29456Y-29933D01*
X-32873D01*
X-33038Y-29718D01*
X-33316Y-28933D01*
X-33051Y-28536D01*
X-32905Y-27800D01*
X-33051Y-27064D01*
X-33468Y-26440D01*
X-33836Y-26194D01*
X-34572Y-25459D01*
Y-21202D01*
X-34256Y-20333D01*
X-33456D01*
Y-20333D01*
X-29256D01*
Y-20333D01*
X-28456D01*
Y-20333D01*
X-24256D01*
Y-20333D01*
X-23456D01*
Y-20333D01*
X-19256D01*
Y-16484D01*
X-17706D01*
X-17671Y-16660D01*
D02*
G37*
G36*
X19675Y-23064D02*
X19640Y-23640D01*
X19224Y-24264D01*
X19077Y-25000D01*
X19224Y-25736D01*
X19640Y-26360D01*
X20264Y-26776D01*
X21000Y-26923D01*
X21736Y-26776D01*
X22360Y-26360D01*
X22776Y-25736D01*
X22923Y-25000D01*
X22835Y-24557D01*
X22834Y-24484D01*
X23232Y-23690D01*
X23429Y-23441D01*
X23502Y-23427D01*
X24077Y-23043D01*
X24286Y-22730D01*
X24476Y-22677D01*
X25207D01*
X25397Y-22730D01*
X25606Y-23043D01*
X26181Y-23427D01*
X26272Y-23445D01*
Y-25256D01*
X24488D01*
Y-29456D01*
X24488D01*
Y-30256D01*
X24488D01*
Y-34456D01*
X24488Y-34456D01*
Y-35256D01*
X24488D01*
X24488Y-35456D01*
Y-39456D01*
X34288D01*
Y-37130D01*
X37064Y-34354D01*
X38422D01*
X39100Y-34220D01*
X39161Y-34179D01*
X39682Y-34057D01*
X40085Y-34399D01*
X40202Y-35465D01*
X39817Y-36040D01*
X39682Y-36718D01*
Y-38194D01*
X39817Y-38872D01*
X40202Y-39447D01*
X40777Y-39831D01*
X41163Y-39908D01*
Y-46863D01*
X40163Y-46961D01*
X40059Y-46439D01*
X39675Y-45865D01*
X39100Y-45480D01*
X38422Y-45346D01*
X36355D01*
X35677Y-45480D01*
X35288Y-45740D01*
X34612Y-45523D01*
X34288Y-45297D01*
Y-45256D01*
X24488D01*
Y-49456D01*
X24488D01*
Y-50256D01*
X24488D01*
Y-54456D01*
X24488D01*
Y-55256D01*
X24488D01*
Y-59456D01*
X24488Y-59456D01*
X24285Y-60372D01*
X23716Y-60485D01*
X23141Y-60869D01*
X22869Y-61277D01*
X22341Y-61366D01*
X22298D01*
X21770Y-61277D01*
X21498Y-60869D01*
X20923Y-60485D01*
X20245Y-60350D01*
X18768D01*
X18090Y-60485D01*
X17515Y-60869D01*
X17306Y-61182D01*
X17117Y-61235D01*
X16385D01*
X16195Y-61182D01*
X15986Y-60869D01*
X15411Y-60485D01*
X15010Y-60405D01*
X14888Y-59456D01*
X14888D01*
Y-55256D01*
X14888D01*
Y-54456D01*
X14888D01*
Y-50456D01*
X14888Y-50256D01*
Y-49456D01*
X14888Y-49256D01*
Y-45256D01*
X14888D01*
Y-45140D01*
X15757Y-44140D01*
X21633D01*
X22316Y-44004D01*
X22895Y-43618D01*
X23158Y-43354D01*
X23236Y-43339D01*
X23860Y-42922D01*
X24276Y-42298D01*
X24423Y-41563D01*
X24276Y-40827D01*
X23860Y-40203D01*
X23236Y-39786D01*
X22500Y-39640D01*
X21764Y-39786D01*
X21140Y-40203D01*
X20894Y-40572D01*
X15757D01*
X14888Y-40256D01*
Y-39456D01*
X15025Y-38679D01*
X15974Y-38410D01*
X16140Y-38660D01*
X16764Y-39076D01*
X17500Y-39223D01*
X18236Y-39076D01*
X18860Y-38660D01*
X19276Y-38036D01*
X19423Y-37300D01*
X19276Y-36564D01*
X18860Y-35940D01*
X18236Y-35524D01*
X17500Y-35377D01*
X16764Y-35524D01*
X16140Y-35940D01*
X15070Y-35743D01*
X14888Y-35256D01*
Y-34456D01*
X14888D01*
Y-30735D01*
X15618Y-30447D01*
X15888Y-30391D01*
X16464Y-30776D01*
X17200Y-30923D01*
X17936Y-30776D01*
X18560Y-30360D01*
X18976Y-29736D01*
X19123Y-29000D01*
X18976Y-28264D01*
X18560Y-27640D01*
X17936Y-27224D01*
X17200Y-27077D01*
X16464Y-27224D01*
X15888Y-27608D01*
X15618Y-27553D01*
X14888Y-27266D01*
Y-25256D01*
X11039D01*
Y-23695D01*
X11161Y-23671D01*
X11735Y-23287D01*
X11944Y-22974D01*
X12134Y-22921D01*
X12866D01*
X13056Y-22974D01*
X13265Y-23287D01*
X13839Y-23671D01*
X14518Y-23806D01*
X15994D01*
X16672Y-23671D01*
X17247Y-23287D01*
X17631Y-22712D01*
X17757Y-22081D01*
X18870D01*
X19675Y-23064D01*
D02*
G37*
%LPC*%
G36*
X22092Y79190D02*
X18965Y76566D01*
X21926Y73037D01*
X22394Y73547D01*
X22946Y74608D01*
X23205Y75776D01*
X23153Y76971D01*
X22793Y78112D01*
X22151Y79121D01*
X22092Y79190D01*
D02*
G37*
G36*
X52949Y58906D02*
X48512D01*
Y52500D01*
X52949D01*
Y58906D01*
D02*
G37*
G36*
X47512D02*
X43075D01*
Y52500D01*
X47512D01*
Y58906D01*
D02*
G37*
G36*
X52949Y51500D02*
X48512D01*
Y45094D01*
X52949D01*
Y51500D01*
D02*
G37*
G36*
X47512D02*
X43075D01*
Y45094D01*
X47512D01*
Y51500D01*
D02*
G37*
G36*
X67091Y43082D02*
X67000D01*
Y39000D01*
X71607D01*
X71517Y39686D01*
X71059Y40791D01*
X70331Y41740D01*
X69382Y42469D01*
X68277Y42926D01*
X67091Y43082D01*
D02*
G37*
G36*
X66000D02*
X65909D01*
X64723Y42926D01*
X63618Y42469D01*
X62669Y41740D01*
X61941Y40791D01*
X61483Y39686D01*
X61393Y39000D01*
X66000D01*
Y43082D01*
D02*
G37*
G36*
X71607Y38000D02*
X66500D01*
X61393D01*
X61483Y37314D01*
X61941Y36209D01*
X62669Y35260D01*
X62951Y35043D01*
X62612Y34043D01*
X60366D01*
Y30224D01*
X58825D01*
X58118Y30931D01*
Y31350D01*
X57500Y32094D01*
Y35500D01*
X46500D01*
Y32094D01*
X45882Y31350D01*
X45882Y30756D01*
Y25020D01*
X58118D01*
Y26146D01*
X60366D01*
Y22957D01*
X72634D01*
Y34043D01*
X70388D01*
X70049Y35043D01*
X70331Y35260D01*
X71059Y36209D01*
X71517Y37314D01*
X71607Y38000D01*
D02*
G37*
G36*
X52591Y14091D02*
X51409D01*
X49962Y13901D01*
X48614Y13342D01*
X47456Y12454D01*
X46567Y11296D01*
X46009Y9947D01*
X45818Y8500D01*
X46009Y7053D01*
X46567Y5704D01*
X47075Y5043D01*
X46582Y4043D01*
X45866D01*
Y-7043D01*
X58134D01*
Y4043D01*
X57419D01*
X56925Y5043D01*
X57433Y5704D01*
X57991Y7053D01*
X58182Y8500D01*
X57991Y9947D01*
X57433Y11296D01*
X56544Y12454D01*
X55386Y13342D01*
X54038Y13901D01*
X52591Y14091D01*
D02*
G37*
G36*
X-76000Y27607D02*
X-76686Y27517D01*
X-77791Y27059D01*
X-78740Y26331D01*
X-79469Y25382D01*
X-79926Y24277D01*
X-80082Y23091D01*
Y23000D01*
X-76000D01*
Y27607D01*
D02*
G37*
G36*
Y22000D02*
X-80082D01*
Y21909D01*
X-79926Y20723D01*
X-79469Y19618D01*
X-78740Y18669D01*
X-77791Y17941D01*
X-76686Y17483D01*
X-76000Y17393D01*
Y22000D01*
D02*
G37*
G36*
X-41800Y5623D02*
X-42536Y5476D01*
X-43160Y5060D01*
X-43576Y4436D01*
X-43723Y3700D01*
X-43576Y2964D01*
X-43160Y2340D01*
X-42536Y1924D01*
X-41800Y1777D01*
X-41064Y1924D01*
X-40440Y2340D01*
X-40024Y2964D01*
X-39877Y3700D01*
X-40024Y4436D01*
X-40440Y5060D01*
X-41064Y5476D01*
X-41800Y5623D01*
D02*
G37*
G36*
X-10535Y8521D02*
X-11271Y8375D01*
X-11895Y7958D01*
X-12312Y7334D01*
X-12458Y6598D01*
X-12312Y5863D01*
X-11895Y5239D01*
X-11271Y4822D01*
X-10535Y4676D01*
X-9800Y4822D01*
X-9176Y5239D01*
X-8759Y5863D01*
X-8613Y6598D01*
X-8759Y7334D01*
X-9176Y7958D01*
X-9800Y8375D01*
X-10535Y8521D01*
D02*
G37*
G36*
X-15000Y4923D02*
X-15736Y4776D01*
X-16360Y4360D01*
X-16776Y3736D01*
X-16923Y3000D01*
X-16776Y2264D01*
X-16360Y1640D01*
X-15736Y1224D01*
X-15000Y1077D01*
X-14264Y1224D01*
X-13640Y1640D01*
X-13224Y2264D01*
X-13077Y3000D01*
X-13224Y3736D01*
X-13640Y4360D01*
X-14264Y4776D01*
X-15000Y4923D01*
D02*
G37*
%LPD*%
D10*
X-50555Y60845D02*
G03*
X-48360Y62192I-534J3332D01*
G01*
Y62192D02*
G03*
X-48136Y62226I-890J6472D01*
G01*
D02*
G03*
X-44238Y64473I-1114J6438D01*
G01*
X-51436Y60820D02*
G03*
X-50742Y60820I347J3357D01*
G01*
X-43398Y64600D02*
G03*
X-41733Y64600I833J4498D01*
G01*
X-44758Y66533D02*
G03*
X-41073Y66072I2193J2565D01*
G01*
X-40911Y66151D02*
G03*
X-39535Y66984I-1849J4606D01*
G01*
X-39624Y68454D02*
G03*
X-37093Y68409I1321J3106D01*
G01*
X-36975Y68408D02*
G03*
X-36990Y68409I-12J-600D01*
G01*
X-20600Y65400D02*
G03*
X-21250Y63830I1570J-1570D01*
G01*
X-19434Y62500D02*
G03*
X-19676Y62400I0J-341D01*
G01*
X-37689Y12500D02*
X-22000Y-3189D01*
X-65500Y21500D02*
X-56500Y12500D01*
X-37689D01*
X-49000Y14500D02*
X-33400D01*
X-55500Y21000D02*
Y22500D01*
Y21000D02*
X-49000Y14500D01*
X-65500Y21500D02*
Y22500D01*
X-33400Y14500D02*
X-7500Y-11400D01*
X42156Y-31612D02*
X42488Y-31944D01*
X42156Y-31612D02*
Y-26800D01*
X42622Y-26500D02*
X42744D01*
X41484Y-25362D02*
X42622Y-26500D01*
X41484Y-25362D02*
Y-24584D01*
X39976Y-23076D02*
X41484Y-24584D01*
X39976Y-23076D02*
Y-20763D01*
X39969Y-20756D02*
X39976Y-20763D01*
X37100Y-31556D02*
X37388Y-31844D01*
X36644Y-26800D02*
X37100Y-27256D01*
Y-31556D02*
Y-27256D01*
X28342Y17010D02*
X29333D01*
X27542Y17810D02*
X28342Y17010D01*
X27542Y17810D02*
Y28610D01*
X-7500Y-22756D02*
Y-11400D01*
Y-22756D02*
X-2256Y-28000D01*
X9713Y-27356D02*
Y-20756D01*
X-57156Y-13814D02*
X-47156D01*
X-26356Y-15433D02*
X-26081Y-15158D01*
X-51356Y-36089D02*
X-49000D01*
X-47156D02*
X-46356Y-35289D01*
X-26356Y-34833D02*
Y-33842D01*
X-25556Y-33042D02*
X-14756D01*
X-47156Y-13814D02*
X-46356Y-14614D01*
Y-15433D02*
Y-14614D01*
X-49000Y-36089D02*
X-47156D01*
X-21631Y-15158D02*
X-21356Y-15433D01*
X-26081Y-15158D02*
X-21631D01*
X-46356Y-35289D02*
Y-34833D01*
X-26356Y-33842D02*
X-25556Y-33042D01*
X-45500Y22500D02*
X-44366Y21366D01*
X-21356Y-15158D02*
X-14756D01*
X2389Y-22611D02*
X7000Y-18000D01*
X2389Y-24457D02*
Y-22611D01*
X7000Y-18000D02*
X12469D01*
X2334Y26834D02*
X6866Y31366D01*
X12414D01*
X2334Y24909D02*
Y26834D01*
X1191Y23766D02*
X2334Y24909D01*
X15170Y28610D02*
X22030D01*
X-17166Y-7834D02*
X-12000Y-13000D01*
X-18457Y-7834D02*
X-17166D01*
X-12000Y-17914D02*
Y-13000D01*
X-19600Y-6691D02*
X-18457Y-7834D01*
X-4123Y-8990D02*
Y-8694D01*
X-7087Y-6358D02*
X-6459D01*
X-4123Y-8694D01*
Y-3798D02*
Y-3740D01*
Y-3798D02*
X-2980Y-4941D01*
X1389Y-11844D02*
Y-8932D01*
X-55Y-7546D02*
X3D01*
X1389Y-8932D01*
Y-11844D02*
X2802Y-13257D01*
X1389Y-3740D02*
Y1510D01*
X8314Y-3790D02*
X9114Y-2990D01*
X9933D01*
X9658Y17285D02*
X9933Y17010D01*
X9289Y21366D02*
X9658Y21735D01*
X9933Y22010D01*
X13969Y29811D02*
X14027D01*
X15170Y28668D01*
Y28610D02*
Y28668D01*
X26463Y-15234D02*
X26521D01*
X27749Y-16461D01*
X29789Y-2990D02*
X30589Y-3790D01*
Y-5634D02*
Y-3790D01*
X36132Y16009D02*
Y16379D01*
X32133Y12010D02*
X36132Y16009D01*
X42433Y17422D02*
X42689Y17678D01*
Y22866D02*
Y25540D01*
X39914Y28315D02*
Y28610D01*
X-7311Y-6134D02*
X-7087Y-6358D01*
X2802Y-13790D02*
Y-13257D01*
X1389Y12010D02*
Y17998D01*
X1133Y18254D02*
X1389Y17998D01*
X9433Y1510D02*
X9933Y2010D01*
X9658Y17285D02*
Y21735D01*
X25077Y-13848D02*
Y-13790D01*
Y-13848D02*
X26463Y-15234D01*
X30589Y-5634D02*
X30789Y-5834D01*
X30589Y-7990D02*
Y-5634D01*
X42433Y-3390D02*
Y11910D01*
X39989Y-5834D02*
X42433Y-3390D01*
X39914Y28315D02*
X42689Y25540D01*
X8314Y-13790D02*
Y-3790D01*
X9658Y21735D02*
Y28610D01*
X30589Y-13790D02*
Y-7990D01*
X42689Y17678D02*
Y22866D01*
X-2980Y-4941D02*
X-2660D01*
X29333Y-2990D02*
X29789D01*
X29333Y12010D02*
X32133D01*
X37233Y-12590D02*
Y-8590D01*
X37283Y1460D02*
X37333Y1510D01*
X37283Y-3028D02*
Y1460D01*
X37233Y-3078D02*
X37283Y-3028D01*
X37177Y17678D02*
X37333Y17522D01*
X37275D02*
X37333D01*
X36132Y16379D02*
X37275Y17522D01*
X-2660Y-4941D02*
X-55Y-7546D01*
X19452Y-13790D02*
X25077D01*
X8314D02*
X13940D01*
X29333Y2010D02*
X29833Y1510D01*
X37177Y17678D02*
Y22866D01*
X1389Y1510D02*
X9433D01*
X1389Y12010D02*
X9933D01*
X-44366Y21366D02*
X9289D01*
X27749Y-16461D02*
X33361D01*
X29833Y1510D02*
X37333D01*
X27542Y28610D02*
X34402D01*
X33361Y-16461D02*
X37233Y-12590D01*
X30789Y-5834D02*
X39989D01*
X12469Y-18000D02*
X14024Y-19555D01*
X1444Y-61210D02*
X2857Y-62624D01*
X40044Y-55200D02*
X42488Y-52756D01*
X33417Y-65828D02*
X37288Y-61956D01*
X9713Y-32081D02*
Y-27631D01*
X27597Y-31556D02*
Y-20756D01*
X-2925Y-54307D02*
X-2605D01*
X-0Y-56912D01*
X-4068Y-53164D02*
X-2925Y-54307D01*
X8369Y-63156D02*
Y-53156D01*
X2857Y-63156D02*
Y-62624D01*
X30644Y-63156D02*
Y-57356D01*
Y-55000D02*
Y-53156D01*
X42488Y-52756D02*
Y-37456D01*
X8369Y-63156D02*
X13995D01*
X15225Y-20756D02*
X22085D01*
X27597D02*
X34457D01*
X-2256Y-28000D02*
X9344D01*
X1246Y-25600D02*
X2389Y-24457D01*
X9713Y-32081D02*
X9988Y-32356D01*
X1444Y-37356D02*
X9988D01*
X32188D02*
X36187Y-33357D01*
X9169Y-52356D02*
X9988D01*
X9488Y-47856D02*
X9988Y-47356D01*
X1444Y-47856D02*
X9488D01*
X29888D02*
X37388D01*
X-6404Y-55724D02*
X-4068Y-58061D01*
X30844Y-55200D02*
X40044D01*
X25132Y-63214D02*
X26518Y-64600D01*
X15225Y-20756D02*
Y-20698D01*
X14082Y-19555D02*
X15225Y-20698D01*
X14024Y-19555D02*
X14082D01*
X9344Y-28000D02*
X9713Y-27631D01*
X1188Y-31112D02*
X1444Y-31368D01*
Y-37356D02*
Y-31368D01*
X27597Y-31556D02*
X28397Y-32356D01*
X29388D01*
Y-37356D02*
X32188D01*
X36187Y-33357D02*
Y-32987D01*
X37330Y-31844D01*
X37388D01*
X1444Y-53106D02*
Y-47856D01*
X-4068Y-53164D02*
Y-53106D01*
X8369Y-53156D02*
X9169Y-52356D01*
X29388Y-47356D02*
X29888Y-47856D01*
X29844Y-52356D02*
X30644Y-53156D01*
X29388Y-52356D02*
X29844D01*
X37288Y-52444D02*
X37338Y-52394D01*
Y-47906D01*
X37388Y-47856D01*
X-7032Y-55724D02*
X-6404D01*
X-7256Y-55500D02*
X-7032Y-55724D01*
X58Y-56912D02*
X1444Y-58298D01*
X-0Y-56912D02*
X58D01*
X1444Y-61210D02*
Y-58298D01*
X-4068Y-58356D02*
Y-58061D01*
X30644Y-57356D02*
Y-55000D01*
X30844Y-55200D01*
X37288Y-61956D02*
Y-57956D01*
X25132Y-63214D02*
Y-63156D01*
X19507D02*
X25132D01*
X27804Y-65828D02*
X33417D01*
X26577Y-64600D02*
X27804Y-65828D01*
X26518Y-64600D02*
X26577D01*
X12414Y31366D02*
X13969Y29811D01*
X-58600Y-32021D02*
Y-31963D01*
X-59828Y-33249D02*
X-58600Y-32021D01*
X-59828Y-38861D02*
Y-33249D01*
X-57156Y-30577D02*
Y-24952D01*
X-57214Y-30577D02*
X-57156D01*
X-55956Y-42733D02*
X-51956D01*
X-49200Y-36289D02*
X-49000Y-36089D01*
X-52356Y-1377D02*
X-52061D01*
X-55210Y-6889D02*
X-52298D01*
X-50912Y-5503D02*
Y-5445D01*
X-52298Y-6889D02*
X-50912Y-5503D01*
X-49724Y1587D02*
X-49500Y1811D01*
X-49724Y959D02*
Y1587D01*
X-41906Y-42783D02*
X-41856Y-42833D01*
X-46394Y-42783D02*
X-41906D01*
X-46444Y-42733D02*
X-46394Y-42783D01*
X-41856Y-35333D02*
X-41356Y-34833D01*
X-47164Y-1377D02*
X-47106D01*
Y-6889D02*
X-41856D01*
X-25944Y-47933D02*
X-25688Y-48189D01*
X-25844Y-42833D02*
X-25688Y-42677D01*
X-25844Y-42833D02*
Y-42775D01*
X-26987Y-41632D02*
X-25844Y-42775D01*
X-27357Y-41632D02*
X-26987D01*
X-31356Y-37633D02*
Y-34833D01*
Y-6889D02*
X-25368D01*
X-25112Y-6633D01*
X-20500Y-48189D02*
X-17826D01*
X-22000Y-14789D02*
X-21631Y-15158D01*
X-15051Y-45414D02*
X-14756D01*
X-13555Y-19527D02*
Y-19469D01*
X-14698Y-20670D02*
X-13555Y-19527D01*
X-14756Y-20670D02*
X-14698D01*
X-58600Y-31963D02*
X-57214Y-30577D01*
X-49200Y-45489D02*
Y-36289D01*
X-52061Y-1377D02*
X-49724Y959D01*
X-41856Y-42833D02*
Y-35333D01*
Y-14933D02*
Y-6889D01*
Y-14933D02*
X-41356Y-15433D01*
X-31356Y-37633D02*
X-27357Y-41632D01*
X-31356Y-15433D02*
Y-6889D01*
X-22000Y-14789D02*
Y-3189D01*
X-14756Y-39902D02*
Y-33042D01*
Y-27530D02*
Y-20670D01*
X-57156Y-19440D02*
Y-13814D01*
X-46756Y-47933D02*
X-31456D01*
X-57156Y-36089D02*
X-51356D01*
X-57156Y-8302D02*
X-56624D01*
X-48307Y-2520D02*
X-47164Y-1377D01*
X-50912Y-5445D02*
X-48307Y-2840D01*
Y-2520D01*
X-25688Y-48189D02*
X-20500D01*
X-25688Y-42677D02*
X-20500D01*
X-59828Y-38861D02*
X-55956Y-42733D01*
X-49200Y-45489D02*
X-46756Y-47933D01*
X-56624Y-8302D02*
X-55210Y-6889D01*
X-17826Y-48189D02*
X-15051Y-45414D01*
X-13555Y-19469D02*
X-12000Y-17914D01*
X-67900Y45000D02*
Y48200D01*
X-55280Y60820D02*
X-51436D01*
X-67900Y48200D02*
X-55280Y60820D01*
X-70600Y40100D02*
Y42300D01*
X-67900Y45000D01*
X-33700Y62400D02*
X-30699D01*
X-41733Y64600D02*
X-35900D01*
X-33700Y62400D01*
X-29124Y62400D02*
Y64424D01*
X-29700Y65000D02*
X-29124Y64424D01*
X-32400Y65000D02*
X-29700D01*
X-27000Y36700D02*
X-22825Y40875D01*
X-27000Y32500D02*
Y36700D01*
X-22825Y40875D02*
Y47439D01*
X-27000Y32500D02*
X-25010Y30509D01*
X-50742Y60820D02*
X-50580D01*
X-50555Y60845D01*
X-44111Y64600D02*
X-43398D01*
X-44238Y64473D02*
X-44111Y64600D01*
X-41065Y66076D02*
X-40911Y66151D01*
X-41073Y66072D02*
X-41065Y66076D01*
X-45627Y66533D02*
X-44758D01*
X-39535Y66984D02*
X-28385D01*
X-27550Y66149D01*
Y62400D02*
Y66149D01*
X-39675Y68454D02*
X-39624Y68454D01*
X-39754Y68480D02*
X-39675Y68454D01*
X-36975Y68408D02*
X-27752Y68252D01*
X-27580Y68080D01*
X-37093Y68409D02*
X-36990D01*
X-42414Y69328D02*
X-39754Y68480D01*
X-27580Y68080D02*
X-26011Y66511D01*
X-42762Y69439D02*
X-42378D01*
X-18616Y35237D02*
Y36916D01*
X-21250Y39550D02*
Y47439D01*
Y39550D02*
X-18616Y36916D01*
X-17243Y33864D02*
X-17046D01*
X-18616Y35237D02*
X-17243Y33864D01*
X-25010Y30509D02*
X-24228D01*
X-22854Y29136D01*
X-19434Y62500D02*
X-17700D01*
X-21250Y62400D02*
Y63830D01*
X-17125Y60431D02*
X-15500Y62056D01*
X-17038Y75372D02*
Y75813D01*
Y75372D02*
X-15500Y73834D01*
Y62056D02*
Y73834D01*
X-17707Y60431D02*
X-17125D01*
X-26011Y62436D02*
Y66511D01*
Y62436D02*
X-25975Y62400D01*
X-20500Y78873D02*
X-18058Y81315D01*
X-22362Y74387D02*
Y74614D01*
X-20500Y76476D01*
Y78873D01*
X-17707Y57282D02*
X-14218D01*
X-13000Y58500D02*
Y65500D01*
X-14218Y57282D02*
X-13000Y58500D01*
Y65500D02*
X-11804Y66696D01*
X-9819Y68631D02*
Y71500D01*
Y68631D02*
X-8741Y67553D01*
X-8500D01*
X-9357Y66696D02*
X-8500Y67553D01*
X-11804Y66696D02*
X-9357D01*
X-10024Y57976D02*
X-8819Y59181D01*
X-17707Y55707D02*
X-12293D01*
X-8819Y59181D02*
Y61328D01*
X-12293Y55707D02*
X-10024Y57976D01*
X-8819Y61328D02*
X-8500Y61647D01*
D13*
X-53931Y52772D02*
X-47369Y56728D01*
D15*
X-58457Y6000D02*
D03*
X-65543D02*
D03*
D16*
X52000Y38815D02*
D03*
Y28185D02*
D03*
X-24500Y-66185D02*
D03*
Y-76815D02*
D03*
X-12000Y-66185D02*
D03*
Y-76815D02*
D03*
X13500Y-69685D02*
D03*
Y-80315D02*
D03*
X500Y-69685D02*
D03*
Y-80315D02*
D03*
X50500Y-26815D02*
D03*
Y-16185D02*
D03*
X74000Y-26815D02*
D03*
Y-16185D02*
D03*
X62250Y-26815D02*
D03*
Y-16185D02*
D03*
D17*
X-21356Y-15433D02*
D03*
X-26356D02*
D03*
X-31356D02*
D03*
X-36356D02*
D03*
X-41356D02*
D03*
X-46356D02*
D03*
X-51356D02*
D03*
Y-34833D02*
D03*
X-46356D02*
D03*
X-41356D02*
D03*
X-36356D02*
D03*
X-31356D02*
D03*
X-26356D02*
D03*
X-21356D02*
D03*
D18*
X9933Y22010D02*
D03*
Y17010D02*
D03*
Y12010D02*
D03*
Y7010D02*
D03*
Y2010D02*
D03*
Y-2990D02*
D03*
Y-7990D02*
D03*
X29333D02*
D03*
Y-2990D02*
D03*
Y2010D02*
D03*
Y7010D02*
D03*
Y12010D02*
D03*
Y17010D02*
D03*
Y22010D02*
D03*
X9988Y-27356D02*
D03*
Y-32356D02*
D03*
Y-37356D02*
D03*
Y-42356D02*
D03*
Y-47356D02*
D03*
Y-52356D02*
D03*
Y-57356D02*
D03*
X29388D02*
D03*
Y-52356D02*
D03*
Y-47356D02*
D03*
Y-42356D02*
D03*
Y-37356D02*
D03*
Y-32356D02*
D03*
Y-27356D02*
D03*
D19*
X-4123Y-3740D02*
D03*
X1389D02*
D03*
X-4123Y-8990D02*
D03*
X1389D02*
D03*
X13940Y-13790D02*
D03*
X19452D02*
D03*
X42689Y22866D02*
D03*
X37177D02*
D03*
X27542Y28610D02*
D03*
X22030D02*
D03*
X1389Y1510D02*
D03*
X-4123D02*
D03*
X1389Y12010D02*
D03*
X-4123D02*
D03*
X8314Y-13790D02*
D03*
X2802D02*
D03*
X30589D02*
D03*
X25077D02*
D03*
X34402Y28610D02*
D03*
X39914D02*
D03*
X9744Y28000D02*
D03*
X15256D02*
D03*
X-4123Y6760D02*
D03*
X1389D02*
D03*
X-4068Y-53106D02*
D03*
X1444D02*
D03*
X-4068Y-58356D02*
D03*
X1444D02*
D03*
X13995Y-63156D02*
D03*
X19507D02*
D03*
X42156Y-26800D02*
D03*
X36644D02*
D03*
X27597Y-20756D02*
D03*
X22085D02*
D03*
X1444Y-47856D02*
D03*
X-4068D02*
D03*
X1444Y-37356D02*
D03*
X-4068D02*
D03*
X8369Y-63156D02*
D03*
X2858D02*
D03*
X30644D02*
D03*
X25132D02*
D03*
X34457Y-20756D02*
D03*
X39969D02*
D03*
X9744Y-21000D02*
D03*
X15256D02*
D03*
X-4068Y-42606D02*
D03*
X1444D02*
D03*
X-46444Y-42733D02*
D03*
X-51956D02*
D03*
X-25944Y-47933D02*
D03*
X-31456D02*
D03*
X-24756Y-6689D02*
D03*
X-19244D02*
D03*
X-36344Y-42833D02*
D03*
X-41856D02*
D03*
X-25844D02*
D03*
X-31356D02*
D03*
X-13656Y40700D02*
D03*
X-8144D02*
D03*
X-31588Y39300D02*
D03*
X-37100D02*
D03*
X-31644Y34300D02*
D03*
X-37156D02*
D03*
D20*
X37233Y-8590D02*
D03*
Y-3078D02*
D03*
X42433Y11910D02*
D03*
Y17422D02*
D03*
X1189Y24122D02*
D03*
Y18610D02*
D03*
X37333Y1510D02*
D03*
Y7022D02*
D03*
Y12010D02*
D03*
Y17522D02*
D03*
X37288Y-57956D02*
D03*
Y-52444D02*
D03*
X42488Y-37456D02*
D03*
Y-31944D02*
D03*
X1244Y-25244D02*
D03*
Y-30756D02*
D03*
X37388Y-47856D02*
D03*
Y-42344D02*
D03*
Y-37356D02*
D03*
Y-31844D02*
D03*
X-47106Y-6889D02*
D03*
Y-1377D02*
D03*
X-52356Y-6889D02*
D03*
Y-1377D02*
D03*
X-57156Y-24952D02*
D03*
Y-19440D02*
D03*
X-20500Y-42677D02*
D03*
Y-48189D02*
D03*
X-14756Y-27530D02*
D03*
Y-33042D02*
D03*
X-41856Y-6889D02*
D03*
Y-1377D02*
D03*
X-31356Y-6889D02*
D03*
Y-1377D02*
D03*
X-57156Y-8302D02*
D03*
Y-13814D02*
D03*
Y-30577D02*
D03*
Y-36089D02*
D03*
X-14756Y-45414D02*
D03*
Y-39902D02*
D03*
X-15000Y-20756D02*
D03*
Y-15244D02*
D03*
X-36606Y-1377D02*
D03*
Y-6889D02*
D03*
X-45500Y33744D02*
D03*
Y39256D02*
D03*
X-65500Y33744D02*
D03*
Y39256D02*
D03*
X-55500Y33744D02*
D03*
Y39256D02*
D03*
D21*
X-65185Y-21000D02*
D03*
X-75815D02*
D03*
D22*
X-17038Y75813D02*
D03*
X-22362Y74387D02*
D03*
D23*
X-44387Y50722D02*
D03*
X-39613Y53478D02*
D03*
D24*
X-60069Y49228D02*
D03*
X-53931Y52772D02*
D03*
X-41231Y60272D02*
D03*
X-47369Y56728D02*
D03*
D25*
X27894Y67100D02*
D03*
X39706D02*
D03*
D26*
X33800Y72907D02*
D03*
Y61293D02*
D03*
D27*
X17943Y52000D02*
D03*
X8100D02*
D03*
D28*
X15580Y48457D02*
D03*
X13021D02*
D03*
X10462D02*
D03*
Y55543D02*
D03*
X13021D02*
D03*
X15580D02*
D03*
D29*
X24100Y52000D02*
D03*
D30*
X28824D02*
D03*
D31*
X24100Y56724D02*
D03*
D32*
X-11100Y48100D02*
D03*
X-9132D02*
D03*
X-7163D02*
D03*
X-11100Y52037D02*
D03*
X-9132D02*
D03*
X-7163D02*
D03*
D33*
X-6181Y57500D02*
D03*
X-9819D02*
D03*
X1519Y52000D02*
D03*
X-2119D02*
D03*
X-6181Y71500D02*
D03*
X-9819D02*
D03*
D34*
X-8500Y67553D02*
D03*
Y61647D02*
D03*
D35*
X-17146Y33664D02*
D03*
Y29136D02*
D03*
X-22854D02*
D03*
Y33664D02*
D03*
D37*
X-19676Y47439D02*
D03*
X-21250D02*
D03*
X-22825D02*
D03*
X-24400D02*
D03*
X-25975D02*
D03*
X-27550D02*
D03*
X-29124D02*
D03*
X-30699D02*
D03*
X-30699Y62400D02*
D03*
X-29124Y62400D02*
D03*
X-27550D02*
D03*
X-25975D02*
D03*
X-24400D02*
D03*
X-22825Y62400D02*
D03*
X-21250Y62400D02*
D03*
X-19676Y62400D02*
D03*
D38*
X-32668Y49408D02*
D03*
X-32668Y50983D02*
D03*
Y52557D02*
D03*
Y54132D02*
D03*
Y55707D02*
D03*
X-32668Y57282D02*
D03*
X-32668Y58857D02*
D03*
X-32668Y60431D02*
D03*
X-17707Y60431D02*
D03*
Y58857D02*
D03*
Y57282D02*
D03*
Y55707D02*
D03*
Y54132D02*
D03*
Y52557D02*
D03*
Y50983D02*
D03*
Y49408D02*
D03*
D39*
X-18058Y81315D02*
D03*
X-24142Y79685D02*
D03*
D40*
X36200Y52000D02*
D03*
D41*
X48012D02*
D03*
D78*
X-25187Y54920D02*
D03*
D79*
X-65543Y5803D02*
Y6000D01*
X-66799Y4548D02*
X-65543Y5803D01*
X-73506Y4548D02*
X-66799D01*
X-78054Y0D02*
X-73506Y4548D01*
X-80709Y0D02*
X-78054D01*
X64717Y-16185D02*
X74000D01*
X62250D02*
X64717D01*
X65882Y-15020D01*
Y-11618D01*
X66000Y-11500D01*
X52500Y-16185D02*
X60165D01*
X62250D01*
X59000Y-15020D02*
X60165Y-16185D01*
X59000Y-15020D02*
Y-11500D01*
X52000Y-15685D02*
X52500Y-16185D01*
X52000Y-15685D02*
Y-11500D01*
X-75815Y-23953D02*
Y-21000D01*
Y-23953D02*
X-72500Y-27268D01*
Y-28500D02*
Y-27268D01*
X13500Y-80315D02*
X18185D01*
X500D02*
X13500D01*
X18185D02*
X21000Y-77500D01*
X-12000Y-76815D02*
X-5953D01*
X-24500D02*
X-12000D01*
X-5953D02*
X-2453Y-80315D01*
X500D01*
X65136Y27593D02*
X65592D01*
X63500Y25957D02*
X65136Y27593D01*
X65592D02*
X66500Y28500D01*
X52000Y28185D02*
X65000D01*
X-53931Y52772D02*
X-52955Y51795D01*
X-49095D02*
X-48900Y51600D01*
X-52955Y51795D02*
X-49095D01*
D80*
X-39410Y54268D02*
X-36885Y55993D01*
X-35000Y57282D01*
X-28300Y43500D02*
X-27550Y44250D01*
X-30721Y41079D02*
X-28300Y43500D01*
X-49861Y44600D02*
X-35700D01*
X-55205Y39256D02*
X-49861Y44600D01*
X-35700D02*
X-33586Y46714D01*
X-55138Y43062D02*
X-51900Y46300D01*
X-37800D01*
X-34692Y49408D01*
X-25975Y39969D02*
Y47439D01*
X-17200Y42000D02*
X-17014Y41814D01*
X-14706D01*
X-13656Y40764D01*
Y40700D02*
Y40764D01*
X-41561Y42900D02*
X-32400D01*
X-29124Y46176D02*
Y47439D01*
X-32400Y42900D02*
X-29124Y46176D01*
X-33586Y46714D02*
X-30705D01*
X-30699Y46721D02*
Y47439D01*
X-30705Y46714D02*
X-30699Y46721D01*
X-34692Y49408D02*
X-32668D01*
X-45205Y39256D02*
X-41561Y42900D01*
X-65500Y39256D02*
X-65205D01*
X-61399Y43062D01*
X-55138D01*
X-65500Y22500D02*
Y33744D01*
X-55500Y39256D02*
X-55205D01*
X-55500Y22500D02*
Y33744D01*
X-45500Y39256D02*
X-45205D01*
X-45500Y22500D02*
Y33744D01*
X-32674Y54126D02*
X-32668Y54132D01*
X-35474Y54126D02*
X-32674D01*
X-35500Y54100D02*
X-35474Y54126D01*
X-31644Y34300D02*
Y34412D01*
X-30385Y35672D01*
X-30272D01*
X-25975Y39969D01*
X-19676Y44476D02*
Y47439D01*
Y44476D02*
X-17200Y42000D01*
X-27550Y44250D02*
Y47439D01*
X-30721Y40168D02*
Y41079D01*
X-31588Y39300D02*
X-30721Y40168D01*
X-35000Y57282D02*
X-32668D01*
X-20500Y68500D02*
X-20293Y68707D01*
X-22825Y66175D02*
X-20500Y68500D01*
X-38503Y58857D02*
X-32668D01*
X-39918Y60272D02*
X-38503Y58857D01*
X-41231Y60272D02*
X-39918D01*
X-24406Y62406D02*
X-24400Y62400D01*
X-24406Y62406D02*
Y68906D01*
X-24500Y69000D02*
X-24406Y68906D01*
X-22825Y62400D02*
Y66175D01*
X-9322Y52228D02*
X-9132Y52037D01*
X-9322Y52228D02*
Y53322D01*
X-10132Y54132D02*
X-9322Y53322D01*
X-17707Y54132D02*
X-10132D01*
X-17707Y50983D02*
X-11761D01*
X-11100Y51643D01*
Y52037D01*
X-17707Y49408D02*
X-12014D01*
X-11100Y48494D01*
Y48100D02*
Y48494D01*
D81*
X18194Y-5240D02*
Y-1329D01*
X21500Y8000D02*
X23000D01*
X37327Y7016D02*
X37333Y7022D01*
X29339Y7016D02*
X37327D01*
X29333Y7010D02*
X29339Y7016D01*
X37333Y7022D02*
Y12010D01*
X37382Y-42350D02*
X37388Y-42344D01*
X29394Y-42350D02*
X37382D01*
X29388Y-42356D02*
X29394Y-42350D01*
X37388Y-42344D02*
Y-37356D01*
X18194Y-1329D02*
X26527Y7004D01*
X18249Y-54606D02*
Y-50695D01*
X26582Y-42362D01*
X-36356Y-34833D02*
Y-32033D01*
X-44689Y-23700D02*
X-36356Y-32033D01*
X-48600Y-23700D02*
X-44689D01*
X-36356Y-34833D02*
X-36350Y-34839D01*
Y-42827D02*
Y-34839D01*
Y-42827D02*
X-36344Y-42833D01*
X-31356D01*
X-36356Y-26198D02*
Y-15433D01*
Y-26198D02*
X-34827Y-27727D01*
Y-27800D02*
Y-27727D01*
X22426Y-41563D02*
X22500D01*
X21633Y-42356D02*
X22426Y-41563D01*
X9988Y-42356D02*
X21633D01*
X20510Y7010D02*
X21500Y8000D01*
X9933Y7010D02*
X20510D01*
X1389Y6760D02*
X1514Y6885D01*
X9808D02*
X9933Y7010D01*
X1514Y6885D02*
X9808D01*
X1444Y-42606D02*
X1569Y-42481D01*
X9863D01*
X9988Y-42356D01*
X-36481Y-15308D02*
X-36356Y-15433D01*
X-36481Y-15308D02*
Y-7014D01*
X-36606Y-6889D02*
X-36481Y-7014D01*
D82*
X24100Y56724D02*
Y63305D01*
X27894Y67100D01*
X28824Y52000D02*
X36200D01*
X17943D02*
X24100D01*
X1519D02*
X8100D01*
X-7150Y52018D02*
X-2137D01*
X-7163Y52032D02*
Y52037D01*
Y52032D02*
X-7150Y52018D01*
X-2137D02*
X-2119Y52000D01*
D83*
X52000Y8500D02*
D03*
X51288Y-47300D02*
D03*
X66500Y38500D02*
D03*
D84*
X52000Y-1500D02*
D03*
X51288Y-57300D02*
D03*
X66500Y28500D02*
D03*
D85*
X-41300Y-56733D02*
D03*
X-75500Y22500D02*
D03*
X-65500D02*
D03*
X-55500D02*
D03*
D86*
X-51300Y-56733D02*
D03*
X-45500Y22500D02*
D03*
D87*
X-34238Y74361D02*
D03*
D88*
X-38500Y71900D02*
D03*
X-42762Y69439D02*
D03*
X-47024Y66979D02*
D03*
X-51286Y64518D02*
D03*
D89*
X18260Y76628D02*
D03*
X10600Y70200D02*
D03*
D90*
X2940Y63772D02*
D03*
D91*
X80709Y0D02*
D03*
X-80709D02*
D03*
D92*
X52000Y-11500D02*
D03*
X66000D02*
D03*
X59000D02*
D03*
X48012Y52000D02*
D03*
X54000D02*
D03*
X48000Y60500D02*
D03*
Y44000D02*
D03*
X41000Y52000D02*
D03*
X34000Y67500D02*
D03*
X17500Y17000D02*
D03*
X-6500Y-32000D02*
D03*
X47500Y-39000D02*
D03*
X-21500Y-25500D02*
D03*
X-31500Y-53000D02*
D03*
X60000Y-32000D02*
D03*
X39000Y-69500D02*
D03*
X26500Y-74000D02*
D03*
X-74500Y32000D02*
D03*
X-65000Y-11500D02*
D03*
X-63000Y-4500D02*
D03*
X36500Y38000D02*
D03*
X29500D02*
D03*
X21500D02*
D03*
X6000Y40000D02*
D03*
X-1500D02*
D03*
X22500Y3000D02*
D03*
Y-46500D02*
D03*
X-40500Y-27500D02*
D03*
X-10000Y10500D02*
D03*
X-4500Y16500D02*
D03*
X-27000Y-2500D02*
D03*
X-72500Y-28500D02*
D03*
X21000Y-77500D02*
D03*
X22100Y22100D02*
D03*
X18194Y-5240D02*
D03*
X17200Y-29000D02*
D03*
X-9800Y-13600D02*
D03*
X17500Y-37300D02*
D03*
X-41800Y3700D02*
D03*
X-10000Y-42700D02*
D03*
X18249Y-54606D02*
D03*
X-48600Y-23700D02*
D03*
X-34827Y-27800D02*
D03*
X22500Y-41563D02*
D03*
X21000Y-25000D02*
D03*
X17346Y11846D02*
D03*
X23000Y8000D02*
D03*
X-15000Y3000D02*
D03*
X-10535Y6598D02*
D03*
X-7311Y-6134D02*
D03*
X-7256Y-55500D02*
D03*
X-49500Y1811D02*
D03*
X-70600Y40100D02*
D03*
X-34800Y26600D02*
D03*
X61200Y50000D02*
D03*
X19700Y64700D02*
D03*
X47600Y65800D02*
D03*
X36800Y47400D02*
D03*
X36400Y56800D02*
D03*
X28700Y56400D02*
D03*
X30600Y47900D02*
D03*
X24800D02*
D03*
X18900Y55800D02*
D03*
X19100Y48000D02*
D03*
X12800Y44100D02*
D03*
X13300Y60300D02*
D03*
X1600Y55100D02*
D03*
X7800Y55500D02*
D03*
X-4600Y55300D02*
D03*
X7800Y48600D02*
D03*
X1800D02*
D03*
X-4000Y48500D02*
D03*
X-6800Y44600D02*
D03*
X-11000Y44700D02*
D03*
X-12500Y80100D02*
D03*
X-35700Y61200D02*
D03*
X-37300Y56600D02*
D03*
X-22000Y51900D02*
D03*
X-28000D02*
D03*
X-22000Y57600D02*
D03*
X-28000D02*
D03*
X-17700Y62500D02*
D03*
X-20600Y65400D02*
D03*
X-32400Y65000D02*
D03*
X-26300Y40800D02*
D03*
X-17200Y42000D02*
D03*
X-28300Y43500D02*
D03*
Y78400D02*
D03*
X-47900Y48700D02*
D03*
X-35500Y54100D02*
D03*
X-48900Y51600D02*
D03*
X-22800Y37700D02*
D03*
X-24500Y69000D02*
D03*
X-20500Y68500D02*
D03*
M02*
