G04*
G04 #@! TF.GenerationSoftware,Altium Limited,Altium Designer,20.0.13 (296)*
G04*
G04 Layer_Physical_Order=3*
G04 Layer_Color=16440176*
%FSLAX25Y25*%
%MOIN*%
G70*
G01*
G75*
%ADD13C,0.01000*%
%ADD84R,0.08268X0.07087*%
G04:AMPARAMS|DCode=87|XSize=35.43mil|YSize=31.5mil|CornerRadius=0mil|HoleSize=0mil|Usage=FLASHONLY|Rotation=120.000|XOffset=0mil|YOffset=0mil|HoleType=Round|Shape=Rectangle|*
%AMROTATEDRECTD87*
4,1,4,0.02250,-0.00747,-0.00478,-0.02322,-0.02250,0.00747,0.00478,0.02322,0.02250,-0.00747,0.0*
%
%ADD87ROTATEDRECTD87*%

%ADD92C,0.01772*%
%ADD93C,0.01968*%
G36*
X-14218Y82968D02*
X-13730Y82820D01*
X-13616Y81741D01*
X-13931Y81531D01*
X-14369Y80874D01*
X-14523Y80100D01*
X-14369Y79326D01*
X-13931Y78669D01*
X-13274Y78231D01*
X-12500Y78077D01*
X-11726Y78231D01*
X-11069Y78669D01*
X-10853Y78993D01*
X-10484Y78956D01*
X-9665Y78519D01*
X-9564Y78189D01*
X-9558Y78179D01*
X-9386Y77635D01*
X-9167Y76913D01*
X-8251Y75197D01*
X-7017Y73694D01*
X-5513Y72460D01*
X-3798Y71543D01*
X-1936Y70978D01*
X-1Y70788D01*
X229Y70810D01*
X635Y69845D01*
X-5250Y64908D01*
X650Y57876D01*
X365Y56661D01*
X169Y56531D01*
X-269Y55874D01*
X-423Y55100D01*
X-269Y54326D01*
X169Y53669D01*
X826Y53231D01*
X1600Y53077D01*
X2374Y53231D01*
X3031Y53669D01*
X3469Y54326D01*
X3623Y55100D01*
X3469Y55874D01*
X3326Y56089D01*
X11129Y62637D01*
X10669Y63184D01*
X11118Y64205D01*
X11951Y64241D01*
X13342Y64680D01*
X14573Y65465D01*
X15560Y66541D01*
X16233Y67835D01*
X16549Y69260D01*
X16520Y69943D01*
X17485Y70754D01*
X18153Y70606D01*
X19611Y70669D01*
X21003Y71108D01*
X22234Y71892D01*
X23220Y72969D01*
X23894Y74263D01*
X24210Y75688D01*
X24146Y77146D01*
X23707Y78538D01*
X22923Y79769D01*
X22838Y79871D01*
X23011Y81220D01*
X23176Y81339D01*
X27196Y80120D01*
X32378Y78170D01*
X37421Y75885D01*
X42304Y73275D01*
X47006Y70351D01*
X51506Y67126D01*
X55786Y63614D01*
X59827Y59829D01*
X63612Y55788D01*
X67124Y51508D01*
X70349Y47007D01*
X73273Y42305D01*
X75883Y37423D01*
X78168Y32379D01*
X80119Y27198D01*
X81726Y21899D01*
X82983Y16507D01*
X83315Y14496D01*
X82430Y13718D01*
X80709Y13854D01*
X78541Y13683D01*
X76428Y13176D01*
X74419Y12344D01*
X72566Y11208D01*
X70913Y9796D01*
X69501Y8143D01*
X68365Y6289D01*
X67533Y4281D01*
X67026Y2167D01*
X66855Y0D01*
X67026Y-2167D01*
X67533Y-4281D01*
X68365Y-6289D01*
X69501Y-8143D01*
X70913Y-9796D01*
X72566Y-11208D01*
X74419Y-12344D01*
X76428Y-13176D01*
X78541Y-13683D01*
X80709Y-13854D01*
X82430Y-13718D01*
X83315Y-14496D01*
X82983Y-16506D01*
X81726Y-21898D01*
X80408Y-26242D01*
X80077Y-27185D01*
X79709Y-28033D01*
X79426Y-28563D01*
X78698Y-29450D01*
X77811Y-30178D01*
X76799Y-30719D01*
X75701Y-31052D01*
X74560Y-31164D01*
X73418Y-31052D01*
X72834Y-30875D01*
X72823Y-30912D01*
X72823D01*
X72823Y-30912D01*
X72716Y-30891D01*
X71831Y-30622D01*
X69895Y-30432D01*
X67959Y-30622D01*
X66098Y-31187D01*
X64383Y-32104D01*
X62879Y-33338D01*
X61645Y-34841D01*
X60728Y-36557D01*
X60164Y-38418D01*
X59973Y-40354D01*
X60164Y-42289D01*
X60728Y-44150D01*
X61645Y-45866D01*
X62879Y-47369D01*
X63163Y-47631D01*
X63339Y-47776D01*
X64067Y-48663D01*
X64608Y-49674D01*
X64941Y-50772D01*
X65053Y-51914D01*
X64941Y-53056D01*
X64608Y-54154D01*
X64158Y-54994D01*
X63582Y-55756D01*
X62930Y-56514D01*
X59827Y-59827D01*
X58340Y-61220D01*
X57422Y-60823D01*
Y-51757D01*
X56707D01*
X56213Y-50757D01*
X56721Y-50095D01*
X57279Y-48747D01*
X57470Y-47300D01*
X57279Y-45853D01*
X56721Y-44504D01*
X55832Y-43346D01*
X54674Y-42458D01*
X53326Y-41899D01*
X51879Y-41709D01*
X50698D01*
X49251Y-41899D01*
X47902Y-42458D01*
X46744Y-43346D01*
X45856Y-44504D01*
X45297Y-45853D01*
X45107Y-47300D01*
X45297Y-48747D01*
X45856Y-50095D01*
X46363Y-50757D01*
X45870Y-51757D01*
X45154D01*
Y-62843D01*
X55146D01*
X55504Y-63843D01*
X51506Y-67124D01*
X47006Y-70349D01*
X42304Y-73273D01*
X37421Y-75883D01*
X32378Y-78168D01*
X27196Y-80118D01*
X21898Y-81726D01*
X16506Y-82983D01*
X11043Y-83885D01*
X5533Y-84427D01*
X-1Y-84609D01*
X-5534Y-84427D01*
X-11045Y-83885D01*
X-16507Y-82983D01*
X-21899Y-81726D01*
X-27198Y-80118D01*
X-32379Y-78168D01*
X-37423Y-75883D01*
X-42305Y-73273D01*
X-47007Y-70349D01*
X-51508Y-67124D01*
X-55477Y-63867D01*
X-55119Y-62867D01*
X-45757D01*
Y-62151D01*
X-44757Y-61658D01*
X-44096Y-62166D01*
X-42747Y-62724D01*
X-41300Y-62915D01*
X-39853Y-62724D01*
X-38504Y-62166D01*
X-37346Y-61277D01*
X-36458Y-60119D01*
X-35899Y-58771D01*
X-35709Y-57324D01*
Y-56142D01*
X-35899Y-54695D01*
X-36458Y-53347D01*
X-37346Y-52189D01*
X-38504Y-51301D01*
X-39853Y-50742D01*
X-41300Y-50551D01*
X-42747Y-50742D01*
X-44096Y-51301D01*
X-44757Y-51808D01*
X-45757Y-51315D01*
Y-50599D01*
X-56843D01*
Y-61366D01*
X-57761Y-61764D01*
X-59829Y-59827D01*
X-62932Y-56514D01*
X-63584Y-55756D01*
X-64160Y-54994D01*
X-64609Y-54154D01*
X-64943Y-53056D01*
X-65055Y-51914D01*
X-64943Y-50772D01*
X-64609Y-49674D01*
X-64069Y-48663D01*
X-63341Y-47776D01*
X-63165Y-47631D01*
X-63165Y-47631D01*
X-62881Y-47369D01*
X-61647Y-45866D01*
X-60730Y-44150D01*
X-60165Y-42289D01*
X-59975Y-40354D01*
X-60165Y-38418D01*
X-60730Y-36557D01*
X-61647Y-34841D01*
X-62881Y-33338D01*
X-64384Y-32104D01*
X-66100Y-31187D01*
X-67961Y-30622D01*
X-69897Y-30432D01*
X-71832Y-30622D01*
X-72717Y-30891D01*
X-72825Y-30912D01*
X-72836Y-30875D01*
X-73419Y-31052D01*
X-74561Y-31164D01*
X-75703Y-31052D01*
X-76801Y-30719D01*
X-77813Y-30178D01*
X-78699Y-29450D01*
X-79427Y-28563D01*
X-79968Y-27552D01*
X-80079Y-27185D01*
X-80410Y-26242D01*
X-81727Y-21898D01*
X-82985Y-16506D01*
X-83316Y-14496D01*
X-82431Y-13718D01*
X-80709Y-13854D01*
X-78541Y-13683D01*
X-76428Y-13176D01*
X-74419Y-12344D01*
X-72566Y-11208D01*
X-70913Y-9796D01*
X-69501Y-8143D01*
X-68365Y-6289D01*
X-67533Y-4281D01*
X-67026Y-2167D01*
X-66855Y0D01*
X-67026Y2167D01*
X-67533Y4281D01*
X-68365Y6289D01*
X-69501Y8143D01*
X-70913Y9796D01*
X-72566Y11208D01*
X-74419Y12344D01*
X-76428Y13176D01*
X-78541Y13683D01*
X-80709Y13854D01*
X-82432Y13718D01*
X-83317Y14495D01*
X-82985Y16507D01*
X-81964Y20882D01*
X-80949Y20832D01*
X-80901Y20462D01*
X-80342Y19114D01*
X-79453Y17956D01*
X-78296Y17067D01*
X-76947Y16509D01*
X-75500Y16318D01*
X-74053Y16509D01*
X-72704Y17067D01*
X-71547Y17956D01*
X-71130Y18498D01*
X-69870D01*
X-69454Y17956D01*
X-68296Y17067D01*
X-66947Y16509D01*
X-65500Y16318D01*
X-64053Y16509D01*
X-62704Y17067D01*
X-61546Y17956D01*
X-61130Y18498D01*
X-59870D01*
X-59453Y17956D01*
X-58296Y17067D01*
X-56947Y16509D01*
X-55500Y16318D01*
X-54053Y16509D01*
X-52704Y17067D01*
X-52043Y17575D01*
X-51043Y17082D01*
Y16366D01*
X-39957D01*
Y28634D01*
X-51043D01*
Y27918D01*
X-52043Y27425D01*
X-52704Y27933D01*
X-54053Y28491D01*
X-55500Y28682D01*
X-56947Y28491D01*
X-58296Y27933D01*
X-59453Y27044D01*
X-59870Y26502D01*
X-61130D01*
X-61546Y27044D01*
X-62704Y27933D01*
X-64053Y28491D01*
X-65500Y28682D01*
X-66947Y28491D01*
X-68296Y27933D01*
X-69454Y27044D01*
X-69870Y26502D01*
X-71130D01*
X-71547Y27044D01*
X-72704Y27933D01*
X-74053Y28491D01*
X-75500Y28682D01*
X-76947Y28491D01*
X-78296Y27933D01*
X-78970Y27415D01*
X-79805Y28035D01*
X-78170Y32379D01*
X-75885Y37423D01*
X-73275Y42305D01*
X-70351Y47007D01*
X-67126Y51508D01*
X-63614Y55788D01*
X-59829Y59829D01*
X-55829Y63574D01*
X-55727Y63594D01*
X-54657Y63248D01*
X-54507Y62886D01*
X-54310Y62545D01*
X-53737Y61798D01*
X-52990Y61225D01*
X-52121Y60865D01*
X-51187Y60742D01*
X-50254Y60865D01*
X-49385Y61225D01*
X-48638Y61798D01*
X-48065Y62545D01*
X-47747Y63311D01*
X-46925Y63203D01*
X-45992Y63326D01*
X-45123Y63686D01*
X-44376Y64259D01*
X-43803Y65005D01*
X-43486Y65772D01*
X-42663Y65663D01*
X-41730Y65786D01*
X-40861Y66146D01*
X-40114Y66719D01*
X-39541Y67466D01*
X-39224Y68232D01*
X-38402Y68124D01*
X-37468Y68247D01*
X-36599Y68607D01*
X-35852Y69180D01*
X-35279Y69927D01*
X-34935Y70758D01*
X-33285Y71710D01*
X-34671Y74111D01*
X-34238Y74361D01*
X-34488Y74794D01*
X-32258Y76081D01*
X-32867Y77135D01*
X-32579Y78033D01*
X-32322Y78191D01*
X-31224Y78605D01*
X-30226Y77912D01*
X-30169Y77626D01*
X-29731Y76969D01*
X-29074Y76531D01*
X-28300Y76377D01*
X-27526Y76531D01*
X-26869Y76969D01*
X-26431Y77626D01*
X-26277Y78400D01*
X-26431Y79174D01*
X-26505Y79285D01*
X-26126Y80445D01*
X-21899Y81727D01*
X-17472Y82759D01*
X-16501Y82968D01*
X-15359Y83081D01*
X-14218Y82968D01*
D02*
G37*
%LPC*%
G36*
X-31758Y75215D02*
X-33555Y74178D01*
X-32419Y72210D01*
X-30622Y73248D01*
X-31758Y75215D01*
D02*
G37*
G36*
X-24500Y71023D02*
X-25274Y70869D01*
X-25931Y70431D01*
X-26369Y69774D01*
X-26523Y69000D01*
X-26369Y68226D01*
X-25931Y67569D01*
X-25274Y67131D01*
X-24500Y66977D01*
X-23726Y67131D01*
X-23069Y67569D01*
X-22631Y68226D01*
X-22477Y69000D01*
X-22631Y69774D01*
X-23069Y70431D01*
X-23726Y70869D01*
X-24500Y71023D01*
D02*
G37*
G36*
X34000Y69423D02*
X33264Y69276D01*
X32640Y68860D01*
X32224Y68236D01*
X32077Y67500D01*
X32224Y66764D01*
X32640Y66140D01*
X33264Y65724D01*
X34000Y65577D01*
X34736Y65724D01*
X35360Y66140D01*
X35776Y66764D01*
X35923Y67500D01*
X35776Y68236D01*
X35360Y68860D01*
X34736Y69276D01*
X34000Y69423D01*
D02*
G37*
G36*
X47600Y67823D02*
X46826Y67669D01*
X46169Y67231D01*
X45731Y66574D01*
X45577Y65800D01*
X45731Y65026D01*
X46169Y64369D01*
X46826Y63931D01*
X47600Y63777D01*
X48374Y63931D01*
X49031Y64369D01*
X49469Y65026D01*
X49623Y65800D01*
X49469Y66574D01*
X49031Y67231D01*
X48374Y67669D01*
X47600Y67823D01*
D02*
G37*
G36*
X-32400Y67023D02*
X-33174Y66869D01*
X-33831Y66431D01*
X-34269Y65774D01*
X-34423Y65000D01*
X-34269Y64226D01*
X-33831Y63569D01*
X-33174Y63131D01*
X-32400Y62977D01*
X-31626Y63131D01*
X-30969Y63569D01*
X-30531Y64226D01*
X-30377Y65000D01*
X-30531Y65774D01*
X-30969Y66431D01*
X-31626Y66869D01*
X-32400Y67023D01*
D02*
G37*
G36*
X19700Y66723D02*
X18926Y66569D01*
X18269Y66131D01*
X17831Y65474D01*
X17677Y64700D01*
X17831Y63926D01*
X18269Y63269D01*
X18926Y62831D01*
X19700Y62677D01*
X20474Y62831D01*
X21131Y63269D01*
X21569Y63926D01*
X21723Y64700D01*
X21569Y65474D01*
X21131Y66131D01*
X20474Y66569D01*
X19700Y66723D01*
D02*
G37*
G36*
X-20600Y67423D02*
X-21374Y67269D01*
X-22031Y66831D01*
X-22469Y66174D01*
X-22623Y65400D01*
X-22469Y64626D01*
X-22031Y63969D01*
X-21374Y63531D01*
X-20600Y63377D01*
X-20567Y63384D01*
X-19717Y62533D01*
X-19723Y62500D01*
X-19569Y61726D01*
X-19131Y61069D01*
X-18474Y60631D01*
X-17700Y60477D01*
X-16926Y60631D01*
X-16269Y61069D01*
X-15831Y61726D01*
X-15677Y62500D01*
X-15831Y63274D01*
X-16269Y63931D01*
X-16926Y64369D01*
X-17700Y64523D01*
X-17733Y64517D01*
X-18583Y65367D01*
X-18577Y65400D01*
X-18731Y66174D01*
X-19169Y66831D01*
X-19826Y67269D01*
X-20600Y67423D01*
D02*
G37*
G36*
X48000Y62423D02*
X47264Y62276D01*
X46640Y61860D01*
X46224Y61236D01*
X46077Y60500D01*
X46224Y59764D01*
X46640Y59140D01*
X47264Y58724D01*
X48000Y58577D01*
X48736Y58724D01*
X49360Y59140D01*
X49776Y59764D01*
X49923Y60500D01*
X49776Y61236D01*
X49360Y61860D01*
X48736Y62276D01*
X48000Y62423D01*
D02*
G37*
G36*
X13300Y62323D02*
X12526Y62169D01*
X11869Y61731D01*
X11431Y61074D01*
X11277Y60300D01*
X11431Y59526D01*
X11869Y58869D01*
X12526Y58431D01*
X13300Y58277D01*
X14074Y58431D01*
X14731Y58869D01*
X15169Y59526D01*
X15323Y60300D01*
X15169Y61074D01*
X14731Y61731D01*
X14074Y62169D01*
X13300Y62323D01*
D02*
G37*
G36*
X-22000Y59623D02*
X-22774Y59469D01*
X-23431Y59031D01*
X-23869Y58374D01*
X-24023Y57600D01*
X-23869Y56826D01*
X-23431Y56169D01*
X-22774Y55731D01*
X-22000Y55577D01*
X-21226Y55731D01*
X-20569Y56169D01*
X-20131Y56826D01*
X-19977Y57600D01*
X-20131Y58374D01*
X-20569Y59031D01*
X-21226Y59469D01*
X-22000Y59623D01*
D02*
G37*
G36*
X-28000D02*
X-28774Y59469D01*
X-29431Y59031D01*
X-29869Y58374D01*
X-30023Y57600D01*
X-29869Y56826D01*
X-29431Y56169D01*
X-28774Y55731D01*
X-28000Y55577D01*
X-27226Y55731D01*
X-26569Y56169D01*
X-26131Y56826D01*
X-25977Y57600D01*
X-26131Y58374D01*
X-26569Y59031D01*
X-27226Y59469D01*
X-28000Y59623D01*
D02*
G37*
G36*
X36400Y58823D02*
X35626Y58669D01*
X34969Y58231D01*
X34531Y57574D01*
X34377Y56800D01*
X34531Y56026D01*
X34969Y55369D01*
X35626Y54931D01*
X36400Y54777D01*
X37174Y54931D01*
X37831Y55369D01*
X38269Y56026D01*
X38423Y56800D01*
X38269Y57574D01*
X37831Y58231D01*
X37174Y58669D01*
X36400Y58823D01*
D02*
G37*
G36*
X28700Y58423D02*
X27926Y58269D01*
X27269Y57831D01*
X26831Y57174D01*
X26677Y56400D01*
X26831Y55626D01*
X27269Y54969D01*
X27926Y54531D01*
X28700Y54377D01*
X29474Y54531D01*
X30131Y54969D01*
X30569Y55626D01*
X30723Y56400D01*
X30569Y57174D01*
X30131Y57831D01*
X29474Y58269D01*
X28700Y58423D01*
D02*
G37*
G36*
X18900Y57823D02*
X18126Y57669D01*
X17469Y57231D01*
X17031Y56574D01*
X16877Y55800D01*
X17031Y55026D01*
X17469Y54369D01*
X18126Y53931D01*
X18900Y53777D01*
X19674Y53931D01*
X20331Y54369D01*
X20769Y55026D01*
X20923Y55800D01*
X20769Y56574D01*
X20331Y57231D01*
X19674Y57669D01*
X18900Y57823D01*
D02*
G37*
G36*
X7800Y57523D02*
X7026Y57369D01*
X6369Y56931D01*
X5931Y56274D01*
X5777Y55500D01*
X5931Y54726D01*
X6369Y54069D01*
X7026Y53631D01*
X7800Y53477D01*
X8574Y53631D01*
X9231Y54069D01*
X9669Y54726D01*
X9823Y55500D01*
X9669Y56274D01*
X9231Y56931D01*
X8574Y57369D01*
X7800Y57523D01*
D02*
G37*
G36*
X-4600Y57323D02*
X-5374Y57169D01*
X-6031Y56731D01*
X-6469Y56074D01*
X-6623Y55300D01*
X-6469Y54526D01*
X-6031Y53869D01*
X-5374Y53431D01*
X-4600Y53277D01*
X-3826Y53431D01*
X-3169Y53869D01*
X-2731Y54526D01*
X-2577Y55300D01*
X-2731Y56074D01*
X-3169Y56731D01*
X-3826Y57169D01*
X-4600Y57323D01*
D02*
G37*
G36*
X-35500Y56123D02*
X-36274Y55969D01*
X-36931Y55531D01*
X-37369Y54874D01*
X-37523Y54100D01*
X-37369Y53326D01*
X-36931Y52669D01*
X-36274Y52231D01*
X-35500Y52077D01*
X-34726Y52231D01*
X-34069Y52669D01*
X-33631Y53326D01*
X-33477Y54100D01*
X-33631Y54874D01*
X-34069Y55531D01*
X-34726Y55969D01*
X-35500Y56123D01*
D02*
G37*
G36*
X54000Y53923D02*
X53264Y53776D01*
X52640Y53360D01*
X52224Y52736D01*
X52077Y52000D01*
X52224Y51264D01*
X52640Y50640D01*
X53264Y50224D01*
X54000Y50077D01*
X54736Y50224D01*
X55360Y50640D01*
X55776Y51264D01*
X55923Y52000D01*
X55776Y52736D01*
X55360Y53360D01*
X54736Y53776D01*
X54000Y53923D01*
D02*
G37*
G36*
X48012D02*
X47276Y53776D01*
X46652Y53360D01*
X46235Y52736D01*
X46089Y52000D01*
X46235Y51264D01*
X46652Y50640D01*
X47276Y50224D01*
X48012Y50077D01*
X48748Y50224D01*
X49371Y50640D01*
X49788Y51264D01*
X49935Y52000D01*
X49788Y52736D01*
X49371Y53360D01*
X48748Y53776D01*
X48012Y53923D01*
D02*
G37*
G36*
X41000D02*
X40264Y53776D01*
X39640Y53360D01*
X39224Y52736D01*
X39077Y52000D01*
X39224Y51264D01*
X39640Y50640D01*
X40264Y50224D01*
X41000Y50077D01*
X41736Y50224D01*
X42360Y50640D01*
X42776Y51264D01*
X42923Y52000D01*
X42776Y52736D01*
X42360Y53360D01*
X41736Y53776D01*
X41000Y53923D01*
D02*
G37*
G36*
X-22000Y53923D02*
X-22774Y53769D01*
X-23431Y53331D01*
X-23869Y52674D01*
X-24023Y51900D01*
X-23869Y51126D01*
X-23431Y50469D01*
X-22774Y50031D01*
X-22000Y49877D01*
X-21226Y50031D01*
X-20569Y50469D01*
X-20131Y51126D01*
X-19977Y51900D01*
X-20131Y52674D01*
X-20569Y53331D01*
X-21226Y53769D01*
X-22000Y53923D01*
D02*
G37*
G36*
X-28000D02*
X-28774Y53769D01*
X-29431Y53331D01*
X-29869Y52674D01*
X-30023Y51900D01*
X-29869Y51126D01*
X-29431Y50469D01*
X-28774Y50031D01*
X-28000Y49877D01*
X-27226Y50031D01*
X-26569Y50469D01*
X-26131Y51126D01*
X-25977Y51900D01*
X-26131Y52674D01*
X-26569Y53331D01*
X-27226Y53769D01*
X-28000Y53923D01*
D02*
G37*
G36*
X61200Y52023D02*
X60426Y51869D01*
X59769Y51431D01*
X59331Y50774D01*
X59177Y50000D01*
X59331Y49226D01*
X59769Y48569D01*
X60426Y48131D01*
X61200Y47977D01*
X61974Y48131D01*
X62631Y48569D01*
X63069Y49226D01*
X63223Y50000D01*
X63069Y50774D01*
X62631Y51431D01*
X61974Y51869D01*
X61200Y52023D01*
D02*
G37*
G36*
X-48900Y53623D02*
X-49674Y53469D01*
X-50331Y53031D01*
X-50769Y52374D01*
X-50923Y51600D01*
X-50769Y50826D01*
X-50331Y50169D01*
X-49769Y49474D01*
X-49923Y48700D01*
X-49769Y47926D01*
X-49331Y47269D01*
X-48674Y46831D01*
X-47900Y46677D01*
X-47126Y46831D01*
X-46469Y47269D01*
X-46031Y47926D01*
X-45877Y48700D01*
X-46031Y49474D01*
X-46469Y50131D01*
X-47031Y50826D01*
X-46877Y51600D01*
X-47031Y52374D01*
X-47469Y53031D01*
X-48126Y53469D01*
X-48900Y53623D01*
D02*
G37*
G36*
X7800Y50623D02*
X7026Y50469D01*
X6369Y50031D01*
X5931Y49374D01*
X5777Y48600D01*
X5931Y47826D01*
X6369Y47169D01*
X7026Y46731D01*
X7800Y46577D01*
X8574Y46731D01*
X9231Y47169D01*
X9669Y47826D01*
X9823Y48600D01*
X9669Y49374D01*
X9231Y50031D01*
X8574Y50469D01*
X7800Y50623D01*
D02*
G37*
G36*
X1800D02*
X1026Y50469D01*
X369Y50031D01*
X-69Y49374D01*
X-223Y48600D01*
X-69Y47826D01*
X369Y47169D01*
X1026Y46731D01*
X1800Y46577D01*
X2574Y46731D01*
X3231Y47169D01*
X3669Y47826D01*
X3823Y48600D01*
X3669Y49374D01*
X3231Y50031D01*
X2574Y50469D01*
X1800Y50623D01*
D02*
G37*
G36*
X-4000Y50523D02*
X-4774Y50369D01*
X-5431Y49931D01*
X-5869Y49274D01*
X-6023Y48500D01*
X-5869Y47726D01*
X-5603Y47327D01*
X-5700Y47129D01*
X-6264Y46516D01*
X-6800Y46623D01*
X-7574Y46469D01*
X-8231Y46031D01*
X-8284Y45951D01*
X-9468Y45979D01*
X-9569Y46131D01*
X-10226Y46569D01*
X-11000Y46723D01*
X-11774Y46569D01*
X-12431Y46131D01*
X-12869Y45474D01*
X-13023Y44700D01*
X-12869Y43926D01*
X-12431Y43269D01*
X-11774Y42831D01*
X-11000Y42677D01*
X-10226Y42831D01*
X-9569Y43269D01*
X-9516Y43349D01*
X-8332Y43321D01*
X-8231Y43169D01*
X-7574Y42731D01*
X-6800Y42577D01*
X-6026Y42731D01*
X-5369Y43169D01*
X-4931Y43826D01*
X-4777Y44600D01*
X-4931Y45374D01*
X-5197Y45773D01*
X-5100Y45971D01*
X-4536Y46584D01*
X-4000Y46477D01*
X-3226Y46631D01*
X-2569Y47069D01*
X-2131Y47726D01*
X-1977Y48500D01*
X-2131Y49274D01*
X-2569Y49931D01*
X-3226Y50369D01*
X-4000Y50523D01*
D02*
G37*
G36*
X19100Y50023D02*
X18326Y49869D01*
X17669Y49431D01*
X17231Y48774D01*
X17077Y48000D01*
X17231Y47226D01*
X17669Y46569D01*
X18326Y46131D01*
X19100Y45977D01*
X19874Y46131D01*
X20531Y46569D01*
X20969Y47226D01*
X21123Y48000D01*
X20969Y48774D01*
X20531Y49431D01*
X19874Y49869D01*
X19100Y50023D01*
D02*
G37*
G36*
X30600Y49923D02*
X29826Y49769D01*
X29169Y49331D01*
X28731Y48674D01*
X28577Y47900D01*
X28731Y47126D01*
X29169Y46469D01*
X29826Y46031D01*
X30600Y45877D01*
X31374Y46031D01*
X32031Y46469D01*
X32469Y47126D01*
X32623Y47900D01*
X32469Y48674D01*
X32031Y49331D01*
X31374Y49769D01*
X30600Y49923D01*
D02*
G37*
G36*
X24800D02*
X24026Y49769D01*
X23369Y49331D01*
X22931Y48674D01*
X22777Y47900D01*
X22931Y47126D01*
X23369Y46469D01*
X24026Y46031D01*
X24800Y45877D01*
X25574Y46031D01*
X26231Y46469D01*
X26669Y47126D01*
X26823Y47900D01*
X26669Y48674D01*
X26231Y49331D01*
X25574Y49769D01*
X24800Y49923D01*
D02*
G37*
G36*
X36800Y49423D02*
X36026Y49269D01*
X35369Y48831D01*
X34931Y48174D01*
X34777Y47400D01*
X34931Y46626D01*
X35369Y45969D01*
X36026Y45531D01*
X36800Y45377D01*
X37574Y45531D01*
X38231Y45969D01*
X38669Y46626D01*
X38823Y47400D01*
X38669Y48174D01*
X38231Y48831D01*
X37574Y49269D01*
X36800Y49423D01*
D02*
G37*
G36*
X48000Y45923D02*
X47264Y45776D01*
X46640Y45360D01*
X46224Y44736D01*
X46077Y44000D01*
X46224Y43264D01*
X46640Y42640D01*
X47264Y42224D01*
X48000Y42077D01*
X48736Y42224D01*
X49360Y42640D01*
X49776Y43264D01*
X49923Y44000D01*
X49776Y44736D01*
X49360Y45360D01*
X48736Y45776D01*
X48000Y45923D01*
D02*
G37*
G36*
X12800Y46123D02*
X12026Y45969D01*
X11369Y45531D01*
X10931Y44874D01*
X10777Y44100D01*
X10931Y43326D01*
X11369Y42669D01*
X12026Y42231D01*
X12800Y42077D01*
X13574Y42231D01*
X14231Y42669D01*
X14669Y43326D01*
X14823Y44100D01*
X14669Y44874D01*
X14231Y45531D01*
X13574Y45969D01*
X12800Y46123D01*
D02*
G37*
G36*
X-17200Y44023D02*
X-17974Y43869D01*
X-18631Y43431D01*
X-19069Y42774D01*
X-19223Y42000D01*
X-19069Y41226D01*
X-18631Y40569D01*
X-17974Y40131D01*
X-17200Y39977D01*
X-16426Y40131D01*
X-15769Y40569D01*
X-15331Y41226D01*
X-15177Y42000D01*
X-15331Y42774D01*
X-15769Y43431D01*
X-16426Y43869D01*
X-17200Y44023D01*
D02*
G37*
G36*
X-70600Y42123D02*
X-71374Y41969D01*
X-72031Y41531D01*
X-72469Y40874D01*
X-72623Y40100D01*
X-72469Y39326D01*
X-72031Y38669D01*
X-71374Y38231D01*
X-70600Y38077D01*
X-69826Y38231D01*
X-69169Y38669D01*
X-68731Y39326D01*
X-68577Y40100D01*
X-68731Y40874D01*
X-69169Y41531D01*
X-69826Y41969D01*
X-70600Y42123D01*
D02*
G37*
G36*
X6000Y42023D02*
X5226Y41869D01*
X4569Y41431D01*
X4131Y40774D01*
X3977Y40000D01*
X4131Y39226D01*
X4569Y38569D01*
X5226Y38131D01*
X6000Y37977D01*
X6774Y38131D01*
X7431Y38569D01*
X7869Y39226D01*
X8023Y40000D01*
X7869Y40774D01*
X7431Y41431D01*
X6774Y41869D01*
X6000Y42023D01*
D02*
G37*
G36*
X-1500D02*
X-2274Y41869D01*
X-2931Y41431D01*
X-3369Y40774D01*
X-3523Y40000D01*
X-3369Y39226D01*
X-2931Y38569D01*
X-2274Y38131D01*
X-1500Y37977D01*
X-726Y38131D01*
X-69Y38569D01*
X369Y39226D01*
X523Y40000D01*
X369Y40774D01*
X-69Y41431D01*
X-726Y41869D01*
X-1500Y42023D01*
D02*
G37*
G36*
X36500Y40023D02*
X35726Y39869D01*
X35069Y39431D01*
X34631Y38774D01*
X34477Y38000D01*
X34631Y37226D01*
X35069Y36569D01*
X35726Y36131D01*
X36500Y35977D01*
X37274Y36131D01*
X37931Y36569D01*
X38369Y37226D01*
X38523Y38000D01*
X38369Y38774D01*
X37931Y39431D01*
X37274Y39869D01*
X36500Y40023D01*
D02*
G37*
G36*
X29500D02*
X28726Y39869D01*
X28069Y39431D01*
X27631Y38774D01*
X27477Y38000D01*
X27631Y37226D01*
X28069Y36569D01*
X28726Y36131D01*
X29500Y35977D01*
X30274Y36131D01*
X30931Y36569D01*
X31369Y37226D01*
X31523Y38000D01*
X31369Y38774D01*
X30931Y39431D01*
X30274Y39869D01*
X29500Y40023D01*
D02*
G37*
G36*
X21500D02*
X20726Y39869D01*
X20069Y39431D01*
X19631Y38774D01*
X19477Y38000D01*
X19631Y37226D01*
X20069Y36569D01*
X20726Y36131D01*
X21500Y35977D01*
X22274Y36131D01*
X22931Y36569D01*
X23369Y37226D01*
X23523Y38000D01*
X23369Y38774D01*
X22931Y39431D01*
X22274Y39869D01*
X21500Y40023D01*
D02*
G37*
G36*
X-26300Y42823D02*
X-27074Y42669D01*
X-27731Y42231D01*
X-28169Y41574D01*
X-28323Y40800D01*
X-28169Y40026D01*
X-27731Y39369D01*
X-27074Y38931D01*
X-26300Y38777D01*
X-25526Y38931D01*
X-25519Y38935D01*
X-25204Y38764D01*
X-24709Y38274D01*
X-24823Y37700D01*
X-24669Y36926D01*
X-24231Y36269D01*
X-23574Y35831D01*
X-22800Y35677D01*
X-22026Y35831D01*
X-21369Y36269D01*
X-20931Y36926D01*
X-20777Y37700D01*
X-20931Y38474D01*
X-21369Y39131D01*
X-22026Y39569D01*
X-22800Y39723D01*
X-23574Y39569D01*
X-23581Y39565D01*
X-23896Y39736D01*
X-24391Y40226D01*
X-24277Y40800D01*
X-24431Y41574D01*
X-24869Y42231D01*
X-25526Y42669D01*
X-26300Y42823D01*
D02*
G37*
G36*
X-74500Y34023D02*
X-75274Y33869D01*
X-75931Y33431D01*
X-76369Y32774D01*
X-76523Y32000D01*
X-76369Y31226D01*
X-75931Y30569D01*
X-75274Y30131D01*
X-74500Y29977D01*
X-73726Y30131D01*
X-73069Y30569D01*
X-72631Y31226D01*
X-72477Y32000D01*
X-72631Y32774D01*
X-73069Y33431D01*
X-73726Y33869D01*
X-74500Y34023D01*
D02*
G37*
G36*
X67091Y44091D02*
X65909D01*
X64462Y43901D01*
X63114Y43342D01*
X61956Y42454D01*
X61067Y41296D01*
X60509Y39947D01*
X60318Y38500D01*
X60509Y37053D01*
X61067Y35704D01*
X61956Y34547D01*
X62612Y34043D01*
X62272Y33043D01*
X61366D01*
Y29000D01*
X66500D01*
X71634D01*
Y33043D01*
X70728D01*
X70388Y34043D01*
X71044Y34547D01*
X71933Y35704D01*
X72491Y37053D01*
X72682Y38500D01*
X72491Y39947D01*
X71933Y41296D01*
X71044Y42454D01*
X69886Y43342D01*
X68538Y43901D01*
X67091Y44091D01*
D02*
G37*
G36*
X-34800Y28623D02*
X-35574Y28469D01*
X-36231Y28031D01*
X-36669Y27374D01*
X-36823Y26600D01*
X-36669Y25826D01*
X-36231Y25169D01*
X-35574Y24731D01*
X-34800Y24577D01*
X-34026Y24731D01*
X-33369Y25169D01*
X-32931Y25826D01*
X-32777Y26600D01*
X-32931Y27374D01*
X-33369Y28031D01*
X-34026Y28469D01*
X-34800Y28623D01*
D02*
G37*
G36*
X71634Y28000D02*
X67000D01*
Y23957D01*
X71634D01*
Y28000D01*
D02*
G37*
G36*
X66000D02*
X61366D01*
Y23957D01*
X66000D01*
Y28000D01*
D02*
G37*
G36*
X22100Y24123D02*
X21326Y23969D01*
X20669Y23531D01*
X20231Y22874D01*
X20077Y22100D01*
X20231Y21326D01*
X20669Y20669D01*
X21326Y20231D01*
X22100Y20077D01*
X22874Y20231D01*
X23383Y20571D01*
X24566D01*
X28071Y17066D01*
Y15720D01*
X27147Y15337D01*
X25642Y16842D01*
X24980Y17284D01*
X24200Y17439D01*
X19335D01*
X19276Y17736D01*
X18860Y18360D01*
X18236Y18776D01*
X17500Y18923D01*
X16764Y18776D01*
X16140Y18360D01*
X15724Y17736D01*
X15665Y17439D01*
X-2741D01*
X-3069Y17931D01*
X-3726Y18369D01*
X-4500Y18523D01*
X-5274Y18369D01*
X-5931Y17931D01*
X-6259Y17439D01*
X-35500D01*
X-36280Y17284D01*
X-36942Y16842D01*
X-46642Y7142D01*
X-47084Y6480D01*
X-47239Y5700D01*
Y3798D01*
X-47614Y3547D01*
X-48239Y3355D01*
X-48726Y3680D01*
X-49500Y3834D01*
X-50274Y3680D01*
X-50931Y3242D01*
X-51369Y2585D01*
X-51523Y1811D01*
X-51369Y1037D01*
X-50931Y381D01*
X-50274Y-58D01*
X-49500Y-212D01*
X-48726Y-58D01*
X-48239Y267D01*
X-47614Y75D01*
X-47239Y-176D01*
Y-21112D01*
X-48239Y-21749D01*
X-48600Y-21677D01*
X-49374Y-21831D01*
X-50031Y-22269D01*
X-50469Y-22926D01*
X-50623Y-23700D01*
X-50469Y-24474D01*
X-50031Y-25131D01*
X-49374Y-25569D01*
X-48600Y-25723D01*
X-47826Y-25569D01*
X-47170Y-25131D01*
X-46494Y-25790D01*
X-44647Y-27637D01*
X-44563Y-27692D01*
X-44500Y-27770D01*
X-44235Y-27912D01*
X-43986Y-28078D01*
X-43887Y-28098D01*
X-43798Y-28146D01*
X-43499Y-28175D01*
X-43205Y-28234D01*
X-43107Y-28214D01*
X-43006Y-28224D01*
X-42391Y-28164D01*
X-42369Y-28274D01*
X-41931Y-28931D01*
X-41274Y-29369D01*
X-41164Y-29391D01*
X-41224Y-30006D01*
X-41214Y-30107D01*
X-41234Y-30205D01*
X-41175Y-30500D01*
X-41146Y-30798D01*
X-41098Y-30887D01*
X-41078Y-30986D01*
X-40912Y-31235D01*
X-40770Y-31500D01*
X-40692Y-31564D01*
X-40637Y-31647D01*
X-22342Y-49942D01*
X-21680Y-50384D01*
X-20900Y-50539D01*
X20259D01*
X20561Y-50479D01*
X20868Y-50446D01*
X20949Y-50402D01*
X21039Y-50384D01*
X21296Y-50213D01*
X21566Y-50065D01*
X21624Y-49993D01*
X21701Y-49942D01*
X21872Y-49685D01*
X22066Y-49445D01*
X22554Y-48513D01*
X23274Y-48369D01*
X23931Y-47931D01*
X24055Y-47745D01*
X24992Y-47954D01*
X25216Y-47959D01*
X25436Y-48003D01*
X25610Y-47969D01*
X25787Y-47973D01*
X25997Y-47892D01*
X26216Y-47848D01*
X26364Y-47749D01*
X26529Y-47685D01*
X26691Y-47530D01*
X26878Y-47406D01*
X31342Y-42942D01*
X31784Y-42280D01*
X31939Y-41500D01*
Y-5869D01*
X31784Y-5089D01*
X31342Y-4428D01*
X30747Y-3845D01*
X30935Y-3449D01*
X31013Y-3285D01*
X31046Y-3119D01*
X31129Y-2700D01*
Y17700D01*
X31013Y18285D01*
X30681Y18781D01*
X26281Y23181D01*
X25785Y23513D01*
X25200Y23629D01*
X23383D01*
X22874Y23969D01*
X22100Y24123D01*
D02*
G37*
G36*
X-63000Y-2477D02*
X-63774Y-2631D01*
X-64431Y-3069D01*
X-64869Y-3726D01*
X-65023Y-4500D01*
X-64869Y-5274D01*
X-64431Y-5931D01*
X-63774Y-6369D01*
X-63000Y-6523D01*
X-62226Y-6369D01*
X-61569Y-5931D01*
X-61131Y-5274D01*
X-60977Y-4500D01*
X-61131Y-3726D01*
X-61569Y-3069D01*
X-62226Y-2631D01*
X-63000Y-2477D01*
D02*
G37*
G36*
X52591Y14091D02*
X51409D01*
X49962Y13901D01*
X48614Y13342D01*
X47456Y12454D01*
X46567Y11296D01*
X46009Y9947D01*
X45818Y8500D01*
X46009Y7053D01*
X46567Y5704D01*
X47075Y5043D01*
X46582Y4043D01*
X45866D01*
Y-7043D01*
X58134D01*
Y4043D01*
X57419D01*
X56925Y5043D01*
X57433Y5704D01*
X57991Y7053D01*
X58182Y8500D01*
X57991Y9947D01*
X57433Y11296D01*
X56544Y12454D01*
X55386Y13342D01*
X54038Y13901D01*
X52591Y14091D01*
D02*
G37*
G36*
X-65000Y-9477D02*
X-65774Y-9631D01*
X-66431Y-10069D01*
X-66869Y-10726D01*
X-67023Y-11500D01*
X-66869Y-12274D01*
X-66431Y-12931D01*
X-65774Y-13369D01*
X-65000Y-13523D01*
X-64226Y-13369D01*
X-63569Y-12931D01*
X-63131Y-12274D01*
X-62977Y-11500D01*
X-63131Y-10726D01*
X-63569Y-10069D01*
X-64226Y-9631D01*
X-65000Y-9477D01*
D02*
G37*
G36*
X60000Y-29977D02*
X59226Y-30131D01*
X58569Y-30569D01*
X58131Y-31226D01*
X57977Y-32000D01*
X58131Y-32774D01*
X58569Y-33431D01*
X59226Y-33869D01*
X60000Y-34023D01*
X60774Y-33869D01*
X61431Y-33431D01*
X61869Y-32774D01*
X62023Y-32000D01*
X61869Y-31226D01*
X61431Y-30569D01*
X60774Y-30131D01*
X60000Y-29977D01*
D02*
G37*
G36*
X47500Y-37077D02*
X46764Y-37224D01*
X46140Y-37640D01*
X45724Y-38264D01*
X45577Y-39000D01*
X45724Y-39736D01*
X46140Y-40360D01*
X46764Y-40776D01*
X47500Y-40923D01*
X48236Y-40776D01*
X48860Y-40360D01*
X49276Y-39736D01*
X49423Y-39000D01*
X49276Y-38264D01*
X48860Y-37640D01*
X48236Y-37224D01*
X47500Y-37077D01*
D02*
G37*
G36*
X-31500Y-51077D02*
X-32236Y-51224D01*
X-32860Y-51640D01*
X-33276Y-52264D01*
X-33423Y-53000D01*
X-33276Y-53736D01*
X-32860Y-54360D01*
X-32236Y-54776D01*
X-31500Y-54923D01*
X-30764Y-54776D01*
X-30140Y-54360D01*
X-29724Y-53736D01*
X-29577Y-53000D01*
X-29724Y-52264D01*
X-30140Y-51640D01*
X-30764Y-51224D01*
X-31500Y-51077D01*
D02*
G37*
G36*
X18249Y-52583D02*
X17475Y-52737D01*
X16819Y-53175D01*
X16380Y-53832D01*
X16226Y-54606D01*
X16380Y-55380D01*
X16819Y-56037D01*
X17475Y-56475D01*
X18249Y-56629D01*
X19023Y-56475D01*
X19680Y-56037D01*
X20118Y-55380D01*
X20272Y-54606D01*
X20118Y-53832D01*
X19680Y-53175D01*
X19023Y-52737D01*
X18249Y-52583D01*
D02*
G37*
G36*
X-7256Y-53477D02*
X-8030Y-53631D01*
X-8687Y-54069D01*
X-9125Y-54726D01*
X-9279Y-55500D01*
X-9125Y-56274D01*
X-8687Y-56931D01*
X-8030Y-57369D01*
X-7256Y-57523D01*
X-6482Y-57369D01*
X-5825Y-56931D01*
X-5387Y-56274D01*
X-5233Y-55500D01*
X-5387Y-54726D01*
X-5825Y-54069D01*
X-6482Y-53631D01*
X-7256Y-53477D01*
D02*
G37*
G36*
X39000Y-67477D02*
X38226Y-67631D01*
X37569Y-68069D01*
X37131Y-68726D01*
X36977Y-69500D01*
X37131Y-70274D01*
X37569Y-70931D01*
X38226Y-71369D01*
X39000Y-71523D01*
X39774Y-71369D01*
X40431Y-70931D01*
X40869Y-70274D01*
X41023Y-69500D01*
X40869Y-68726D01*
X40431Y-68069D01*
X39774Y-67631D01*
X39000Y-67477D01*
D02*
G37*
G36*
X26500Y-71977D02*
X25726Y-72131D01*
X25069Y-72569D01*
X24631Y-73226D01*
X24477Y-74000D01*
X24631Y-74774D01*
X25069Y-75431D01*
X25726Y-75869D01*
X26500Y-76023D01*
X27274Y-75869D01*
X27931Y-75431D01*
X28369Y-74774D01*
X28523Y-74000D01*
X28369Y-73226D01*
X27931Y-72569D01*
X27274Y-72131D01*
X26500Y-71977D01*
D02*
G37*
%LPD*%
G36*
X28071Y11529D02*
Y-2066D01*
X16119Y-14019D01*
X15787Y-14515D01*
X15671Y-15100D01*
Y-27717D01*
X15331Y-28226D01*
X15177Y-29000D01*
X15331Y-29774D01*
X15769Y-30431D01*
X16426Y-30869D01*
X17200Y-31023D01*
X17974Y-30869D01*
X18631Y-30431D01*
X19069Y-29774D01*
X19223Y-29000D01*
X19069Y-28226D01*
X18729Y-27717D01*
Y-15733D01*
X28976Y-5487D01*
X29900Y-5869D01*
Y-41500D01*
X25436Y-45964D01*
X24414Y-45736D01*
X24325Y-45660D01*
X23931Y-45069D01*
X23274Y-44631D01*
X22500Y-44477D01*
X21726Y-44631D01*
X21069Y-45069D01*
X20631Y-45726D01*
X20477Y-46500D01*
X20631Y-47274D01*
X20782Y-47500D01*
X20259Y-48500D01*
X-20900D01*
X-39195Y-30205D01*
X-39069Y-28931D01*
X-38631Y-28274D01*
X-38477Y-27500D01*
X-38631Y-26726D01*
X-39069Y-26069D01*
X-39726Y-25631D01*
X-40500Y-25477D01*
X-41274Y-25631D01*
X-41930Y-26069D01*
X-43205Y-26195D01*
X-45200Y-24200D01*
Y5700D01*
X-35500Y15400D01*
X-6151D01*
X-5931Y15069D01*
X-5274Y14631D01*
X-4500Y14477D01*
X-3726Y14631D01*
X-3069Y15069D01*
X-2849Y15400D01*
X16500D01*
X16764Y15224D01*
X17500Y15077D01*
X18236Y15224D01*
X18500Y15400D01*
X24200D01*
X28071Y11529D01*
D02*
G37*
%LPC*%
G36*
X-10000Y12523D02*
X-10774Y12369D01*
X-11431Y11931D01*
X-11869Y11274D01*
X-12023Y10500D01*
X-11869Y9726D01*
X-11431Y9069D01*
X-10774Y8631D01*
X-10000Y8477D01*
X-9226Y8631D01*
X-8569Y9069D01*
X-8131Y9726D01*
X-7977Y10500D01*
X-8131Y11274D01*
X-8569Y11931D01*
X-9226Y12369D01*
X-10000Y12523D01*
D02*
G37*
G36*
X22500Y5023D02*
X21726Y4869D01*
X21069Y4431D01*
X20631Y3774D01*
X20477Y3000D01*
X20631Y2226D01*
X21069Y1569D01*
X21726Y1131D01*
X22500Y977D01*
X23274Y1131D01*
X23931Y1569D01*
X24369Y2226D01*
X24523Y3000D01*
X24369Y3774D01*
X23931Y4431D01*
X23274Y4869D01*
X22500Y5023D01*
D02*
G37*
G36*
X-27000Y-477D02*
X-27774Y-631D01*
X-28431Y-1069D01*
X-28869Y-1726D01*
X-29023Y-2500D01*
X-28869Y-3274D01*
X-28431Y-3931D01*
X-27774Y-4369D01*
X-27000Y-4523D01*
X-26226Y-4369D01*
X-25569Y-3931D01*
X-25131Y-3274D01*
X-24977Y-2500D01*
X-25131Y-1726D01*
X-25569Y-1069D01*
X-26226Y-631D01*
X-27000Y-477D01*
D02*
G37*
G36*
X18194Y-3217D02*
X17420Y-3371D01*
X16763Y-3809D01*
X16325Y-4466D01*
X16171Y-5240D01*
X16325Y-6014D01*
X16763Y-6670D01*
X17420Y-7109D01*
X18194Y-7263D01*
X18968Y-7109D01*
X19625Y-6670D01*
X20063Y-6014D01*
X20217Y-5240D01*
X20063Y-4466D01*
X19625Y-3809D01*
X18968Y-3371D01*
X18194Y-3217D01*
D02*
G37*
G36*
X-7311Y-4111D02*
X-8085Y-4265D01*
X-8742Y-4703D01*
X-9180Y-5360D01*
X-9334Y-6134D01*
X-9180Y-6908D01*
X-8742Y-7564D01*
X-8085Y-8003D01*
X-7311Y-8157D01*
X-6537Y-8003D01*
X-5880Y-7564D01*
X-5442Y-6908D01*
X-5288Y-6134D01*
X-5442Y-5360D01*
X-5880Y-4703D01*
X-6537Y-4265D01*
X-7311Y-4111D01*
D02*
G37*
G36*
X17346Y13869D02*
X16572Y13715D01*
X15915Y13276D01*
X15477Y12620D01*
X15358Y12020D01*
X8019Y4681D01*
X7687Y4185D01*
X7571Y3600D01*
Y-12071D01*
X-8517D01*
X-9026Y-11731D01*
X-9800Y-11577D01*
X-10574Y-11731D01*
X-11231Y-12169D01*
X-11669Y-12826D01*
X-11823Y-13600D01*
X-11669Y-14374D01*
X-11231Y-15031D01*
X-10574Y-15469D01*
X-9800Y-15623D01*
X-9026Y-15469D01*
X-8517Y-15129D01*
X7571D01*
Y-28900D01*
X7687Y-29485D01*
X8019Y-29981D01*
X15512Y-37475D01*
X15631Y-38074D01*
X16069Y-38731D01*
X16726Y-39169D01*
X17500Y-39323D01*
X18274Y-39169D01*
X18931Y-38731D01*
X19369Y-38074D01*
X19523Y-37300D01*
X19369Y-36526D01*
X18931Y-35869D01*
X18274Y-35431D01*
X17674Y-35312D01*
X10629Y-28267D01*
Y-13600D01*
Y2967D01*
X17520Y9858D01*
X18120Y9977D01*
X18776Y10415D01*
X19215Y11072D01*
X19369Y11846D01*
X19215Y12620D01*
X18776Y13276D01*
X18120Y13715D01*
X17346Y13869D01*
D02*
G37*
G36*
X-21500Y-23577D02*
X-22236Y-23724D01*
X-22860Y-24140D01*
X-23276Y-24764D01*
X-23423Y-25500D01*
X-23276Y-26236D01*
X-22860Y-26860D01*
X-22236Y-27276D01*
X-21500Y-27423D01*
X-20764Y-27276D01*
X-20140Y-26860D01*
X-19724Y-26236D01*
X-19577Y-25500D01*
X-19724Y-24764D01*
X-20140Y-24140D01*
X-20764Y-23724D01*
X-21500Y-23577D01*
D02*
G37*
G36*
X-6500Y-30077D02*
X-7236Y-30224D01*
X-7860Y-30640D01*
X-8276Y-31264D01*
X-8423Y-32000D01*
X-8276Y-32736D01*
X-7860Y-33360D01*
X-7236Y-33776D01*
X-6500Y-33923D01*
X-5764Y-33776D01*
X-5140Y-33360D01*
X-4724Y-32736D01*
X-4577Y-32000D01*
X-4724Y-31264D01*
X-5140Y-30640D01*
X-5764Y-30224D01*
X-6500Y-30077D01*
D02*
G37*
%LPD*%
D13*
X22100Y22100D02*
X25200D01*
X29600Y17700D01*
Y-2700D02*
Y17700D01*
X17200Y-15100D02*
X29600Y-2700D01*
X17200Y-29000D02*
Y-15100D01*
X9100Y-13600D02*
Y3600D01*
Y-28900D02*
Y-13600D01*
X-9800D02*
X9100D01*
Y3600D02*
X17346Y11846D01*
X9100Y-28900D02*
X17500Y-37300D01*
D84*
X66500Y28500D02*
D03*
D87*
X-34238Y74361D02*
D03*
D92*
X52000Y-11500D02*
D03*
X66000D02*
D03*
X59000D02*
D03*
D93*
X-72500Y-28500D02*
D03*
X21000Y-77500D02*
D03*
X22100Y22100D02*
D03*
X17200Y-29000D02*
D03*
X-9800Y-13600D02*
D03*
X17500Y-37300D02*
D03*
X-41800Y3700D02*
D03*
X-10000Y-42700D02*
D03*
X-34827Y-27800D02*
D03*
X22500Y-41563D02*
D03*
X21000Y-25000D02*
D03*
X17346Y11846D02*
D03*
X23000Y8000D02*
D03*
X-15000Y3000D02*
D03*
X-10535Y6598D02*
D03*
X-35700Y61200D02*
D03*
X-37300Y56600D02*
D03*
X-28300Y43500D02*
D03*
X-20500Y68500D02*
D03*
M02*
