G04*
G04 #@! TF.GenerationSoftware,Altium Limited,Altium Designer,20.0.13 (296)*
G04*
G04 Layer_Physical_Order=4*
G04 Layer_Color=16711680*
%FSLAX25Y25*%
%MOIN*%
G70*
G01*
G75*
%ADD10C,0.00600*%
%ADD13C,0.01000*%
G04:AMPARAMS|DCode=14|XSize=57.13mil|YSize=45.32mil|CornerRadius=11.33mil|HoleSize=0mil|Usage=FLASHONLY|Rotation=270.000|XOffset=0mil|YOffset=0mil|HoleType=Round|Shape=RoundedRectangle|*
%AMROUNDEDRECTD14*
21,1,0.05713,0.02266,0,0,270.0*
21,1,0.03447,0.04532,0,0,270.0*
1,1,0.02266,-0.01133,-0.01723*
1,1,0.02266,-0.01133,0.01723*
1,1,0.02266,0.01133,0.01723*
1,1,0.02266,0.01133,-0.01723*
%
%ADD14ROUNDEDRECTD14*%
%ADD15R,0.10236X0.04331*%
G04:AMPARAMS|DCode=18|XSize=35.43mil|YSize=29.53mil|CornerRadius=7.38mil|HoleSize=0mil|Usage=FLASHONLY|Rotation=90.000|XOffset=0mil|YOffset=0mil|HoleType=Round|Shape=RoundedRectangle|*
%AMROUNDEDRECTD18*
21,1,0.03543,0.01476,0,0,90.0*
21,1,0.02067,0.02953,0,0,90.0*
1,1,0.01476,0.00738,0.01034*
1,1,0.01476,0.00738,-0.01034*
1,1,0.01476,-0.00738,-0.01034*
1,1,0.01476,-0.00738,0.01034*
%
%ADD18ROUNDEDRECTD18*%
G04:AMPARAMS|DCode=19|XSize=35.43mil|YSize=29.53mil|CornerRadius=7.38mil|HoleSize=0mil|Usage=FLASHONLY|Rotation=180.000|XOffset=0mil|YOffset=0mil|HoleType=Round|Shape=RoundedRectangle|*
%AMROUNDEDRECTD19*
21,1,0.03543,0.01476,0,0,180.0*
21,1,0.02067,0.02953,0,0,180.0*
1,1,0.01476,-0.01034,0.00738*
1,1,0.01476,0.01034,0.00738*
1,1,0.01476,0.01034,-0.00738*
1,1,0.01476,-0.01034,-0.00738*
%
%ADD19ROUNDEDRECTD19*%
%ADD20R,0.04331X0.10236*%
G04:AMPARAMS|DCode=22|XSize=35.43mil|YSize=29.53mil|CornerRadius=7.38mil|HoleSize=0mil|Usage=FLASHONLY|Rotation=300.000|XOffset=0mil|YOffset=0mil|HoleType=Round|Shape=RoundedRectangle|*
%AMROUNDEDRECTD22*
21,1,0.03543,0.01476,0,0,300.0*
21,1,0.02067,0.02953,0,0,300.0*
1,1,0.01476,-0.00123,-0.01264*
1,1,0.01476,-0.01156,0.00526*
1,1,0.01476,0.00123,0.01264*
1,1,0.01476,0.01156,-0.00526*
%
%ADD22ROUNDEDRECTD22*%
%ADD78C,0.02000*%
%ADD79C,0.00800*%
%ADD80C,0.01500*%
%ADD82O,0.08268X0.07087*%
%ADD83R,0.08268X0.07087*%
%ADD84O,0.07087X0.08268*%
%ADD85R,0.07087X0.08268*%
G04:AMPARAMS|DCode=86|XSize=35.43mil|YSize=31.5mil|CornerRadius=0mil|HoleSize=0mil|Usage=FLASHONLY|Rotation=120.000|XOffset=0mil|YOffset=0mil|HoleType=Round|Shape=Rectangle|*
%AMROTATEDRECTD86*
4,1,4,0.02250,-0.00747,-0.00478,-0.02322,-0.02250,0.00747,0.00478,0.02322,0.02250,-0.00747,0.0*
%
%ADD86ROTATEDRECTD86*%

G04:AMPARAMS|DCode=87|XSize=35.43mil|YSize=31.5mil|CornerRadius=0mil|HoleSize=0mil|Usage=FLASHONLY|Rotation=120.000|XOffset=0mil|YOffset=0mil|HoleType=Round|Shape=Round|*
%AMOVALD87*
21,1,0.00394,0.03150,0.00000,0.00000,120.0*
1,1,0.03150,0.00098,-0.00171*
1,1,0.03150,-0.00098,0.00171*
%
%ADD87OVALD87*%

G04:AMPARAMS|DCode=88|XSize=70.87mil|YSize=82.68mil|CornerRadius=0mil|HoleSize=0mil|Usage=FLASHONLY|Rotation=40.000|XOffset=0mil|YOffset=0mil|HoleType=Round|Shape=Round|*
%AMOVALD88*
21,1,0.01181,0.07087,0.00000,0.00000,130.0*
1,1,0.07087,0.00380,-0.00452*
1,1,0.07087,-0.00380,0.00452*
%
%ADD88OVALD88*%

G04:AMPARAMS|DCode=89|XSize=70.87mil|YSize=82.68mil|CornerRadius=0mil|HoleSize=0mil|Usage=FLASHONLY|Rotation=40.000|XOffset=0mil|YOffset=0mil|HoleType=Round|Shape=Rectangle|*
%AMROTATEDRECTD89*
4,1,4,-0.00057,-0.05444,-0.05372,0.00889,0.00057,0.05444,0.05372,-0.00889,-0.00057,-0.05444,0.0*
%
%ADD89ROTATEDRECTD89*%

%ADD90C,0.11811*%
%ADD91C,0.01772*%
%ADD92C,0.01968*%
G04:AMPARAMS|DCode=93|XSize=23.62mil|YSize=39.37mil|CornerRadius=5.91mil|HoleSize=0mil|Usage=FLASHONLY|Rotation=0.000|XOffset=0mil|YOffset=0mil|HoleType=Round|Shape=RoundedRectangle|*
%AMROUNDEDRECTD93*
21,1,0.02362,0.02756,0,0,0.0*
21,1,0.01181,0.03937,0,0,0.0*
1,1,0.01181,0.00591,-0.01378*
1,1,0.01181,-0.00591,-0.01378*
1,1,0.01181,-0.00591,0.01378*
1,1,0.01181,0.00591,0.01378*
%
%ADD93ROUNDEDRECTD93*%
G04:AMPARAMS|DCode=94|XSize=23.62mil|YSize=39.37mil|CornerRadius=5.91mil|HoleSize=0mil|Usage=FLASHONLY|Rotation=90.000|XOffset=0mil|YOffset=0mil|HoleType=Round|Shape=RoundedRectangle|*
%AMROUNDEDRECTD94*
21,1,0.02362,0.02756,0,0,90.0*
21,1,0.01181,0.03937,0,0,90.0*
1,1,0.01181,0.01378,0.00591*
1,1,0.01181,0.01378,-0.00591*
1,1,0.01181,-0.01378,-0.00591*
1,1,0.01181,-0.01378,0.00591*
%
%ADD94ROUNDEDRECTD94*%
G04:AMPARAMS|DCode=95|XSize=15.75mil|YSize=33.47mil|CornerRadius=1.97mil|HoleSize=0mil|Usage=FLASHONLY|Rotation=90.000|XOffset=0mil|YOffset=0mil|HoleType=Round|Shape=RoundedRectangle|*
%AMROUNDEDRECTD95*
21,1,0.01575,0.02953,0,0,90.0*
21,1,0.01181,0.03347,0,0,90.0*
1,1,0.00394,0.01476,0.00591*
1,1,0.00394,0.01476,-0.00591*
1,1,0.00394,-0.01476,-0.00591*
1,1,0.00394,-0.01476,0.00591*
%
%ADD95ROUNDEDRECTD95*%
G04:AMPARAMS|DCode=96|XSize=57.13mil|YSize=45.32mil|CornerRadius=11.33mil|HoleSize=0mil|Usage=FLASHONLY|Rotation=180.000|XOffset=0mil|YOffset=0mil|HoleType=Round|Shape=RoundedRectangle|*
%AMROUNDEDRECTD96*
21,1,0.05713,0.02266,0,0,180.0*
21,1,0.03447,0.04532,0,0,180.0*
1,1,0.02266,-0.01723,0.01133*
1,1,0.02266,0.01723,0.01133*
1,1,0.02266,0.01723,-0.01133*
1,1,0.02266,-0.01723,-0.01133*
%
%ADD96ROUNDEDRECTD96*%
G04:AMPARAMS|DCode=97|XSize=15.75mil|YSize=33.47mil|CornerRadius=1.97mil|HoleSize=0mil|Usage=FLASHONLY|Rotation=0.000|XOffset=0mil|YOffset=0mil|HoleType=Round|Shape=RoundedRectangle|*
%AMROUNDEDRECTD97*
21,1,0.01575,0.02953,0,0,0.0*
21,1,0.01181,0.03347,0,0,0.0*
1,1,0.00394,0.00591,-0.01476*
1,1,0.00394,-0.00591,-0.01476*
1,1,0.00394,-0.00591,0.01476*
1,1,0.00394,0.00591,0.01476*
%
%ADD97ROUNDEDRECTD97*%
%ADD98R,0.02362X0.03937*%
G04:AMPARAMS|DCode=99|XSize=23.62mil|YSize=39.37mil|CornerRadius=2.01mil|HoleSize=0mil|Usage=FLASHONLY|Rotation=90.000|XOffset=0mil|YOffset=0mil|HoleType=Round|Shape=RoundedRectangle|*
%AMROUNDEDRECTD99*
21,1,0.02362,0.03535,0,0,90.0*
21,1,0.01961,0.03937,0,0,90.0*
1,1,0.00402,0.01768,0.00980*
1,1,0.00402,0.01768,-0.00980*
1,1,0.00402,-0.01768,-0.00980*
1,1,0.00402,-0.01768,0.00980*
%
%ADD99ROUNDEDRECTD99*%
G36*
X16499Y82968D02*
X16499Y82968D01*
X16499Y82968D01*
X17471Y82759D01*
X18007Y82634D01*
X17914Y81629D01*
X17085Y81593D01*
X15944Y81233D01*
X15361Y80862D01*
X18322Y77332D01*
X21450Y79957D01*
X21391Y80026D01*
X20509Y80834D01*
X19848Y81178D01*
X20197Y82124D01*
X21898Y81727D01*
X27196Y80120D01*
X32378Y78170D01*
X37421Y75885D01*
X42304Y73275D01*
X47006Y70351D01*
X51506Y67126D01*
X55786Y63614D01*
X59827Y59829D01*
X63612Y55788D01*
X67124Y51508D01*
X70349Y47007D01*
X73273Y42305D01*
X75883Y37423D01*
X78168Y32379D01*
X80119Y27198D01*
X81726Y21899D01*
X82983Y16507D01*
X83315Y14496D01*
X82430Y13718D01*
X80709Y13854D01*
X78541Y13683D01*
X76428Y13176D01*
X74419Y12344D01*
X72566Y11208D01*
X70913Y9796D01*
X69501Y8143D01*
X68365Y6289D01*
X67533Y4281D01*
X67026Y2167D01*
X66855Y0D01*
X67026Y-2167D01*
X67533Y-4281D01*
X68365Y-6289D01*
X69501Y-8143D01*
X70913Y-9796D01*
X72566Y-11208D01*
X73890Y-12020D01*
X73608Y-13020D01*
X68002D01*
X67936Y-12020D01*
X68039Y-11500D01*
X67884Y-10720D01*
X67442Y-10058D01*
X66780Y-9616D01*
X66000Y-9461D01*
X65220Y-9616D01*
X64558Y-10058D01*
X64440Y-10176D01*
X63998Y-10838D01*
X63843Y-11618D01*
Y-13020D01*
X61039D01*
Y-11500D01*
X60884Y-10720D01*
X60442Y-10058D01*
X59780Y-9616D01*
X59000Y-9461D01*
X58220Y-9616D01*
X57558Y-10058D01*
X57116Y-10720D01*
X56961Y-11500D01*
Y-13020D01*
X54039D01*
Y-11500D01*
X53884Y-10720D01*
X53442Y-10058D01*
X52780Y-9616D01*
X52000Y-9461D01*
X51220Y-9616D01*
X50558Y-10058D01*
X50116Y-10720D01*
X49961Y-11500D01*
Y-13020D01*
X44382D01*
Y-18756D01*
X44382Y-19350D01*
X45000Y-20094D01*
Y-23500D01*
X55750D01*
X56000Y-23500D01*
X56750D01*
X57000Y-23500D01*
X67500D01*
X67750Y-23500D01*
X68500D01*
X68750Y-23500D01*
X79500D01*
Y-20094D01*
X80118Y-19350D01*
X80118Y-18756D01*
Y-14400D01*
X80709Y-13854D01*
X82430Y-13718D01*
X83315Y-14496D01*
X82983Y-16506D01*
X81726Y-21898D01*
X80408Y-26242D01*
X80077Y-27185D01*
X79709Y-28033D01*
X79426Y-28563D01*
X78698Y-29450D01*
X77811Y-30178D01*
X76799Y-30719D01*
X75701Y-31052D01*
X74560Y-31164D01*
X73418Y-31052D01*
X72834Y-30875D01*
X72823Y-30912D01*
X72823D01*
X72823Y-30912D01*
X72716Y-30891D01*
X71831Y-30622D01*
X69895Y-30432D01*
X67959Y-30622D01*
X66098Y-31187D01*
X64383Y-32104D01*
X62879Y-33338D01*
X61645Y-34841D01*
X60728Y-36557D01*
X60164Y-38418D01*
X59973Y-40354D01*
X60164Y-42289D01*
X60728Y-44150D01*
X61645Y-45866D01*
X62879Y-47369D01*
X63163Y-47631D01*
X63339Y-47776D01*
X64067Y-48663D01*
X64608Y-49674D01*
X64941Y-50772D01*
X65053Y-51914D01*
X64941Y-53056D01*
X64608Y-54154D01*
X64158Y-54994D01*
X63582Y-55756D01*
X62930Y-56514D01*
X59827Y-59827D01*
X58340Y-61220D01*
X57422Y-60823D01*
Y-51757D01*
X56707D01*
X56213Y-50757D01*
X56721Y-50095D01*
X57279Y-48747D01*
X57470Y-47300D01*
X57279Y-45853D01*
X56721Y-44504D01*
X55832Y-43346D01*
X54674Y-42458D01*
X53326Y-41899D01*
X52614Y-41805D01*
Y-35233D01*
X52513Y-34726D01*
X52226Y-34296D01*
X48992Y-31063D01*
X48562Y-30775D01*
X48055Y-30674D01*
X40113D01*
X39977Y-29992D01*
X39505Y-29286D01*
X38800Y-28815D01*
X37968Y-28649D01*
X34521D01*
X33689Y-28815D01*
X32983Y-29286D01*
X32505D01*
X31800Y-28815D01*
X30968Y-28649D01*
X28262D01*
X27531Y-27919D01*
X27035Y-27587D01*
X26449Y-27471D01*
X22674D01*
X22371Y-26471D01*
X22431Y-26431D01*
X22869Y-25774D01*
X23023Y-25000D01*
X22869Y-24226D01*
X22431Y-23569D01*
X21774Y-23131D01*
X21000Y-22977D01*
X20226Y-23131D01*
X20099Y-23216D01*
X18925D01*
X18787Y-23009D01*
X18212Y-22625D01*
X17534Y-22490D01*
X15466D01*
X14788Y-22625D01*
X14213Y-23009D01*
X14209Y-23016D01*
X12852D01*
X12769Y-22601D01*
X12418Y-22075D01*
X11891Y-21724D01*
X11271Y-21600D01*
X10090D01*
X9469Y-21724D01*
X8943Y-22075D01*
X8591Y-22601D01*
X8468Y-23222D01*
Y-25978D01*
X8546Y-26369D01*
X7720Y-26957D01*
X5694Y-24931D01*
X5412Y-24743D01*
Y-23222D01*
X5289Y-22601D01*
X4937Y-22075D01*
X4411Y-21724D01*
X3791Y-21600D01*
X2609D01*
X1989Y-21724D01*
X1463Y-22075D01*
X1111Y-22601D01*
X988Y-23222D01*
Y-23471D01*
X-303D01*
X-329Y-23339D01*
X-713Y-22765D01*
X-1288Y-22380D01*
X-1966Y-22245D01*
X-4033D01*
X-4712Y-22380D01*
X-5287Y-22765D01*
X-5671Y-23339D01*
X-5697Y-23471D01*
X-10500D01*
X-11085Y-23587D01*
X-11581Y-23919D01*
X-20822Y-33160D01*
X-22649D01*
Y-32966D01*
X-22815Y-32133D01*
X-23286Y-31428D01*
X-23992Y-30956D01*
X-24824Y-30791D01*
X-27090D01*
X-27922Y-30956D01*
X-28627Y-31428D01*
X-28821Y-31718D01*
X-29773Y-31772D01*
X-29858Y-31762D01*
X-30200Y-30990D01*
X-29998Y-30476D01*
X-29865Y-30387D01*
X-29480Y-29812D01*
X-29346Y-29133D01*
Y-27066D01*
X-29480Y-26388D01*
X-29865Y-25813D01*
X-30439Y-25429D01*
X-31118Y-25294D01*
X-31958D01*
X-32003Y-25274D01*
X-32488Y-24294D01*
X-32311Y-24063D01*
X-32004Y-24002D01*
X-31508Y-23670D01*
X-22866Y-15029D01*
X-17664D01*
X-17525Y-15237D01*
X-16999Y-15589D01*
X-16378Y-15712D01*
X-16274D01*
Y-17405D01*
X-16735Y-17713D01*
X-17120Y-18288D01*
X-17255Y-18967D01*
Y-21034D01*
X-17120Y-21712D01*
X-16735Y-22287D01*
X-16161Y-22671D01*
X-15482Y-22806D01*
X-14006D01*
X-13328Y-22671D01*
X-12753Y-22287D01*
X-12369Y-21712D01*
X-12234Y-21034D01*
Y-18967D01*
X-12369Y-18288D01*
X-12753Y-17713D01*
X-13215Y-17405D01*
Y-15631D01*
X-13001Y-15589D01*
X-12475Y-15237D01*
X-12370Y-15079D01*
X-11157D01*
X-10574Y-15469D01*
X-9800Y-15623D01*
X-9026Y-15469D01*
X-8369Y-15031D01*
X-7931Y-14374D01*
X-7777Y-13600D01*
X-7931Y-12826D01*
X-8132Y-12525D01*
X-7931Y-11576D01*
X-7786Y-11380D01*
X-7332Y-11076D01*
X-7123Y-10764D01*
X-6933Y-10710D01*
X-6201D01*
X-6011Y-10764D01*
X-5802Y-11076D01*
X-5227Y-11461D01*
X-4549Y-11596D01*
X-3073D01*
X-2395Y-11461D01*
X-1820Y-11076D01*
X-1656Y-10831D01*
X-1405Y-10771D01*
X-595Y-10813D01*
X-545Y-10831D01*
X-314Y-11176D01*
X261Y-11561D01*
X939Y-11695D01*
X2415D01*
X3094Y-11561D01*
X3669Y-11176D01*
X4053Y-10601D01*
X4188Y-9923D01*
Y-7856D01*
X4160Y-7719D01*
X4387Y-7379D01*
X4488Y-6872D01*
Y-5360D01*
X4639D01*
X5106Y-5267D01*
X5502Y-5002D01*
X5766Y-4606D01*
X5859Y-4139D01*
Y-2958D01*
X5766Y-2491D01*
X5502Y-2095D01*
X5106Y-1831D01*
X4639Y-1738D01*
X1686D01*
X1219Y-1831D01*
X823Y-2095D01*
X558Y-2491D01*
X465Y-2958D01*
Y-4139D01*
X558Y-4606D01*
X823Y-5002D01*
X945Y-5084D01*
X942Y-5570D01*
X765Y-6119D01*
X261Y-6219D01*
X-314Y-6603D01*
X-478Y-6848D01*
X-729Y-6908D01*
X-1539Y-6867D01*
X-1589Y-6848D01*
X-1820Y-6503D01*
X-2395Y-6119D01*
X-3037Y-5991D01*
X-3101Y-5888D01*
X-3357Y-5002D01*
X-3092Y-4606D01*
X-2999Y-4139D01*
Y-2958D01*
X-3092Y-2491D01*
X-3357Y-2095D01*
X-3753Y-1831D01*
X-4220Y-1738D01*
X-7172D01*
X-7639Y-1831D01*
X-8035Y-2095D01*
X-8300Y-2491D01*
X-8393Y-2958D01*
Y-4139D01*
X-8335Y-4431D01*
X-8742Y-4703D01*
X-9180Y-5360D01*
X-9304Y-5984D01*
X-10061D01*
X-10739Y-6119D01*
X-11000Y-6293D01*
X-11969Y-5881D01*
X-12000Y-5850D01*
Y-5429D01*
X-12124Y-4809D01*
X-12475Y-4282D01*
X-13001Y-3931D01*
X-13346Y-3862D01*
Y-2674D01*
X-13328Y-2671D01*
X-12753Y-2287D01*
X-12369Y-1712D01*
X-12234Y-1034D01*
Y1034D01*
X-12369Y1712D01*
X-12753Y2287D01*
X-13076Y2503D01*
X-12977Y3000D01*
X-13079Y3618D01*
X-13079D01*
Y4814D01*
X-11437D01*
X-11310Y4729D01*
X-10535Y4575D01*
X-9761Y4729D01*
X-9634Y4814D01*
X-8228D01*
X-8098Y4619D01*
X-7595Y4283D01*
Y3296D01*
X-7639Y3287D01*
X-8035Y3023D01*
X-8300Y2627D01*
X-8393Y2160D01*
Y979D01*
X-8300Y512D01*
X-8035Y116D01*
X-7639Y-149D01*
X-7172Y-242D01*
X-4220D01*
X-3753Y-149D01*
X-3357Y116D01*
X-3092Y512D01*
X-2999Y979D01*
Y2160D01*
X-3092Y2627D01*
X-3357Y3023D01*
X-3753Y3287D01*
X-4025Y3342D01*
X-4026Y4284D01*
X-3524Y4619D01*
X-3140Y5194D01*
X-3005Y5872D01*
Y7348D01*
X-3140Y8027D01*
X-3524Y8602D01*
X-4099Y8986D01*
X-4778Y9121D01*
X-6844D01*
X-7523Y8986D01*
X-8098Y8602D01*
X-8244Y8383D01*
X-9634D01*
X-9761Y8467D01*
X-10535Y8621D01*
X-11310Y8467D01*
X-11437Y8383D01*
X-13079D01*
Y9555D01*
X-17441D01*
Y3618D01*
X-17441D01*
X-16985Y2807D01*
X-16914Y2452D01*
Y2019D01*
X-17120Y1712D01*
X-17255Y1034D01*
Y-1034D01*
X-17120Y-1712D01*
X-16914Y-2019D01*
Y-3914D01*
X-16999Y-3931D01*
X-17525Y-4282D01*
X-17876Y-4809D01*
X-18000Y-5429D01*
Y-6610D01*
X-17876Y-7231D01*
X-17525Y-7757D01*
X-16999Y-8108D01*
X-16378Y-8232D01*
X-13622D01*
X-13001Y-8108D01*
X-12833Y-7996D01*
X-11833Y-8459D01*
Y-9823D01*
X-11698Y-10501D01*
X-11691Y-10512D01*
X-11798Y-11102D01*
X-12130Y-11611D01*
X-12626Y-11662D01*
X-13001Y-11411D01*
X-13622Y-11288D01*
X-16378D01*
X-16999Y-11411D01*
X-17525Y-11763D01*
X-17664Y-11971D01*
X-23500D01*
X-24085Y-12087D01*
X-24581Y-12419D01*
X-32779Y-20616D01*
X-33692Y-20354D01*
X-33735Y-20199D01*
Y-19467D01*
X-33682Y-19277D01*
X-33369Y-19069D01*
X-32985Y-18494D01*
X-32850Y-17815D01*
Y-16339D01*
X-32964Y-15765D01*
X-32704Y-15335D01*
X-32307Y-14876D01*
X-32189Y-14899D01*
X-30122D01*
X-29444Y-14764D01*
X-28869Y-14380D01*
X-28485Y-13805D01*
X-28350Y-13127D01*
Y-11651D01*
X-28485Y-10973D01*
X-28869Y-10398D01*
X-29444Y-10013D01*
X-30122Y-9878D01*
X-32189D01*
X-32868Y-10013D01*
X-33456Y-10389D01*
X-34044Y-10013D01*
X-34722Y-9878D01*
X-36789D01*
X-37468Y-10013D01*
X-38043Y-10398D01*
X-38427Y-10973D01*
X-38562Y-11651D01*
Y-11906D01*
X-39562Y-12440D01*
X-39700Y-12348D01*
X-40471Y-12194D01*
Y-11087D01*
X-40343Y-11001D01*
X-40079Y-10606D01*
X-39986Y-10139D01*
Y-7186D01*
X-40079Y-6719D01*
X-40343Y-6323D01*
X-40739Y-6058D01*
X-41206Y-5965D01*
X-42387D01*
X-42854Y-6058D01*
X-43250Y-6323D01*
X-43515Y-6719D01*
X-43608Y-7186D01*
Y-10139D01*
X-43515Y-10606D01*
X-43250Y-11001D01*
X-43122Y-11087D01*
Y-12182D01*
X-43979D01*
X-44811Y-12348D01*
X-45517Y-12819D01*
X-45989Y-13525D01*
X-46154Y-14357D01*
Y-16623D01*
X-45989Y-17455D01*
X-45517Y-18160D01*
X-45042Y-18477D01*
X-44972Y-18768D01*
Y-19298D01*
X-45042Y-19589D01*
X-45517Y-19906D01*
X-45989Y-20611D01*
X-46154Y-21443D01*
Y-23709D01*
X-45989Y-24542D01*
X-45517Y-25247D01*
X-45099Y-25526D01*
X-44672Y-26572D01*
X-44765Y-27038D01*
Y-27593D01*
X-45765Y-27692D01*
X-45768Y-27681D01*
X-46239Y-26975D01*
X-46944Y-26504D01*
X-47777Y-26338D01*
X-51223D01*
X-52056Y-26504D01*
X-52761Y-26975D01*
X-53739D01*
X-54444Y-26504D01*
X-55277Y-26338D01*
X-58723D01*
X-59556Y-26504D01*
X-60261Y-26975D01*
X-60733Y-27681D01*
X-60898Y-28513D01*
Y-30779D01*
X-60733Y-31611D01*
X-60261Y-32316D01*
X-59786Y-32633D01*
X-59716Y-32924D01*
Y-33454D01*
X-59786Y-33744D01*
X-60261Y-34062D01*
X-60633Y-34617D01*
X-61216Y-34746D01*
X-61743Y-34724D01*
X-62881Y-33338D01*
X-64384Y-32104D01*
X-66100Y-31187D01*
X-67961Y-30622D01*
X-69897Y-30432D01*
X-70203Y-30462D01*
X-70771Y-29513D01*
X-70616Y-29280D01*
X-70461Y-28500D01*
Y-27268D01*
X-69831Y-26500D01*
X-68500D01*
Y-15500D01*
X-72500D01*
X-72650Y-14882D01*
X-78980D01*
Y-27118D01*
X-75533D01*
X-74539Y-28112D01*
Y-28500D01*
X-74384Y-29280D01*
X-73942Y-29942D01*
X-73738Y-30078D01*
X-73996Y-31109D01*
X-74561Y-31164D01*
X-75703Y-31052D01*
X-76801Y-30719D01*
X-77813Y-30178D01*
X-78699Y-29450D01*
X-79427Y-28563D01*
X-79968Y-27552D01*
X-80079Y-27185D01*
X-80410Y-26242D01*
X-81727Y-21898D01*
X-82985Y-16506D01*
X-83316Y-14496D01*
X-82431Y-13718D01*
X-80709Y-13854D01*
X-78541Y-13683D01*
X-76428Y-13176D01*
X-74419Y-12344D01*
X-72566Y-11208D01*
X-70913Y-9796D01*
X-69501Y-8143D01*
X-68365Y-6289D01*
X-67533Y-4281D01*
X-67026Y-2167D01*
X-66855Y0D01*
X-67026Y2167D01*
X-67533Y4281D01*
X-68365Y6289D01*
X-69501Y8143D01*
X-70913Y9796D01*
X-72566Y11208D01*
X-74419Y12344D01*
X-76428Y13176D01*
X-78541Y13683D01*
X-80709Y13854D01*
X-82432Y13718D01*
X-83317Y14495D01*
X-82985Y16507D01*
X-81727Y21899D01*
X-80120Y27198D01*
X-78170Y32379D01*
X-75885Y37423D01*
X-73275Y42305D01*
X-70351Y47007D01*
X-69206Y48606D01*
X-68206Y48284D01*
Y47818D01*
X-68071Y47139D01*
X-67687Y46565D01*
X-67374Y46356D01*
X-67321Y46166D01*
Y45434D01*
X-67374Y45244D01*
X-67687Y45035D01*
X-68071Y44460D01*
X-68206Y43782D01*
Y42306D01*
X-68071Y41628D01*
X-68919Y41155D01*
X-69169Y41531D01*
X-69826Y41969D01*
X-70600Y42123D01*
X-71374Y41969D01*
X-72031Y41531D01*
X-72469Y40874D01*
X-72623Y40100D01*
X-72469Y39326D01*
X-72031Y38669D01*
X-71374Y38231D01*
X-70600Y38077D01*
X-70476Y38102D01*
X-66997Y34623D01*
X-66567Y34335D01*
X-66060Y34234D01*
X-62737D01*
X-62712Y34111D01*
X-62447Y33714D01*
X-62050Y33448D01*
X-61581Y33355D01*
X-58046D01*
X-57577Y33448D01*
X-57180Y33714D01*
X-56915Y34111D01*
X-56821Y34580D01*
Y36540D01*
X-56915Y37009D01*
X-57180Y37406D01*
Y37454D01*
X-56915Y37851D01*
X-56821Y38320D01*
Y40280D01*
X-56915Y40749D01*
X-57166Y41170D01*
X-56915Y41591D01*
X-56821Y42060D01*
Y44021D01*
X-56915Y44489D01*
X-57180Y44886D01*
X-57577Y45152D01*
X-58046Y45245D01*
X-61581D01*
X-62050Y45152D01*
X-62447Y44886D01*
X-63415Y45237D01*
X-63426Y45244D01*
X-63479Y45434D01*
Y46166D01*
X-63426Y46356D01*
X-63113Y46565D01*
X-62729Y47139D01*
X-62594Y47818D01*
Y49294D01*
X-62729Y49972D01*
X-63113Y50547D01*
X-63688Y50931D01*
X-63398Y51848D01*
X-63099Y52408D01*
X-62246Y53446D01*
X-62213Y53468D01*
X-53874Y61807D01*
X-53737Y61798D01*
X-52990Y61225D01*
X-52121Y60865D01*
X-51187Y60742D01*
X-50727Y60803D01*
X-50027Y59632D01*
X-50156Y59139D01*
X-50675Y58683D01*
X-50981Y58062D01*
X-51026Y57372D01*
X-50804Y56718D01*
X-49771Y54928D01*
X-49441Y54551D01*
X-49527Y53872D01*
X-49680Y53484D01*
X-50342Y53042D01*
X-50784Y52380D01*
X-50939Y51600D01*
X-50784Y50820D01*
X-50342Y50158D01*
X-49680Y49716D01*
X-48900Y49561D01*
X-41445D01*
X-31242Y39358D01*
X-30580Y38916D01*
X-29800Y38761D01*
X-29800Y38761D01*
X-18400D01*
X-17620Y38916D01*
X-16958Y39358D01*
X-16749Y39567D01*
X-15825Y39184D01*
Y20382D01*
X-24921D01*
Y19119D01*
X-26471D01*
Y30200D01*
X-26587Y30785D01*
X-26919Y31281D01*
X-39759Y44122D01*
X-40221Y44430D01*
X-40229Y44472D01*
X-40613Y45047D01*
X-41188Y45431D01*
X-41866Y45566D01*
X-43933D01*
X-44612Y45431D01*
X-45187Y45047D01*
X-45270Y44923D01*
X-46353Y44886D01*
X-46750Y45152D01*
X-47219Y45245D01*
X-50754D01*
X-51223Y45152D01*
X-51620Y44886D01*
X-51885Y44489D01*
X-51979Y44021D01*
Y42060D01*
X-51885Y41591D01*
X-51620Y41194D01*
X-51223Y40929D01*
X-50754Y40835D01*
X-47219D01*
X-46750Y40929D01*
X-46353Y41194D01*
X-45265Y41182D01*
X-45187Y41065D01*
X-44612Y40680D01*
X-43933Y40545D01*
X-41866D01*
X-41188Y40680D01*
X-40862Y40899D01*
X-29529Y29566D01*
Y19766D01*
X-30033D01*
X-30712Y19631D01*
X-31287Y19247D01*
X-31671Y18672D01*
X-31806Y17994D01*
Y16518D01*
X-31671Y15840D01*
X-31287Y15265D01*
X-30712Y14880D01*
X-30033Y14746D01*
X-27966D01*
X-27288Y14880D01*
X-26713Y15265D01*
X-26522Y15550D01*
X-24921D01*
Y14445D01*
X-20076D01*
X-19984Y13986D01*
X-19653Y13490D01*
X-17581Y11419D01*
X-17085Y11087D01*
X-16500Y10971D01*
X-13000D01*
X-12415Y11087D01*
X-11919Y11419D01*
X-3919Y19419D01*
X-3851Y19520D01*
X958D01*
X1118Y19520D01*
X1118Y19520D01*
X1882Y19705D01*
X1882Y19705D01*
X14118D01*
Y20646D01*
X15185D01*
X15965Y20801D01*
X16627Y21243D01*
X21530Y26146D01*
X45882D01*
Y25020D01*
X58118D01*
Y26146D01*
X60366D01*
Y22957D01*
X72634D01*
Y34043D01*
X70388D01*
X70049Y35043D01*
X70331Y35260D01*
X71059Y36209D01*
X71517Y37314D01*
X71607Y38000D01*
X66500D01*
X61393D01*
X61483Y37314D01*
X61941Y36209D01*
X62669Y35260D01*
X62951Y35043D01*
X62612Y34043D01*
X60366D01*
Y30224D01*
X58825D01*
X58118Y30931D01*
Y31350D01*
X57500Y32094D01*
Y35500D01*
X46500D01*
Y32094D01*
X45882Y31350D01*
X45882Y30931D01*
X45175Y30224D01*
X20685D01*
X19905Y30069D01*
X19243Y29627D01*
X19243Y29627D01*
X15118Y25502D01*
X14118Y25916D01*
Y26035D01*
X13500Y26779D01*
Y30185D01*
X2500D01*
Y26779D01*
X1988Y26164D01*
X1299Y26109D01*
X500Y26898D01*
Y30000D01*
X-10500D01*
Y26594D01*
X-11118Y25850D01*
X-11118Y25256D01*
Y19520D01*
X-9450D01*
X-9067Y18596D01*
X-12155Y15508D01*
X-13079Y15891D01*
Y20382D01*
X-13174D01*
Y46000D01*
X-13275Y46507D01*
X-13563Y46937D01*
X-16375Y49749D01*
Y59400D01*
X-16475Y59907D01*
X-16752Y60352D01*
X-16269Y61069D01*
X-16229Y61131D01*
X-16186Y61174D01*
X-2117D01*
X2636Y55510D01*
X11129Y62637D01*
X10669Y63184D01*
X11118Y64205D01*
X11951Y64241D01*
X13342Y64680D01*
X14573Y65465D01*
X15560Y66541D01*
X16233Y67835D01*
X16549Y69260D01*
X16486Y70718D01*
X16362Y71112D01*
X16845Y71626D01*
X17179Y71846D01*
X18241Y71610D01*
X19436Y71663D01*
X20577Y72022D01*
X21160Y72394D01*
X17877Y76306D01*
X14595Y80219D01*
X14127Y79709D01*
X13575Y78648D01*
X13316Y77480D01*
X13363Y76393D01*
X13089Y76102D01*
X12499Y75716D01*
X12133Y75906D01*
X10708Y76222D01*
X9912Y76187D01*
X9591Y76499D01*
X9241Y77159D01*
X9385Y77635D01*
X9556Y78179D01*
X9562Y78189D01*
X9663Y78519D01*
X9663Y78519D01*
X9951Y79468D01*
X10492Y80480D01*
X11220Y81367D01*
X12106Y82095D01*
X13118Y82635D01*
X14216Y82968D01*
X15358Y83081D01*
X16499Y82968D01*
D02*
G37*
G36*
X-14218Y82968D02*
X-13120Y82635D01*
X-12108Y82095D01*
X-11221Y81367D01*
X-10493Y80480D01*
X-9953Y79468D01*
X-9665Y78519D01*
X-9665Y78519D01*
X-9564Y78189D01*
X-9558Y78179D01*
X-9386Y77635D01*
X-9167Y76913D01*
X-8251Y75197D01*
X-7017Y73694D01*
X-5983Y72846D01*
X-6317Y71825D01*
X-11573Y71531D01*
X-11658Y71612D01*
X-11702Y71593D01*
X-11699Y71532D01*
X-13431Y71395D01*
X-15161Y70980D01*
X-15290Y70927D01*
X-15894Y71314D01*
X-16194Y71634D01*
Y72982D01*
X-16329Y73660D01*
X-16713Y74235D01*
X-17288Y74620D01*
X-17966Y74755D01*
X-20033D01*
X-20712Y74620D01*
X-21287Y74235D01*
X-22213D01*
X-22788Y74620D01*
X-23467Y74755D01*
X-25534D01*
X-26212Y74620D01*
X-26787Y74235D01*
X-27171Y73660D01*
X-27306Y72982D01*
Y71506D01*
X-27171Y70828D01*
X-26787Y70253D01*
X-26277Y69912D01*
X-26369Y69774D01*
X-26523Y69000D01*
X-26369Y68226D01*
X-25931Y67569D01*
X-25274Y67131D01*
X-24500Y66977D01*
X-23726Y67131D01*
X-23674Y67166D01*
X-22526Y66895D01*
X-22336Y66374D01*
X-22469Y66174D01*
X-22623Y65400D01*
X-22509Y64825D01*
X-22881Y64133D01*
X-23137Y63826D01*
X-29351D01*
X-30402Y64876D01*
X-30377Y65000D01*
X-30531Y65774D01*
X-30969Y66431D01*
X-31626Y66869D01*
X-32400Y67023D01*
X-33174Y66869D01*
X-33831Y66431D01*
X-34269Y65774D01*
X-34423Y65000D01*
X-34269Y64226D01*
X-33831Y63569D01*
X-33174Y63131D01*
X-32400Y62977D01*
X-32276Y63002D01*
X-30837Y61563D01*
X-30407Y61275D01*
X-29900Y61174D01*
X-21349D01*
X-19026Y58851D01*
Y49200D01*
X-18925Y48693D01*
X-18637Y48263D01*
X-15898Y45523D01*
X-15966Y44509D01*
X-16826Y43965D01*
X-17200Y44039D01*
X-17980Y43884D01*
X-18642Y43442D01*
X-19245Y42839D01*
X-25735D01*
X-26277Y43500D01*
X-26431Y44274D01*
X-26869Y44931D01*
X-27526Y45369D01*
X-28300Y45523D01*
X-29074Y45369D01*
X-29730Y44931D01*
X-30979Y44862D01*
X-37329Y51213D01*
X-37015Y52314D01*
X-36558Y52421D01*
X-36274Y52231D01*
X-35500Y52077D01*
X-34726Y52231D01*
X-34069Y52669D01*
X-33631Y53326D01*
X-33477Y54100D01*
X-33631Y54874D01*
X-34069Y55531D01*
X-34726Y55969D01*
X-35377Y56099D01*
X-35277Y56600D01*
X-35431Y57374D01*
X-35869Y58031D01*
X-36211Y58259D01*
X-35821Y59201D01*
X-35700Y59177D01*
X-34926Y59331D01*
X-34269Y59769D01*
X-33831Y60426D01*
X-33677Y61200D01*
X-33831Y61974D01*
X-34269Y62631D01*
X-34926Y63069D01*
X-35700Y63223D01*
X-35943Y63175D01*
X-36523Y63290D01*
X-37241D01*
X-37956Y64528D01*
X-38412Y65048D01*
X-39032Y65354D01*
X-39722Y65399D01*
X-40377Y65177D01*
X-41655Y64439D01*
X-42175Y63983D01*
X-42481Y63362D01*
X-42506Y62987D01*
X-42644Y62846D01*
X-43277Y62480D01*
X-43468Y62432D01*
X-43805Y62598D01*
X-44495Y62643D01*
X-45150Y62421D01*
X-46429Y61683D01*
X-46647Y61491D01*
X-47675Y61520D01*
X-47705Y61532D01*
X-48038Y62412D01*
X-47525Y63282D01*
X-46925Y63203D01*
X-45992Y63326D01*
X-45123Y63686D01*
X-44376Y64259D01*
X-43803Y65005D01*
X-43486Y65772D01*
X-42663Y65663D01*
X-41730Y65786D01*
X-40861Y66146D01*
X-40114Y66719D01*
X-39541Y67466D01*
X-39181Y68336D01*
X-39152Y68557D01*
X-38402Y69133D01*
X-37729Y69221D01*
X-37569Y69288D01*
X-38933Y71650D01*
X-38067Y72150D01*
X-36644Y69686D01*
X-35910Y69655D01*
X-35580Y69535D01*
X-35448Y69307D01*
X-29256Y72882D01*
X-31936Y77522D01*
X-31599Y78464D01*
X-27198Y80120D01*
X-21899Y81727D01*
X-17472Y82759D01*
X-16501Y82968D01*
X-15359Y83081D01*
X-14218Y82968D01*
D02*
G37*
G36*
X-78795Y9620D02*
X-76955Y9062D01*
X-75260Y8155D01*
X-73773Y6936D01*
X-72553Y5449D01*
X-71647Y3754D01*
X-71089Y1914D01*
X-70900Y0D01*
X-71089Y-1914D01*
X-71647Y-3754D01*
X-72553Y-5449D01*
X-73773Y-6936D01*
X-75260Y-8155D01*
X-76955Y-9062D01*
X-78795Y-9620D01*
X-80709Y-9808D01*
X-82622Y-9620D01*
X-84462Y-9062D01*
X-85056Y-8744D01*
Y-8744D01*
X-85186Y-8692D01*
X-85511Y-8627D01*
X-85511Y-8627D01*
X-85524Y-8625D01*
X-85967Y-8537D01*
X-86241Y-8338D01*
X-86290Y-7944D01*
X-86614Y-2651D01*
X-86614Y2651D01*
X-86290Y7944D01*
X-86241Y8338D01*
X-85967Y8537D01*
X-85524Y8625D01*
X-85511Y8627D01*
X-85511Y8627D01*
X-85187Y8692D01*
X-85056Y8744D01*
Y8744D01*
X-84462Y9062D01*
X-82622Y9620D01*
X-80709Y9808D01*
X-78795Y9620D01*
D02*
G37*
G36*
X1111Y-26599D02*
X1463Y-27125D01*
X1989Y-27476D01*
X2609Y-27600D01*
X3791D01*
X3996Y-27559D01*
X6519Y-30081D01*
X7015Y-30413D01*
X7600Y-30529D01*
X15917D01*
X16426Y-30869D01*
X17200Y-31023D01*
X17974Y-30869D01*
X18483Y-30529D01*
X25104D01*
X25346Y-30824D01*
Y-33090D01*
X25512Y-33922D01*
X25983Y-34627D01*
X26207Y-34777D01*
X26286Y-35852D01*
X25775Y-36362D01*
X24820Y-36314D01*
X24787Y-36265D01*
X24212Y-35880D01*
X23534Y-35745D01*
X21466D01*
X20788Y-35880D01*
X20277Y-36222D01*
X20195Y-36249D01*
X20155Y-36257D01*
X19103Y-36127D01*
X18931Y-35869D01*
X18274Y-35431D01*
X17500Y-35277D01*
X16726Y-35431D01*
X16069Y-35869D01*
X15631Y-36526D01*
X15477Y-37300D01*
X15615Y-37995D01*
X15728Y-38985D01*
X15153Y-39369D01*
X14944Y-39682D01*
X14754Y-39735D01*
X14022D01*
X13833Y-39682D01*
X13624Y-39369D01*
X13049Y-38985D01*
X12370Y-38850D01*
X10894D01*
X10320Y-38964D01*
X9890Y-38704D01*
X9431Y-38307D01*
X9454Y-38189D01*
Y-36122D01*
X9320Y-35444D01*
X8935Y-34869D01*
X8360Y-34485D01*
X7682Y-34350D01*
X6206D01*
X5528Y-34485D01*
X4953Y-34869D01*
X4569Y-35444D01*
X4434Y-36122D01*
Y-38189D01*
X4569Y-38868D01*
X4944Y-39456D01*
X4569Y-40044D01*
X4434Y-40722D01*
Y-42789D01*
X4569Y-43468D01*
X4953Y-44043D01*
X5528Y-44427D01*
X6206Y-44562D01*
X6461D01*
X6995Y-45562D01*
X6903Y-45700D01*
X6750Y-46471D01*
X5642D01*
X5557Y-46343D01*
X5161Y-46079D01*
X4694Y-45986D01*
X1741D01*
X1274Y-46079D01*
X878Y-46343D01*
X613Y-46739D01*
X521Y-47206D01*
Y-48387D01*
X613Y-48854D01*
X878Y-49250D01*
X1274Y-49515D01*
X1741Y-49608D01*
X4694D01*
X5161Y-49515D01*
X5557Y-49250D01*
X5642Y-49122D01*
X6737D01*
Y-49979D01*
X6903Y-50811D01*
X7374Y-51517D01*
X8080Y-51989D01*
X8912Y-52154D01*
X11178D01*
X12010Y-51989D01*
X12716Y-51517D01*
X13033Y-51042D01*
X13323Y-50972D01*
X13853D01*
X14144Y-51042D01*
X14461Y-51517D01*
X15166Y-51989D01*
X15999Y-52154D01*
X18264D01*
X19097Y-51989D01*
X19802Y-51517D01*
X20082Y-51099D01*
X21127Y-50672D01*
X21594Y-50765D01*
X22149D01*
X22247Y-51765D01*
X22236Y-51767D01*
X21530Y-52239D01*
X21059Y-52944D01*
X20893Y-53777D01*
Y-57223D01*
X21059Y-58056D01*
X21530Y-58761D01*
Y-59739D01*
X21059Y-60444D01*
X20893Y-61277D01*
Y-64723D01*
X21059Y-65556D01*
X21530Y-66261D01*
X22236Y-66733D01*
X23068Y-66898D01*
X25334D01*
X26166Y-66733D01*
X26871Y-66261D01*
X27189Y-65786D01*
X27479Y-65716D01*
X28009D01*
X28300Y-65786D01*
X28617Y-66261D01*
X29322Y-66733D01*
X30154Y-66898D01*
X32420D01*
X33253Y-66733D01*
X33958Y-66261D01*
X34429Y-65556D01*
X34595Y-64723D01*
Y-61277D01*
X34429Y-60444D01*
X34685Y-59503D01*
X35114Y-59365D01*
X35572Y-59671D01*
X36250Y-59806D01*
X37726D01*
X38405Y-59671D01*
X38980Y-59287D01*
X39189Y-58974D01*
X39378Y-58921D01*
X40110D01*
X40300Y-58974D01*
X40509Y-59287D01*
X41084Y-59671D01*
X41762Y-59806D01*
X43238D01*
X43916Y-59671D01*
X44154Y-59512D01*
X45154Y-59957D01*
Y-62843D01*
X55146D01*
X55504Y-63843D01*
X51506Y-67124D01*
X47006Y-70349D01*
X42304Y-73273D01*
X37421Y-75883D01*
X32378Y-78168D01*
X27196Y-80118D01*
X21898Y-81726D01*
X20401Y-82075D01*
X19618Y-81453D01*
Y-80033D01*
X20112Y-79539D01*
X21000D01*
X21780Y-79384D01*
X22442Y-78942D01*
X22884Y-78280D01*
X23039Y-77500D01*
X22884Y-76720D01*
X22442Y-76058D01*
X21780Y-75616D01*
X21000Y-75461D01*
X19268D01*
X19000Y-75241D01*
Y-73000D01*
X8000D01*
Y-77000D01*
X7382Y-77150D01*
X6938Y-77150D01*
X6000Y-76406D01*
Y-73000D01*
X-5000D01*
Y-73365D01*
X-5882Y-73650D01*
X-6500Y-72906D01*
Y-69500D01*
X-17500D01*
Y-72148D01*
X-18425Y-73086D01*
X-18850Y-73086D01*
X-19000Y-72906D01*
Y-69500D01*
X-30000D01*
Y-72906D01*
X-30618Y-73650D01*
X-30618Y-74244D01*
Y-77952D01*
X-31440Y-78522D01*
X-32379Y-78168D01*
X-37423Y-75883D01*
X-42305Y-73273D01*
X-47007Y-70349D01*
X-51508Y-67124D01*
X-55477Y-63867D01*
X-55119Y-62867D01*
X-45757D01*
Y-62151D01*
X-44757Y-61658D01*
X-44096Y-62166D01*
X-42747Y-62724D01*
X-41300Y-62915D01*
X-39853Y-62724D01*
X-38504Y-62166D01*
X-37346Y-61277D01*
X-36458Y-60119D01*
X-35899Y-58771D01*
X-35805Y-58059D01*
X-29233D01*
X-28726Y-57958D01*
X-28296Y-57670D01*
X-25063Y-54437D01*
X-24775Y-54007D01*
X-24675Y-53500D01*
Y-45557D01*
X-23992Y-45421D01*
X-23286Y-44950D01*
X-22815Y-44245D01*
X-22649Y-43412D01*
Y-39966D01*
X-22815Y-39133D01*
X-23286Y-38428D01*
Y-37950D01*
X-22815Y-37245D01*
X-22649Y-36412D01*
Y-36218D01*
X-20189D01*
X-19604Y-36102D01*
X-19107Y-35770D01*
X-9866Y-26529D01*
X-5432D01*
X-5287Y-26747D01*
X-4712Y-27131D01*
X-4033Y-27266D01*
X-1966D01*
X-1288Y-27131D01*
X-713Y-26747D01*
X-568Y-26529D01*
X1097D01*
X1111Y-26599D01*
D02*
G37*
G36*
X-40037Y-26662D02*
X-39647Y-27039D01*
Y-29991D01*
X-39554Y-30458D01*
X-39290Y-30854D01*
X-38894Y-31119D01*
X-38427Y-31212D01*
X-37246D01*
X-36779Y-31119D01*
X-36655Y-31036D01*
X-35934Y-31757D01*
X-36185Y-32133D01*
X-36351Y-32966D01*
Y-33913D01*
X-36378Y-33966D01*
X-37246Y-34677D01*
X-38427D01*
X-38894Y-34769D01*
X-39290Y-35034D01*
X-39554Y-35430D01*
X-39647Y-35897D01*
Y-38850D01*
X-39554Y-39317D01*
X-39290Y-39713D01*
X-38894Y-39977D01*
X-38427Y-40070D01*
X-37246D01*
X-36378Y-40780D01*
X-36351Y-40834D01*
Y-43412D01*
X-36185Y-44245D01*
X-35714Y-44950D01*
X-35008Y-45421D01*
X-34176Y-45587D01*
X-31910D01*
X-31078Y-45421D01*
X-30373Y-44950D01*
X-30056Y-44475D01*
X-29765Y-44405D01*
X-29235D01*
X-28944Y-44475D01*
X-28627Y-44950D01*
X-27922Y-45421D01*
X-27325Y-45540D01*
Y-52951D01*
X-29782Y-55408D01*
X-35805D01*
X-35899Y-54695D01*
X-36458Y-53347D01*
X-37346Y-52189D01*
X-38504Y-51301D01*
X-38778Y-51187D01*
X-38889Y-50059D01*
X-38765Y-49976D01*
X-38380Y-49401D01*
X-38245Y-48722D01*
Y-46655D01*
X-38380Y-45977D01*
X-38765Y-45402D01*
X-39340Y-45018D01*
X-40018Y-44883D01*
X-41494D01*
X-42172Y-45018D01*
X-42579Y-45290D01*
X-42668Y-45263D01*
X-42812Y-45042D01*
X-43038Y-44163D01*
X-42829Y-43850D01*
X-42694Y-43171D01*
Y-42114D01*
X-42017Y-41437D01*
X-41730Y-41007D01*
X-41629Y-40500D01*
Y-39798D01*
X-41501Y-39713D01*
X-41236Y-39317D01*
X-41144Y-38850D01*
Y-35897D01*
X-41236Y-35430D01*
X-41501Y-35034D01*
X-41897Y-34769D01*
X-42364Y-34677D01*
X-43545D01*
X-44012Y-34769D01*
X-44408Y-35034D01*
X-44657Y-35407D01*
X-45640D01*
X-45768Y-34767D01*
X-46239Y-34062D01*
X-46714Y-33744D01*
X-46784Y-33454D01*
Y-32924D01*
X-46714Y-32633D01*
X-46239Y-32316D01*
X-45768Y-31611D01*
X-45635Y-30944D01*
X-44273D01*
X-44012Y-31119D01*
X-43545Y-31212D01*
X-42364D01*
X-41897Y-31119D01*
X-41501Y-30854D01*
X-41236Y-30458D01*
X-41144Y-29991D01*
Y-27038D01*
X-41174Y-26884D01*
X-40969Y-26537D01*
X-40469Y-26378D01*
X-40037Y-26662D01*
D02*
G37*
G36*
X49963Y-35782D02*
Y-41805D01*
X49251Y-41899D01*
X47902Y-42458D01*
X46744Y-43346D01*
X45856Y-44504D01*
X45742Y-44778D01*
X44614Y-44889D01*
X44531Y-44765D01*
X43956Y-44380D01*
X43278Y-44245D01*
X41211D01*
X40532Y-44380D01*
X39957Y-44765D01*
X39573Y-45340D01*
X39438Y-46018D01*
Y-47494D01*
X39573Y-48172D01*
X39845Y-48579D01*
X39818Y-48668D01*
X39597Y-48812D01*
X38718Y-49038D01*
X38405Y-48829D01*
X37726Y-48694D01*
X36669D01*
X35992Y-48017D01*
X35562Y-47730D01*
X35055Y-47629D01*
X34353D01*
X34268Y-47501D01*
X33872Y-47236D01*
X33405Y-47144D01*
X30452D01*
X29985Y-47236D01*
X29589Y-47501D01*
X29324Y-47897D01*
X29232Y-48364D01*
Y-49545D01*
X29324Y-50012D01*
X29589Y-50408D01*
X29962Y-50657D01*
Y-51640D01*
X29322Y-51767D01*
X28617Y-52239D01*
X28300Y-52714D01*
X28009Y-52784D01*
X27479D01*
X27189Y-52714D01*
X26871Y-52239D01*
X26166Y-51767D01*
X25499Y-51635D01*
Y-50273D01*
X25674Y-50012D01*
X25767Y-49545D01*
Y-48364D01*
X25674Y-47897D01*
X25409Y-47501D01*
X25013Y-47236D01*
X24546Y-47144D01*
X21594D01*
X21439Y-47174D01*
X21092Y-46970D01*
X20933Y-46469D01*
X21217Y-46037D01*
X21594Y-45647D01*
X24546D01*
X25013Y-45554D01*
X25409Y-45290D01*
X25674Y-44894D01*
X25767Y-44427D01*
Y-43246D01*
X25674Y-42779D01*
X25591Y-42655D01*
X26312Y-41934D01*
X26689Y-42185D01*
X27521Y-42351D01*
X28468D01*
X28521Y-42377D01*
X29232Y-43246D01*
Y-44427D01*
X29324Y-44894D01*
X29589Y-45290D01*
X29985Y-45554D01*
X30452Y-45647D01*
X33405D01*
X33872Y-45554D01*
X34268Y-45290D01*
X34532Y-44894D01*
X34625Y-44427D01*
Y-43246D01*
X35335Y-42377D01*
X35389Y-42351D01*
X37968D01*
X38800Y-42185D01*
X39505Y-41714D01*
X39977Y-41008D01*
X40142Y-40176D01*
Y-37910D01*
X39977Y-37078D01*
X39505Y-36373D01*
X39031Y-36056D01*
X38960Y-35765D01*
Y-35235D01*
X39031Y-34944D01*
X39505Y-34627D01*
X39977Y-33922D01*
X40095Y-33325D01*
X47506D01*
X49963Y-35782D01*
D02*
G37*
%LPC*%
G36*
X22092Y79190D02*
X18965Y76566D01*
X21926Y73037D01*
X22394Y73547D01*
X22946Y74608D01*
X23205Y75776D01*
X23153Y76971D01*
X22793Y78112D01*
X22151Y79121D01*
X22092Y79190D01*
D02*
G37*
G36*
X67091Y43082D02*
X67000D01*
Y39000D01*
X71607D01*
X71517Y39686D01*
X71059Y40791D01*
X70331Y41740D01*
X69382Y42469D01*
X68277Y42926D01*
X67091Y43082D01*
D02*
G37*
G36*
X66000D02*
X65909D01*
X64723Y42926D01*
X63618Y42469D01*
X62669Y41740D01*
X61941Y40791D01*
X61483Y39686D01*
X61393Y39000D01*
X66000D01*
Y43082D01*
D02*
G37*
G36*
X-47219Y37764D02*
X-50754D01*
X-51223Y37671D01*
X-51620Y37406D01*
X-51885Y37009D01*
X-51979Y36540D01*
Y34580D01*
X-51885Y34111D01*
X-51620Y33714D01*
X-51501Y32584D01*
X-51517Y32534D01*
X-51531Y32512D01*
X-51666Y31833D01*
Y29766D01*
X-51531Y29088D01*
X-51355Y28824D01*
X-51454Y28233D01*
X-52308Y27809D01*
X-52537Y27804D01*
X-52704Y27933D01*
X-54053Y28491D01*
X-55500Y28682D01*
X-56947Y28491D01*
X-58296Y27933D01*
X-59453Y27044D01*
X-59870Y26502D01*
X-61130D01*
X-61546Y27044D01*
X-62704Y27933D01*
X-64053Y28491D01*
X-65500Y28682D01*
X-66947Y28491D01*
X-68296Y27933D01*
X-69454Y27044D01*
X-70342Y25886D01*
X-70500Y25505D01*
X-71200Y25421D01*
X-71598Y25468D01*
X-72260Y26331D01*
X-73209Y27059D01*
X-74314Y27517D01*
X-75000Y27607D01*
Y22500D01*
Y17393D01*
X-74314Y17483D01*
X-73209Y17941D01*
X-72260Y18669D01*
X-71598Y19532D01*
X-71200Y19579D01*
X-70500Y19495D01*
X-70342Y19114D01*
X-69454Y17956D01*
X-68296Y17067D01*
X-66947Y16509D01*
X-65500Y16318D01*
X-64053Y16509D01*
X-62704Y17067D01*
X-61546Y17956D01*
X-61130Y18498D01*
X-59870D01*
X-59453Y17956D01*
X-58296Y17067D01*
X-56947Y16509D01*
X-55500Y16318D01*
X-54053Y16509D01*
X-52704Y17067D01*
X-52043Y17575D01*
X-51043Y17082D01*
Y16366D01*
X-39957D01*
Y28634D01*
X-45973D01*
X-46672Y29634D01*
X-46646Y29766D01*
Y31833D01*
X-46780Y32512D01*
X-46397Y33685D01*
X-46353Y33714D01*
X-46088Y34111D01*
X-45995Y34580D01*
Y36540D01*
X-46088Y37009D01*
X-46353Y37406D01*
X-46750Y37671D01*
X-47219Y37764D01*
D02*
G37*
G36*
X-76000Y27607D02*
X-76686Y27517D01*
X-77791Y27059D01*
X-78740Y26331D01*
X-79469Y25382D01*
X-79926Y24277D01*
X-80082Y23091D01*
Y23000D01*
X-76000D01*
Y27607D01*
D02*
G37*
G36*
Y22000D02*
X-80082D01*
Y21909D01*
X-79926Y20723D01*
X-79469Y19618D01*
X-78740Y18669D01*
X-77791Y17941D01*
X-76686Y17483D01*
X-76000Y17393D01*
Y22000D01*
D02*
G37*
G36*
X22100Y24123D02*
X21326Y23969D01*
X20669Y23531D01*
X20231Y22874D01*
X20077Y22100D01*
X20231Y21326D01*
X20669Y20669D01*
X21326Y20231D01*
X22100Y20077D01*
X22874Y20231D01*
X23105Y20385D01*
X23460D01*
X25293Y18552D01*
X25291Y18542D01*
Y16277D01*
X25456Y15444D01*
X25928Y14739D01*
X26106Y14620D01*
X26179Y13524D01*
X26076Y13440D01*
X25485Y13200D01*
X25010Y13420D01*
X24712Y13620D01*
X24034Y13755D01*
X21967D01*
X21288Y13620D01*
X20713Y13235D01*
X20329Y12661D01*
X20278Y12403D01*
X19258Y12402D01*
X19215Y12620D01*
X18776Y13276D01*
X18120Y13715D01*
X17346Y13869D01*
X16572Y13715D01*
X15915Y13276D01*
X15477Y12620D01*
X15323Y11846D01*
X15477Y11072D01*
X15673Y10381D01*
X15098Y9997D01*
X14889Y9684D01*
X14699Y9631D01*
X13967D01*
X13778Y9684D01*
X13568Y9997D01*
X12994Y10381D01*
X12315Y10516D01*
X10839D01*
X10265Y10402D01*
X9835Y10662D01*
X9376Y11059D01*
X9399Y11177D01*
Y13244D01*
X9264Y13922D01*
X8880Y14497D01*
X8305Y14881D01*
X7627Y15016D01*
X6151D01*
X5473Y14881D01*
X4898Y14497D01*
X4513Y13922D01*
X4379Y13244D01*
Y11177D01*
X4513Y10499D01*
X4889Y9910D01*
X4513Y9322D01*
X4379Y8644D01*
Y6577D01*
X4513Y5899D01*
X4898Y5324D01*
X5473Y4939D01*
X6151Y4804D01*
X6406D01*
X6940Y3805D01*
X6848Y3666D01*
X6694Y2895D01*
X5587D01*
X5502Y3023D01*
X5106Y3287D01*
X4639Y3380D01*
X1686D01*
X1219Y3287D01*
X823Y3023D01*
X558Y2627D01*
X465Y2160D01*
Y979D01*
X558Y512D01*
X823Y116D01*
X1219Y-149D01*
X1686Y-242D01*
X4639D01*
X5106Y-149D01*
X5502Y116D01*
X5587Y244D01*
X6682D01*
Y-613D01*
X6848Y-1445D01*
X7319Y-2151D01*
X8025Y-2622D01*
X8857Y-2788D01*
X11123D01*
X11955Y-2622D01*
X12660Y-2151D01*
X12978Y-1676D01*
X13268Y-1606D01*
X13798D01*
X14089Y-1676D01*
X14406Y-2151D01*
X15111Y-2622D01*
X15944Y-2788D01*
X18209D01*
X19041Y-2622D01*
X19747Y-2151D01*
X20026Y-1733D01*
X21072Y-1306D01*
X21539Y-1399D01*
X22093D01*
X22192Y-2399D01*
X22181Y-2401D01*
X21475Y-2873D01*
X21004Y-3578D01*
X20838Y-4410D01*
Y-7857D01*
X21004Y-8689D01*
X21475Y-9395D01*
Y-10373D01*
X21004Y-11078D01*
X20838Y-11910D01*
Y-15357D01*
X21004Y-16190D01*
X21475Y-16895D01*
X22181Y-17366D01*
X23013Y-17532D01*
X25278D01*
X26111Y-17366D01*
X26816Y-16895D01*
X27133Y-16420D01*
X27424Y-16350D01*
X27954D01*
X28245Y-16420D01*
X28562Y-16895D01*
X29267Y-17366D01*
X30099Y-17532D01*
X32365D01*
X33197Y-17366D01*
X33903Y-16895D01*
X34374Y-16190D01*
X34540Y-15357D01*
Y-11910D01*
X34374Y-11078D01*
X34629Y-10137D01*
X35059Y-9999D01*
X35517Y-10305D01*
X36195Y-10440D01*
X37671D01*
X38350Y-10305D01*
X38924Y-9921D01*
X39133Y-9608D01*
X39323Y-9555D01*
X40055D01*
X40244Y-9608D01*
X40453Y-9921D01*
X41028Y-10305D01*
X41707Y-10440D01*
X43183D01*
X43861Y-10305D01*
X44436Y-9921D01*
X44820Y-9346D01*
X44897Y-8959D01*
X45276D01*
X45783Y-8858D01*
X46213Y-8571D01*
X47741Y-7043D01*
X58134D01*
Y4043D01*
X57419D01*
X56925Y5043D01*
X57433Y5704D01*
X57991Y7053D01*
X58182Y8500D01*
X57991Y9947D01*
X57433Y11296D01*
X56544Y12454D01*
X55386Y13342D01*
X54038Y13901D01*
X52786Y14065D01*
X52725Y14373D01*
X52437Y14803D01*
X48937Y18303D01*
X48507Y18591D01*
X48000Y18692D01*
X40057D01*
X39922Y19375D01*
X39450Y20080D01*
X38745Y20551D01*
X37912Y20717D01*
X34466D01*
X33633Y20551D01*
X32928Y20080D01*
X32450D01*
X31745Y20551D01*
X30912Y20717D01*
X27466D01*
X27456Y20715D01*
X25175Y22996D01*
X24678Y23328D01*
X24093Y23444D01*
X23588D01*
X23531Y23531D01*
X22874Y23969D01*
X22100Y24123D01*
D02*
G37*
G36*
X-20559Y9555D02*
X-24921D01*
Y3618D01*
X-20559D01*
Y9555D01*
D02*
G37*
G36*
X-41800Y5723D02*
X-42574Y5569D01*
X-43231Y5131D01*
X-43669Y4474D01*
X-43823Y3700D01*
X-43669Y2926D01*
X-43583Y2796D01*
Y1798D01*
X-43608Y1672D01*
Y-1280D01*
X-43515Y-1747D01*
X-43250Y-2143D01*
X-42854Y-2408D01*
X-42387Y-2501D01*
X-41206D01*
X-40739Y-2408D01*
X-40343Y-2143D01*
X-40079Y-1747D01*
X-40025Y-1475D01*
X-39082Y-1474D01*
X-38747Y-1976D01*
X-38172Y-2360D01*
X-37494Y-2495D01*
X-36018D01*
X-35339Y-2360D01*
X-34765Y-1976D01*
X-34380Y-1401D01*
X-34245Y-722D01*
Y1345D01*
X-34380Y2023D01*
X-34765Y2598D01*
X-35339Y2982D01*
X-36018Y3117D01*
X-37494D01*
X-38172Y2982D01*
X-38570Y2716D01*
X-39028Y2733D01*
X-39807Y3548D01*
X-39777Y3700D01*
X-39931Y4474D01*
X-40369Y5131D01*
X-41026Y5569D01*
X-41800Y5723D01*
D02*
G37*
G36*
X-51122Y6333D02*
X-53189D01*
X-53868Y6198D01*
X-54443Y5814D01*
X-54827Y5239D01*
X-54962Y4561D01*
Y3085D01*
X-54827Y2406D01*
X-54443Y1832D01*
X-54130Y1623D01*
X-54077Y1433D01*
Y701D01*
X-54130Y511D01*
X-54443Y302D01*
X-54827Y-273D01*
X-54962Y-951D01*
Y-2427D01*
X-54827Y-3105D01*
X-54443Y-3680D01*
X-54198Y-3844D01*
X-54137Y-4095D01*
X-54179Y-4905D01*
X-54198Y-4955D01*
X-54542Y-5186D01*
X-54927Y-5761D01*
X-55062Y-6439D01*
Y-7915D01*
X-54927Y-8594D01*
X-54542Y-9168D01*
X-53968Y-9553D01*
X-53289Y-9688D01*
X-51222D01*
X-51085Y-9660D01*
X-50746Y-9887D01*
X-50238Y-9988D01*
X-48726D01*
Y-10139D01*
X-48633Y-10606D01*
X-48368Y-11001D01*
X-47973Y-11266D01*
X-47506Y-11359D01*
X-46324D01*
X-45857Y-11266D01*
X-45461Y-11001D01*
X-45197Y-10606D01*
X-45104Y-10139D01*
Y-7186D01*
X-45197Y-6719D01*
X-45461Y-6323D01*
X-45857Y-6058D01*
X-46324Y-5965D01*
X-47506D01*
X-47973Y-6058D01*
X-48368Y-6323D01*
X-48450Y-6445D01*
X-48936Y-6442D01*
X-49485Y-6266D01*
X-49585Y-5761D01*
X-49969Y-5186D01*
X-50214Y-5022D01*
X-50275Y-4771D01*
X-50233Y-3961D01*
X-50214Y-3911D01*
X-49869Y-3680D01*
X-49485Y-3105D01*
X-49357Y-2463D01*
X-49254Y-2399D01*
X-48368Y-2143D01*
X-47973Y-2408D01*
X-47506Y-2501D01*
X-46324D01*
X-45857Y-2408D01*
X-45461Y-2143D01*
X-45197Y-1747D01*
X-45104Y-1280D01*
Y1672D01*
X-45197Y2139D01*
X-45461Y2535D01*
X-45857Y2800D01*
X-46324Y2893D01*
X-47506D01*
X-47798Y2835D01*
X-48069Y3242D01*
X-48726Y3680D01*
X-49350Y3804D01*
Y4561D01*
X-49485Y5239D01*
X-49869Y5814D01*
X-50444Y6198D01*
X-51122Y6333D01*
D02*
G37*
%LPD*%
G36*
X49063Y14428D02*
X48868Y13447D01*
X48614Y13342D01*
X47456Y12454D01*
X46567Y11296D01*
X46009Y9947D01*
X45818Y8500D01*
X46009Y7053D01*
X46567Y5704D01*
X46897Y5274D01*
X46539Y4286D01*
X45866Y4043D01*
D01*
X44866Y3995D01*
X44860Y4027D01*
X44476Y4602D01*
X43901Y4986D01*
X43222Y5121D01*
X41155D01*
X40477Y4986D01*
X39902Y4602D01*
X39518Y4027D01*
X39383Y3348D01*
Y1872D01*
X39518Y1194D01*
X39790Y787D01*
X39763Y698D01*
X39542Y554D01*
X38663Y328D01*
X38350Y537D01*
X37671Y672D01*
X36614D01*
X35937Y1349D01*
X35507Y1636D01*
X35000Y1737D01*
X34298D01*
X34212Y1865D01*
X33817Y2130D01*
X33350Y2223D01*
X30397D01*
X29930Y2130D01*
X29534Y1865D01*
X29269Y1469D01*
X29177Y1002D01*
Y-179D01*
X29269Y-646D01*
X29534Y-1042D01*
X29907Y-1291D01*
Y-2274D01*
X29267Y-2401D01*
X28562Y-2873D01*
X28245Y-3347D01*
X27954Y-3418D01*
X27424D01*
X27133Y-3347D01*
X26816Y-2873D01*
X26111Y-2401D01*
X25444Y-2269D01*
Y-907D01*
X25619Y-646D01*
X25712Y-179D01*
Y1002D01*
X25619Y1469D01*
X25354Y1865D01*
X24958Y2130D01*
X24491Y2223D01*
X21539D01*
X21384Y2192D01*
X21036Y2397D01*
X20878Y2897D01*
X21162Y3330D01*
X21539Y3719D01*
X24491D01*
X24958Y3812D01*
X25354Y4076D01*
X25619Y4472D01*
X25712Y4939D01*
Y6120D01*
X25619Y6587D01*
X25536Y6712D01*
X26257Y7432D01*
X26633Y7181D01*
X27466Y7015D01*
X28413D01*
X28466Y6989D01*
X29177Y6120D01*
Y4939D01*
X29269Y4472D01*
X29534Y4076D01*
X29930Y3812D01*
X30397Y3719D01*
X33350D01*
X33817Y3812D01*
X34212Y4076D01*
X34477Y4472D01*
X34570Y4939D01*
Y6120D01*
X35280Y6989D01*
X35334Y7015D01*
X37912D01*
X38745Y7181D01*
X39450Y7652D01*
X39922Y8358D01*
X40087Y9190D01*
Y11456D01*
X39922Y12288D01*
X39450Y12993D01*
X38976Y13311D01*
X38905Y13601D01*
Y14131D01*
X38976Y14422D01*
X39450Y14739D01*
X39922Y15444D01*
X40040Y16041D01*
X47451D01*
X49063Y14428D01*
D02*
G37*
%LPC*%
G36*
X-4722Y-40246D02*
X-6789D01*
X-7468Y-40380D01*
X-8043Y-40765D01*
X-8162Y-40944D01*
X-9057D01*
X-9226Y-40831D01*
X-10000Y-40677D01*
X-10774Y-40831D01*
X-11431Y-41269D01*
X-11869Y-41926D01*
X-12023Y-42700D01*
X-11869Y-43474D01*
X-11431Y-44131D01*
X-10774Y-44569D01*
X-10000Y-44723D01*
X-9226Y-44569D01*
X-9141Y-44512D01*
X-8200D01*
X-8043Y-44747D01*
X-7540Y-45083D01*
Y-46070D01*
X-7584Y-46079D01*
X-7980Y-46343D01*
X-8245Y-46739D01*
X-8338Y-47206D01*
Y-48387D01*
X-8245Y-48854D01*
X-7980Y-49250D01*
X-7584Y-49515D01*
X-7117Y-49608D01*
X-4165D01*
X-3698Y-49515D01*
X-3302Y-49250D01*
X-3037Y-48854D01*
X-2944Y-48387D01*
Y-47206D01*
X-3037Y-46739D01*
X-3302Y-46343D01*
X-3698Y-46079D01*
X-3970Y-46025D01*
X-3971Y-45082D01*
X-3469Y-44747D01*
X-3085Y-44172D01*
X-2950Y-43494D01*
Y-42018D01*
X-3085Y-41339D01*
X-3469Y-40765D01*
X-4044Y-40380D01*
X-4722Y-40246D01*
D02*
G37*
G36*
X4694Y-51104D02*
X1741D01*
X1274Y-51197D01*
X878Y-51461D01*
X613Y-51857D01*
X521Y-52324D01*
Y-53505D01*
X613Y-53973D01*
X878Y-54368D01*
X1001Y-54450D01*
X997Y-54936D01*
X821Y-55485D01*
X316Y-55585D01*
X-259Y-55969D01*
X-423Y-56214D01*
X-674Y-56275D01*
X-1484Y-56233D01*
X-1534Y-56214D01*
X-1764Y-55869D01*
X-2340Y-55485D01*
X-2982Y-55357D01*
X-3046Y-55254D01*
X-3302Y-54368D01*
X-3037Y-53973D01*
X-2944Y-53505D01*
Y-52324D01*
X-3037Y-51857D01*
X-3302Y-51461D01*
X-3698Y-51197D01*
X-4165Y-51104D01*
X-7117D01*
X-7584Y-51197D01*
X-7980Y-51461D01*
X-8245Y-51857D01*
X-8338Y-52324D01*
Y-53505D01*
X-8280Y-53798D01*
X-8687Y-54069D01*
X-9125Y-54726D01*
X-9249Y-55350D01*
X-10006D01*
X-10684Y-55485D01*
X-11259Y-55869D01*
X-11643Y-56444D01*
X-11778Y-57122D01*
Y-59189D01*
X-11643Y-59868D01*
X-11259Y-60443D01*
X-10684Y-60827D01*
X-10006Y-60962D01*
X-8529D01*
X-7851Y-60827D01*
X-7276Y-60443D01*
X-7067Y-60130D01*
X-6877Y-60077D01*
X-6146D01*
X-5956Y-60130D01*
X-5747Y-60443D01*
X-5172Y-60827D01*
X-4494Y-60962D01*
X-3018D01*
X-2340Y-60827D01*
X-1764Y-60443D01*
X-1601Y-60198D01*
X-1350Y-60137D01*
X-540Y-60179D01*
X-490Y-60198D01*
X-259Y-60543D01*
X316Y-60927D01*
X994Y-61062D01*
X2471D01*
X3149Y-60927D01*
X3724Y-60543D01*
X4108Y-59968D01*
X4243Y-59289D01*
Y-57222D01*
X4215Y-57085D01*
X4442Y-56746D01*
X4543Y-56238D01*
Y-54726D01*
X4694D01*
X5161Y-54633D01*
X5557Y-54368D01*
X5821Y-53973D01*
X5914Y-53505D01*
Y-52324D01*
X5821Y-51857D01*
X5557Y-51461D01*
X5161Y-51197D01*
X4694Y-51104D01*
D02*
G37*
%LPD*%
D10*
X-132Y62500D02*
G03*
X2940Y63772I0J4343D01*
G01*
X-11658Y70200D02*
G03*
X-11624Y70201I0J600D01*
G01*
X-11658Y70200D02*
G03*
X-18729Y67271I0J-10000D01*
G01*
X3196Y71005D02*
G03*
X2891Y71013I-199J-1789D01*
G01*
X51500Y9000D02*
Y13866D01*
Y9000D02*
X52000Y8500D01*
X45276Y-7634D02*
X50409Y-2500D01*
X42445Y-7634D02*
X45276D01*
X50409Y-2500D02*
X51500D01*
X48000Y17366D02*
X51500Y13866D01*
X36232Y17366D02*
X48000D01*
X36189Y17410D02*
X36232Y17366D01*
X51288Y-47300D02*
Y-35233D01*
X48055Y-32000D02*
X51288Y-35233D01*
X36287Y-32000D02*
X48055D01*
X36244Y-31957D02*
X36287Y-32000D01*
X29384Y-39043D02*
X36244D01*
X31928Y-43836D02*
Y-41588D01*
X29384Y-39043D02*
X31928Y-41588D01*
X29244Y-39043D02*
X29384D01*
X-26000Y-41732D02*
X-25957Y-41689D01*
X-26000Y-53500D02*
Y-41732D01*
X-29233Y-56733D02*
X-26000Y-53500D01*
X-41300Y-56733D02*
X-29233D01*
X-33043Y-41689D02*
Y-34829D01*
X-37836Y-37373D02*
X-35588D01*
X-33043Y-34829D01*
Y-34689D01*
X-17700Y49200D02*
X-14500Y46000D01*
Y17976D02*
Y46000D01*
X-3811Y-8790D02*
X-3761Y-8840D01*
X-9323Y-8790D02*
Y-8495D01*
X-7137Y-6308D01*
X-6872Y-4036D02*
X-6385Y-3549D01*
X-5696D01*
X1627Y-8840D02*
Y-8407D01*
X3162Y-6872D01*
X9531Y1569D02*
X9760Y1340D01*
X10873Y7660D02*
X11200Y7333D01*
X6889Y7610D02*
X6939Y7660D01*
X10873D01*
X11200Y2779D02*
Y7333D01*
X17076Y1110D02*
X17775Y412D01*
X24118Y-13607D02*
X24146Y-13634D01*
X23731Y412D02*
X24118Y24D01*
X23015Y412D02*
X23731D01*
X36933Y-7634D02*
Y-7522D01*
Y-1634D02*
Y-1522D01*
X35000Y412D02*
X36933Y-1522D01*
X31620Y412D02*
X31873D01*
X31232Y24D02*
X31620Y412D01*
X31873D02*
X35000D01*
X38192Y-6262D02*
X38305D01*
X42317Y-1506D02*
X42445Y-1634D01*
X41577Y-2990D02*
Y-2980D01*
X42423Y-2134D01*
X42189Y3110D02*
X42317Y2982D01*
X-6872Y-6044D02*
Y-4036D01*
X3162Y-6872D02*
Y-3549D01*
X6889Y7610D02*
Y12210D01*
X9760Y1340D02*
X11200Y2779D01*
X31232Y-6134D02*
Y24D01*
X42317Y-1506D02*
Y2982D01*
X38305Y-6262D02*
X41577Y-2990D01*
X24118Y-13607D02*
Y24D01*
X31232Y-13634D02*
Y-6134D01*
X3162Y1569D02*
X9531D01*
X17775Y412D02*
X23015D01*
X36933Y-7522D02*
X38192Y-6262D01*
X-3761Y-8840D02*
X1627D01*
X9815Y-48026D02*
X11255Y-46587D01*
X42244Y-46256D02*
X42372Y-46384D01*
X-6817Y-55410D02*
Y-53402D01*
X6944Y-41756D02*
Y-37156D01*
X3217Y-56238D02*
Y-52915D01*
X11255Y-46587D02*
Y-42033D01*
X24174Y-62973D02*
Y-49342D01*
X31287Y-55500D02*
Y-49342D01*
Y-63000D02*
Y-55500D01*
X38360Y-55628D02*
X41632Y-52356D01*
X42372Y-50872D02*
Y-46384D01*
X42500Y-57000D02*
X50988D01*
X6994Y-41706D02*
X10928D01*
X9586Y-47797D02*
X9815Y-48026D01*
X-6330Y-52915D02*
X-5641D01*
X17830Y-48954D02*
X23070D01*
X17131Y-48256D02*
X17830Y-48954D01*
X31928D02*
X35055D01*
X41632Y-52346D02*
X42478Y-51500D01*
X1682Y-57774D02*
X3217Y-56238D01*
X6944Y-41756D02*
X6994Y-41706D01*
X10928D02*
X11255Y-42033D01*
X-6817Y-53402D02*
X-6330Y-52915D01*
X3217Y-47797D02*
X9586D01*
X23070Y-48954D02*
X23786D01*
X24174Y-49342D01*
X31287D02*
X31675Y-48954D01*
X31928D01*
X35055D02*
X36988Y-50888D01*
Y-51000D02*
Y-50888D01*
X41632Y-52356D02*
Y-52346D01*
X42372Y-50872D02*
X42500Y-51000D01*
X-9268Y-57861D02*
X-7081Y-55674D01*
X-9268Y-58156D02*
Y-57861D01*
X1682Y-58206D02*
Y-57774D01*
X-3706Y-58206D02*
X1682D01*
X-3756Y-58156D02*
X-3706Y-58206D01*
X36988Y-57000D02*
Y-56888D01*
X38248Y-55628D01*
X38360D01*
X50988Y-57000D02*
X51288Y-57300D01*
X24174Y-62973D02*
X24201Y-63000D01*
X-57000Y-29646D02*
X-56973Y-29618D01*
X-51300Y-56733D02*
X-51000Y-56433D01*
X-49628Y-43805D02*
Y-43692D01*
X-50888Y-42433D02*
X-49628Y-43692D01*
X-51000Y-42433D02*
X-50888D01*
X-52206Y-1739D02*
X-52156Y-1689D01*
X-52206Y-7127D02*
Y-1739D01*
Y-7127D02*
X-51774D01*
X-52156Y3823D02*
X-51861D01*
X-49674Y1637D01*
X-45000Y-47945D02*
X-44872Y-47817D01*
X-46356Y-47077D02*
X-46346D01*
X-45000Y-42433D02*
X-44888D01*
X-42954Y-40500D01*
Y-37373D02*
Y-37120D01*
X-43342Y-36732D02*
X-42954Y-37120D01*
X-43342Y-29618D02*
X-42954Y-29231D01*
Y-28515D01*
X-41797Y-15031D02*
Y-8662D01*
X-47402Y1373D02*
X-46915Y885D01*
X-36033Y-16700D02*
X-35706Y-16373D01*
X-35756Y-12389D02*
X-35706Y-12439D01*
X-51774Y-7127D02*
X-50238Y-8662D01*
X-46346Y-47077D02*
X-45500Y-47923D01*
X-42954Y-40500D02*
Y-37373D01*
Y-23275D02*
X-42256Y-22576D01*
X-42954Y-28515D02*
Y-23275D01*
X-46915Y196D02*
Y885D01*
X-42026Y-15260D02*
X-41797Y-15031D01*
X-35706Y-16373D02*
Y-12439D01*
X-51000Y-56433D02*
Y-47945D01*
X-44872Y-47817D02*
X-40384D01*
X-49628Y-43805D02*
X-46356Y-47077D01*
X-57000Y-36732D02*
X-49500D01*
X-43342D01*
X-56973Y-29618D02*
X-43342D01*
X-40587Y-16700D02*
X-36033D01*
X-50238Y-8662D02*
X-46915D01*
X-35756Y-12389D02*
X-31156D01*
X-49410Y1373D02*
X-47402D01*
X-40384Y-47817D02*
X-40256Y-47689D01*
X-42026Y-15260D02*
X-40587Y-16700D01*
X-66060Y35560D02*
X-59813D01*
X-65396Y43040D02*
X-59813D01*
X-70600Y40100D02*
X-66060Y35560D01*
X-20800Y62500D02*
X-17700Y59400D01*
Y49200D02*
Y59400D01*
X-29900Y62500D02*
X-20800D01*
X-17700D02*
X-132D01*
X-32400Y65000D02*
X-29900Y62500D01*
X-20600Y65400D02*
X-18729Y67271D01*
X-11624Y70201D02*
X2891Y71013D01*
X3196Y71005D02*
X10600Y70200D01*
D13*
X-10500Y-25000D02*
X3200D01*
X29244Y-31957D02*
X36244D01*
X28996D02*
X29244D01*
X29189Y17410D02*
X36189D01*
X-16500Y12500D02*
X-13000D01*
X-19000Y17413D02*
X-18571Y16985D01*
Y14571D02*
Y16985D01*
Y14571D02*
X-16500Y12500D01*
X-13000D02*
X-5000Y20500D01*
Y22685D01*
X-48987Y43040D02*
X-40840D01*
X-29000Y17256D02*
X-28958D01*
X-28000Y18214D01*
Y30200D01*
X28598Y17410D02*
X29189D01*
X24093Y21915D02*
X28598Y17410D01*
X22285Y21915D02*
X24093D01*
X22100Y22100D02*
X22285Y21915D01*
X17200Y-29000D02*
X26449D01*
X7600D02*
X17200D01*
X-14950Y-13550D02*
X-14744Y-13756D01*
X-15000Y-13500D02*
X-14950Y-13550D01*
X-9850D01*
X-9800Y-13600D01*
X17144Y-41656D02*
X17322Y-41478D01*
Y-37478D01*
X17500Y-37300D01*
X26449Y-29000D02*
X27279Y-29829D01*
Y-30239D02*
Y-29829D01*
Y-30239D02*
X28996Y-31957D01*
X4613Y-26013D02*
X7600Y-29000D01*
X17294Y11795D02*
X17346Y11846D01*
X17089Y7710D02*
X17294Y7916D01*
Y11795D01*
X3200Y-25000D02*
Y-24600D01*
Y-25338D02*
Y-25000D01*
Y-25338D02*
X3874Y-26013D01*
X4613D01*
X-20189Y-34689D02*
X-10500Y-25000D01*
X-25957Y-34689D02*
X-20189D01*
X-25957Y-41689D02*
Y-34689D01*
X-23500Y-13500D02*
X-15000D01*
X-32589Y-22589D02*
X-23500Y-13500D01*
X-35656Y-22589D02*
X-32589D01*
X-14744Y-20000D02*
Y-13756D01*
X-40840Y43040D02*
X-28000Y30200D01*
X-39613Y62378D02*
X-38996Y61761D01*
X-36523D01*
X-35962Y61200D01*
X-35700D01*
D14*
X31232Y-6134D02*
D03*
X24146D02*
D03*
X17076Y1110D02*
D03*
X9990D02*
D03*
X31232Y-13634D02*
D03*
X24146D02*
D03*
X31287Y-55500D02*
D03*
X24201D02*
D03*
X17131Y-48256D02*
D03*
X10045D02*
D03*
X31287Y-63000D02*
D03*
X24201D02*
D03*
X-33043Y-41689D02*
D03*
X-25957D02*
D03*
Y-34689D02*
D03*
X-33043D02*
D03*
D15*
X8000Y33500D02*
D03*
Y22870D02*
D03*
X74000Y-26815D02*
D03*
Y-16185D02*
D03*
X-24500Y-66185D02*
D03*
Y-76815D02*
D03*
X-12000Y-66185D02*
D03*
Y-76815D02*
D03*
X500Y-69685D02*
D03*
Y-80315D02*
D03*
X13500Y-69685D02*
D03*
Y-80315D02*
D03*
X50500Y-26815D02*
D03*
Y-16185D02*
D03*
X62250Y-26815D02*
D03*
Y-16185D02*
D03*
X-5000Y33315D02*
D03*
Y22685D02*
D03*
X52000Y38815D02*
D03*
Y28185D02*
D03*
D18*
X-36756Y311D02*
D03*
X-31244D02*
D03*
X-14744Y-20000D02*
D03*
X-20256D02*
D03*
X-14744Y0D02*
D03*
X-20256D02*
D03*
X6889Y7610D02*
D03*
X1377D02*
D03*
X17089Y7710D02*
D03*
X11577D02*
D03*
X42445Y-2134D02*
D03*
X36933D02*
D03*
X42445Y-7634D02*
D03*
X36933D02*
D03*
X-9323Y-8790D02*
D03*
X-3811D02*
D03*
X1677Y-8890D02*
D03*
X7189D02*
D03*
X6889Y12210D02*
D03*
X1377D02*
D03*
X6944Y-41756D02*
D03*
X1432D02*
D03*
X17144Y-41656D02*
D03*
X11632D02*
D03*
X42500Y-51500D02*
D03*
X36988D02*
D03*
X42500Y-57000D02*
D03*
X36988D02*
D03*
X-9268Y-58156D02*
D03*
X-3756D02*
D03*
X1732Y-58256D02*
D03*
X7244D02*
D03*
X6944Y-37156D02*
D03*
X1432D02*
D03*
X-31856Y-28100D02*
D03*
X-26344D02*
D03*
X-40756Y-47689D02*
D03*
X-35244D02*
D03*
X-43644Y30800D02*
D03*
X-49156D02*
D03*
D19*
X-3000Y-24756D02*
D03*
Y-19244D02*
D03*
X16500Y-25000D02*
D03*
Y-19488D02*
D03*
X-5811Y12122D02*
D03*
Y6610D02*
D03*
X23000Y16756D02*
D03*
Y11244D02*
D03*
X42189Y8122D02*
D03*
Y2610D02*
D03*
X-5756Y-37244D02*
D03*
Y-42756D02*
D03*
X22500Y-32744D02*
D03*
Y-38256D02*
D03*
X42244Y-41244D02*
D03*
Y-46756D02*
D03*
X-35756Y-6877D02*
D03*
Y-12389D02*
D03*
X-35656Y-17077D02*
D03*
Y-22589D02*
D03*
X-45500Y-42433D02*
D03*
Y-47945D02*
D03*
X-51000Y-42433D02*
D03*
Y-47945D02*
D03*
X-52156Y-1689D02*
D03*
Y3823D02*
D03*
X-52256Y-7177D02*
D03*
Y-12689D02*
D03*
X-31156Y-6877D02*
D03*
Y-12389D02*
D03*
X-29000Y17256D02*
D03*
Y11744D02*
D03*
X-42900Y43056D02*
D03*
Y37544D02*
D03*
X-65400Y43044D02*
D03*
Y48556D02*
D03*
X-19000Y77756D02*
D03*
Y72244D02*
D03*
X-24500D02*
D03*
Y77756D02*
D03*
D20*
X-65185Y-21000D02*
D03*
X-75815D02*
D03*
D22*
X-44387Y59622D02*
D03*
X-39613Y62378D02*
D03*
X-52887Y54322D02*
D03*
X-48113Y57078D02*
D03*
D78*
X64717Y-16185D02*
X74000D01*
X62250D02*
X64717D01*
X65882Y-15020D01*
Y-11618D01*
X66000Y-11500D01*
X52000Y-16185D02*
X60165D01*
X59000Y-15020D02*
X60165Y-16185D01*
X59000Y-15020D02*
Y-11500D01*
X52000Y-16185D02*
Y-11500D01*
X-75815Y-23953D02*
Y-21000D01*
Y-23953D02*
X-72500Y-27268D01*
Y-28500D02*
Y-27268D01*
X13500Y-80315D02*
X16453D01*
X500D02*
X13500D01*
X-12000Y-76815D02*
X-4790D01*
X-3618Y-77987D01*
Y-79150D02*
Y-77987D01*
Y-79150D02*
X-2453Y-80315D01*
X500D01*
X-24500Y-76815D02*
X-12000D01*
X16453Y-80315D02*
X19268Y-77500D01*
X21000D01*
X63500Y26091D02*
X65595Y28185D01*
X-5000Y22685D02*
X15185D01*
X52000Y28185D02*
X65595D01*
X65909Y28500D01*
X66500D01*
X20685Y28185D02*
X52000D01*
X15185Y22685D02*
X20685Y28185D01*
X-26300Y40800D02*
X-18400D01*
X-17200Y42000D01*
X-29800Y40800D02*
X-26300D01*
X-40600Y51600D02*
X-29800Y40800D01*
X-48900Y51600D02*
X-40600D01*
D79*
X-63222Y54478D02*
G03*
X-65700Y48500I5972J-5978D01*
G01*
X-51286Y64518D02*
G03*
X-54523Y63177I0J-4578D01*
G01*
X29383Y10323D02*
X36189D01*
X31873Y5530D02*
Y7833D01*
X29383Y10323D02*
X31873Y7833D01*
X29189Y10323D02*
X29383D01*
X-49156Y30800D02*
Y35391D01*
X-48987Y35560D01*
X-41200Y54100D02*
X-35500D01*
X-46703Y56534D02*
X-43634D01*
X-41200Y54100D01*
X-48113Y57078D02*
X-47247D01*
Y57765D01*
Y57078D02*
X-46703Y56534D01*
X-51286Y64518D02*
X-47247Y57765D01*
X-63222Y54478D02*
X-54523Y63177D01*
X-47247Y57765D02*
X-44387Y59622D01*
X-24500Y69000D02*
X-24419Y69081D01*
Y72163D01*
X-20500Y68500D02*
X-20500D01*
X-18913Y71244D02*
X-18500D01*
X-18964Y71193D02*
X-18913Y71244D01*
X-18964Y70036D02*
Y71193D01*
X-20500Y68500D02*
X-18964Y70036D01*
X-24500Y72244D02*
X-24419Y72163D01*
D80*
X-27421Y17335D02*
X-20079D01*
X-41798Y198D02*
X-41797Y196D01*
X-41798Y198D02*
Y3698D01*
X-41800Y3700D02*
X-41798Y3698D01*
X-5784Y-42728D02*
X-5756Y-42756D01*
X-9972Y-42728D02*
X-5784D01*
X-10000Y-42700D02*
X-9972Y-42728D01*
X-15130Y-5890D02*
Y6457D01*
X-34827Y-27800D02*
X-31856D01*
X-37799D02*
X-34827D01*
X-10535Y6598D02*
X-5823D01*
X-15248D02*
X-10535D01*
X-37836Y-28515D02*
Y-27837D01*
X-37799Y-27800D01*
X22500Y-41563D02*
Y-39326D01*
Y-43799D02*
Y-41563D01*
Y-43799D02*
X22537Y-43836D01*
X23070D01*
X16500Y-25000D02*
X21000D01*
X10680Y-24600D02*
X10880Y-24800D01*
X16300D01*
X16500Y-25000D01*
X23000Y11244D02*
Y11754D01*
Y8000D02*
Y11244D01*
Y5545D02*
Y8000D01*
Y5545D02*
X23015Y5530D01*
X-5823Y6598D02*
X-5811Y6610D01*
X-15260Y6587D02*
X-15248Y6598D01*
X-15260Y6587D02*
X-15130Y6457D01*
Y-5890D02*
X-15000Y-6020D01*
X-27500Y17256D02*
X-27421Y17335D01*
X-5774Y1569D02*
X-5696D01*
X-5811Y1607D02*
X-5774Y1569D01*
X-5811Y1607D02*
Y6610D01*
X-5756Y-47759D02*
Y-42756D01*
Y-47759D02*
X-5719Y-47797D01*
X-5641D01*
X-41797Y196D02*
Y274D01*
X-41759Y311D01*
X-36756D01*
D82*
X52000Y8500D02*
D03*
X51288Y-47300D02*
D03*
X66500Y38500D02*
D03*
D83*
X52000Y-1500D02*
D03*
X51288Y-57300D02*
D03*
X66500Y28500D02*
D03*
D84*
X-41300Y-56733D02*
D03*
X-75500Y22500D02*
D03*
X-65500D02*
D03*
X-55500D02*
D03*
D85*
X-51300Y-56733D02*
D03*
X-45500Y22500D02*
D03*
D86*
X-34238Y74361D02*
D03*
D87*
X-38500Y71900D02*
D03*
X-42762Y69439D02*
D03*
X-47024Y66979D02*
D03*
X-51286Y64518D02*
D03*
D88*
X18260Y76628D02*
D03*
X10600Y70200D02*
D03*
D89*
X2940Y63772D02*
D03*
D90*
X80709Y0D02*
D03*
X-80709D02*
D03*
D91*
X52000Y-11500D02*
D03*
X66000D02*
D03*
X59000D02*
D03*
X48012Y52000D02*
D03*
X54000D02*
D03*
X48000Y60500D02*
D03*
Y44000D02*
D03*
X41000Y52000D02*
D03*
X34000Y67500D02*
D03*
X17500Y17000D02*
D03*
X-6500Y-32000D02*
D03*
X47500Y-39000D02*
D03*
X-21500Y-25500D02*
D03*
X-31500Y-53000D02*
D03*
D92*
X60000Y-32000D02*
D03*
X39000Y-69500D02*
D03*
X26500Y-74000D02*
D03*
X-74500Y32000D02*
D03*
X-65000Y-11500D02*
D03*
X-63000Y-4500D02*
D03*
X36500Y38000D02*
D03*
X29500D02*
D03*
X21500D02*
D03*
X6000Y40000D02*
D03*
X-1500D02*
D03*
X22500Y3000D02*
D03*
Y-46500D02*
D03*
X-40500Y-27500D02*
D03*
X-10000Y10500D02*
D03*
X-4500Y16500D02*
D03*
X-27000Y-2500D02*
D03*
X-72500Y-28500D02*
D03*
X21000Y-77500D02*
D03*
X22100Y22100D02*
D03*
X18194Y-5240D02*
D03*
X17200Y-29000D02*
D03*
X-9800Y-13600D02*
D03*
X17500Y-37300D02*
D03*
X-41800Y3700D02*
D03*
X-10000Y-42700D02*
D03*
X18249Y-54606D02*
D03*
X-48600Y-23700D02*
D03*
X-34827Y-27800D02*
D03*
X22500Y-41563D02*
D03*
X21000Y-25000D02*
D03*
X17346Y11846D02*
D03*
X23000Y8000D02*
D03*
X-15000Y3000D02*
D03*
X-10535Y6598D02*
D03*
X-7311Y-6134D02*
D03*
X-7256Y-55500D02*
D03*
X-49500Y1811D02*
D03*
X-70600Y40100D02*
D03*
X-34800Y26600D02*
D03*
X61200Y50000D02*
D03*
X19700Y64700D02*
D03*
X47600Y65800D02*
D03*
X36800Y47400D02*
D03*
X36400Y56800D02*
D03*
X28700Y56400D02*
D03*
X30600Y47900D02*
D03*
X24800D02*
D03*
X18900Y55800D02*
D03*
X19100Y48000D02*
D03*
X12800Y44100D02*
D03*
X13300Y60300D02*
D03*
X1600Y55100D02*
D03*
X7800Y55500D02*
D03*
X-4600Y55300D02*
D03*
X7800Y48600D02*
D03*
X1800D02*
D03*
X-4000Y48500D02*
D03*
X-6800Y44600D02*
D03*
X-11000Y44700D02*
D03*
X-12500Y80100D02*
D03*
X-35700Y61200D02*
D03*
X-37300Y56600D02*
D03*
X-22000Y51900D02*
D03*
X-28000D02*
D03*
X-22000Y57600D02*
D03*
X-28000D02*
D03*
X-17700Y62500D02*
D03*
X-20600Y65400D02*
D03*
X-32400Y65000D02*
D03*
X-26300Y40800D02*
D03*
X-17200Y42000D02*
D03*
X-28300Y43500D02*
D03*
Y78400D02*
D03*
X-47900Y48700D02*
D03*
X-35500Y54100D02*
D03*
X-48900Y51600D02*
D03*
X-22800Y37700D02*
D03*
X-24500Y69000D02*
D03*
X-20500Y68500D02*
D03*
D93*
X10680Y-24600D02*
D03*
X3200D02*
D03*
X6940Y-15151D02*
D03*
D94*
X-15000Y-6020D02*
D03*
Y-13500D02*
D03*
X-24449Y-9760D02*
D03*
D95*
X23015Y5530D02*
D03*
Y412D02*
D03*
X31873D02*
D03*
Y2971D02*
D03*
Y5530D02*
D03*
X-5696Y1569D02*
D03*
Y-3549D02*
D03*
X3162D02*
D03*
Y-990D02*
D03*
Y1569D02*
D03*
X23070Y-43836D02*
D03*
Y-48954D02*
D03*
X31928D02*
D03*
Y-46395D02*
D03*
Y-43836D02*
D03*
X-5641Y-47797D02*
D03*
Y-52915D02*
D03*
X3217D02*
D03*
Y-50356D02*
D03*
Y-47797D02*
D03*
D96*
X36189Y17410D02*
D03*
Y10323D02*
D03*
X29189Y17410D02*
D03*
Y10323D02*
D03*
X36244Y-31957D02*
D03*
Y-39043D02*
D03*
X29244Y-31957D02*
D03*
Y-39043D02*
D03*
X-49500Y-29646D02*
D03*
Y-36732D02*
D03*
X-42256Y-22576D02*
D03*
Y-15490D02*
D03*
X-57000Y-36732D02*
D03*
Y-29646D02*
D03*
D97*
X-37836Y-37373D02*
D03*
X-40395D02*
D03*
X-42954D02*
D03*
Y-28515D02*
D03*
X-37836D02*
D03*
X-41797Y-8662D02*
D03*
X-44356D02*
D03*
X-46915D02*
D03*
Y196D02*
D03*
X-41797D02*
D03*
D98*
X-15260Y6587D02*
D03*
X-19000D02*
D03*
X-22740D02*
D03*
Y17413D02*
D03*
X-19000D02*
D03*
X-15260D02*
D03*
D99*
X-59813Y43040D02*
D03*
Y39300D02*
D03*
Y35560D02*
D03*
X-48987D02*
D03*
Y39300D02*
D03*
Y43040D02*
D03*
M02*
