M48
;Layer_Color=9474304
;FILE_FORMAT=2:5
INCH,LZ
;TYPE=PLATED
T1F00S00C0.00787
T2F00S00C0.01772
T3F00S00C0.05118
T4F00S00C0.09843
%
T01
X-00725Y-00285
X-00405Y-00275
X-0034827Y-00278
X-00315Y-0053
X-0007256Y-00555
X-001Y-00427
X-00065Y-0032
X00172Y-0029
X00175Y-00373
X00225Y-0041563
Y-00465
X0018249Y-0054606
X0021Y-00775
X00265Y-0074
X0039Y-00695
X00475Y-0039
X006Y-0032
X0059Y-00115
X0052
X0018194Y-000524
X00225Y0003
X0023Y0008
X0017346Y0011846
X00175Y0017
X00221Y00221
X00215Y0038
X00295
X00365
X00368Y00474
X00306Y00479
X00248
X00191Y0048
X00189Y00558
X00197Y00647
X00133Y00603
X00078Y00555
X00016Y00551
X-00046Y00553
X-0004Y00485
X00018Y00486
X00078
X00128Y00441
X0006Y004
X-00015
X-00068Y00446
X-0011Y00447
X-00172Y0042
X-00228Y00377
X-00263Y00408
X-00283Y00435
X-0028Y00519
Y00576
X-0022
Y00519
X-00177Y00625
X-00206Y00654
X-00205Y00685
X-00245Y0069
X-00324Y0065
X-00357Y00612
X-00373Y00566
X-00355Y00541
X-00489Y00516
X-00479Y00487
X-00706Y00401
X-00745Y0032
X-00348Y00266
X-00418Y00037
X-00495Y0001811
X-0063Y-00045
X-0065Y-00115
X-00486Y-00237
X-00215Y-00255
X-00098Y-00136
X-0007311Y-0006134
X-0010535Y0006598
X-001Y00105
X-00045Y00165
X-0015Y0003
X-0027Y-00025
X0021Y-0025
X00287Y00564
X00364Y00568
X0041Y0052
X0048012
X0054
X00612Y005
X0048Y0044
Y00605
X00476Y00658
X0034Y00675
X-00125Y00801
X-00283Y00784
X0066Y-00115
T02
X-0051286Y0064518
X-0047024Y0066979
X-0042762Y0069439
X-00385Y00719
X-0034238Y0074361
T03
X-00513Y-0056733
X-00413
X0051288Y-00573
Y-00473
X0052Y-00015
Y00085
X001826Y0076628
X00106Y00702
X000294Y0063772
X-00455Y00225
X-00555
X-00655
X-00755
X00665Y00285
Y00385
T04
X-0080709Y0
X0080709
M30
